<svg width="150" height="68" viewBox="0 0 150 68" fill="none" xmlns="http://www.w3.org/2000/svg">
<rect y="8" width="150" height="60" rx="14" fill="url(#paint0_linear_4897_5320)"/>
<g filter="url(#filter0_f_4897_5320)">
<path d="M111.261 19.5851C112.102 18.4515 113.313 17.6423 114.686 17.2955V17.2955C115.22 17.1607 115.736 17.5665 115.729 18.1137V18.1137C115.709 19.5198 115.202 20.879 114.293 21.9577L89.4514 51.4283C89.1545 51.7806 88.816 52.096 88.4432 52.3678V52.3678C87.9811 52.7047 87.3743 52.203 87.6236 51.6901L87.7389 51.4531C87.9126 51.0958 88.1193 50.7554 88.3563 50.4361L111.261 19.5851Z" fill="url(#paint1_linear_4897_5320)"/>
</g>
<g filter="url(#filter1_f_4897_5320)">
<path d="M116.482 19.8244C116.661 19.4002 116.93 19.0194 117.27 18.7082V18.7082C117.552 18.451 118.004 18.6504 118.003 19.0302V19.0302C118.001 19.4888 117.899 19.9426 117.706 20.3593L107.564 42.2V42.2C107.413 42.4335 107.051 42.2683 107.131 42.0023L107.164 41.8934L116.482 19.8244Z" fill="url(#paint2_linear_4897_5320)"/>
</g>
<g filter="url(#filter2_f_4897_5320)">
<path d="M113.377 20.2277C113.649 19.4103 114.326 18.7902 115.165 18.5886V18.5886C115.305 18.555 115.451 18.6129 115.53 18.733V18.733C116 19.4529 116.066 20.3655 115.702 21.147L110.214 32.9409C110.055 33.2826 109.825 33.5874 109.541 33.8355V33.8355C109.375 33.9801 109.116 33.8647 109.114 33.6454L109.114 33.5564C109.111 33.2142 109.165 32.8738 109.273 32.5487L113.377 20.2277Z" fill="url(#paint3_linear_4897_5320)"/>
</g>
<g filter="url(#filter3_f_4897_5320)">
<path d="M115.728 42.2055C115.82 41.932 115.982 41.6842 116.196 41.4893V41.4893C116.331 41.3654 116.552 41.4407 116.579 41.6219V41.6219C116.622 41.9104 116.588 42.2051 116.481 42.4769L112.145 53.4923C112.124 53.546 112.098 53.5977 112.068 53.6467V53.6467C112.008 53.7419 111.863 53.6674 111.906 53.5641L111.937 53.4895L115.728 42.2055Z" fill="url(#paint4_linear_4897_5320)"/>
</g>
<g filter="url(#filter4_f_4897_5320)">
<path d="M131.485 40.1696C131.409 39.6916 131.523 39.1991 131.799 38.8019V38.8019C131.884 38.6795 132.058 38.6566 132.171 38.7544V38.7544C132.539 39.0736 132.765 39.5259 132.8 40.0116L133.615 51.3767C133.625 51.5202 133.614 51.6643 133.582 51.8044V51.8044C133.546 51.9622 133.314 51.9396 133.309 51.7778L133.303 51.6135L131.485 40.1696Z" fill="url(#paint5_linear_4897_5320)"/>
</g>
<g filter="url(#filter5_f_4897_5320)">
<path d="M91.4771 28.1862C91.9032 27.4234 92.8057 27.0527 93.6492 27.2889V27.2889C93.7015 27.3036 93.7476 27.3354 93.7794 27.3792V27.3792C94.2873 28.0761 94.2122 29.0373 93.602 29.6501L89.1881 34.083C88.8882 34.3842 88.4918 34.5715 88.0679 34.6124L88.0147 34.6175C87.8585 34.6325 87.7785 34.4366 87.9008 34.3386V34.3386C88.0673 34.2052 88.2064 34.0411 88.3102 33.8552L91.4771 28.1862Z" fill="url(#paint6_linear_4897_5320)"/>
</g>
<g filter="url(#filter6_f_4897_5320)">
<path d="M97.7676 13.856C98.286 13.3724 98.9421 13.0482 99.6424 12.9252V12.9252C100.002 12.862 100.309 13.1951 100.207 13.5436V13.5436C100.007 14.2293 99.6047 14.8396 99.0527 15.2963L80.1362 30.946V30.946C79.8998 31.1018 79.6377 30.7875 79.8358 30.5857L79.8521 30.5691L97.7676 13.856Z" fill="url(#paint7_linear_4897_5320)"/>
</g>
<g filter="url(#filter7_f_4897_5320)">
<path d="M126.657 24.9702C126.717 24.5163 126.997 24.1177 127.403 23.9045V23.9045C127.479 23.8649 127.572 23.8809 127.629 23.944V23.944C127.936 24.2838 128.052 24.7556 127.937 25.1997L126.015 32.591C125.971 32.7586 125.894 32.9155 125.788 33.0523V33.0523C125.704 33.1594 125.535 33.0707 125.576 32.9413L125.592 32.8895C125.616 32.8127 125.634 32.7339 125.644 32.6541L126.657 24.9702Z" fill="url(#paint8_linear_4897_5320)"/>
</g>
<g filter="url(#filter8_f_4897_5320)">
<path d="M113.096 13.6039C113.521 13.3748 114.022 13.3181 114.489 13.4432V13.4432C114.635 13.4823 114.716 13.6398 114.66 13.7795V13.7795C114.482 14.2293 114.132 14.5901 113.686 14.7835L103.171 19.352C103.04 19.4086 102.902 19.4458 102.761 19.4622V19.4622C102.6 19.4809 102.542 19.256 102.693 19.1969L102.845 19.1374L113.096 13.6039Z" fill="url(#paint9_linear_4897_5320)"/>
</g>
<g filter="url(#filter9_f_4897_5320)">
<path fill-rule="evenodd" clip-rule="evenodd" d="M123.574 10.3167C123.574 10.4916 123.176 10.6333 122.685 10.6333C122.194 10.6333 121.796 10.4916 121.796 10.3167C121.796 10.1418 122.194 10 122.685 10C123.176 10 123.574 10.1418 123.574 10.3167ZM118.656 13.4335C118.938 13.4101 119.212 13.3818 119.476 13.3493C119.102 13.6307 118.983 14.0613 119.223 14.6852C119.787 16.1451 121.402 16.0304 124.464 15.813C124.678 15.7978 124.899 15.7822 125.127 15.7665C125.808 15.7665 126.46 15.7478 127.059 15.7134C127.39 15.9536 128.341 16.1271 129.464 16.1271C130.282 16.1271 130.827 16.0447 131.246 15.9039C131.651 15.7674 131.679 15.2393 131.273 15.1065C131.041 15.0307 130.769 14.9836 130.433 14.9565C130.432 14.9462 130.431 14.9359 130.428 14.9255C130.374 14.7098 130.105 14.5578 129.689 14.4286C127.782 13.8373 124.179 12.9394 121.709 12.905C122.242 12.7347 122.555 12.5487 122.54 12.3757C123.974 10.8398 123.202 11.0182 121.471 11.4185C120.66 11.606 119.638 11.8422 118.534 11.9736C116.355 12.1547 114.616 12.6283 114.649 13.0314C116.109 13.5852 117.005 13.5255 117.868 13.4681C118.129 13.4507 118.386 13.4335 118.656 13.4335ZM115.633 16.876C116.211 16.2392 115.824 15.2487 114.726 14.6584C114.109 14.3261 113.208 14.1447 110.67 14.2049C109.381 14.2049 108.778 14.5311 107.98 14.9625C107.539 15.201 107.039 15.4716 106.33 15.7371C106.224 15.7769 106.135 15.8366 106.063 15.9093C105.179 15.9892 104.526 16.2715 104.526 16.6076C104.526 16.8215 104.79 17.0136 105.211 17.1456C104.93 17.1088 104.616 17.0882 104.284 17.0882C103.087 17.0882 102.116 17.3572 102.116 17.6889C102.116 18.0207 103.087 18.2896 104.284 18.2896C105.482 18.2896 106.453 18.0207 106.453 17.6889C106.453 17.5352 106.244 17.3949 105.901 17.2887C106.112 17.3144 106.338 17.3284 106.574 17.3284C106.814 17.3284 107.045 17.3138 107.259 17.287C108.828 17.6167 110.231 17.7354 111.634 17.8091C111.816 17.8091 112 17.8038 112.184 17.7937C112.061 17.9128 111.996 18.039 111.996 18.1696C112.129 18.702 112.312 19.3163 112.659 19.7645C111.988 19.8347 111.513 20.0085 111.513 20.2119C111.513 20.4773 112.322 20.6924 113.32 20.6924C114.318 20.6924 115.127 20.4773 115.127 20.2119C115.127 20.1826 115.118 20.1539 115.099 20.1261C115.495 19.9617 115.944 19.7156 116.453 19.371C118.219 19.371 121.16 19.2538 122.775 19.1423C122.871 19.1921 122.968 19.24 123.065 19.286C122.09 19.3694 121.392 19.5911 121.392 19.8514C121.392 20.1831 122.525 20.4521 123.922 20.4521C124.806 20.4521 125.585 20.3444 126.037 20.1812C127.522 20.3947 128.606 20.2019 128.547 19.8812C128.951 19.8202 129.432 19.7009 129.939 19.5279C131.207 19.0946 132.147 18.489 132.039 18.1752C131.931 17.8613 130.816 17.9581 129.548 18.3914C128.705 18.6797 128.006 19.0442 127.665 19.3484C127.226 19.048 127.174 18.3498 127.694 18.1257C128.771 17.6618 129.264 17.5752 129.64 17.509C129.856 17.4709 130.034 17.4396 130.262 17.3473C130.292 17.3353 130.324 17.3183 130.351 17.3007C130.546 17.1737 130.622 17.0663 130.604 16.9754C130.802 17.0449 131.081 17.0882 131.392 17.0882C131.991 17.0882 132.476 16.9269 132.476 16.7278C132.476 16.5288 131.991 16.3674 131.392 16.3674C130.793 16.3674 130.308 16.5288 130.308 16.7278C130.308 16.7373 130.309 16.7466 130.311 16.7559C129.478 16.4658 127.074 16.4779 125.582 16.4855L125.582 16.4855C125.369 16.4866 125.175 16.4875 125.006 16.4875C123.621 16.4875 122.23 17.2713 121.608 17.782C120.019 17.2753 117.955 16.848 116.574 16.848C116.251 16.848 115.936 16.8577 115.633 16.876ZM106.453 14.4453C106.453 14.7107 105.536 14.9259 104.405 14.9259C103.274 14.9259 102.357 14.7107 102.357 14.4453C102.357 14.1799 103.274 13.9648 104.405 13.9648C105.536 13.9648 106.453 14.1799 106.453 14.4453ZM107.176 13.9646C107.974 13.9646 108.622 13.7494 108.622 13.484C108.622 13.2186 107.974 13.0034 107.176 13.0034C106.377 13.0034 105.73 13.2186 105.73 13.484C105.73 13.7494 106.377 13.9646 107.176 13.9646ZM101.032 17.0882C101.63 17.0882 102.116 16.9269 102.116 16.7278C102.116 16.5288 101.63 16.3674 101.032 16.3674C100.433 16.3674 99.9473 16.5288 99.9473 16.7278C99.9473 16.9269 100.433 17.0882 101.032 17.0882ZM112.236 20.9328C112.236 21.3309 110.941 21.6537 109.344 21.6537C107.747 21.6537 106.453 21.3309 106.453 20.9328C106.453 20.5347 107.747 20.212 109.344 20.212C110.941 20.212 112.236 20.5347 112.236 20.9328ZM132.878 13.6599C132.499 13.7013 132.077 13.7243 131.632 13.7243C129.969 13.7243 128.62 13.4016 128.62 13.0035C128.62 12.6054 129.969 12.2826 131.632 12.2826C132.944 12.2826 134.06 12.4834 134.473 12.7635C135.107 12.7707 135.609 12.8753 135.609 13.0034C135.609 13.1314 135.107 13.2361 134.474 13.2433C134.424 13.277 134.364 13.3096 134.295 13.3408C134.578 13.755 134.569 14.2594 134.263 14.4902C133.945 14.7307 133.427 14.5828 133.105 14.1599C132.985 14.0021 132.91 13.8283 132.878 13.6599Z" fill="#F8F8F8" fill-opacity="0.82"/>
</g>
<g filter="url(#filter10_f_4897_5320)">
<path d="M104.577 13.1627C104.577 13.4043 103.385 13.7668 99.9261 14.0084C97.4231 14.0084 95.394 13.6839 95.394 13.2835C95.394 12.8832 97.4231 12.5586 99.9261 12.5586C102.429 12.5586 104.577 12.7623 104.577 13.1627Z" fill="#B6F5F5"/>
</g>
<g filter="url(#filter11_f_4897_5320)">
<path d="M98.5698 11.2722C98.5698 11.3717 98.3246 11.5209 97.6135 11.6204C97.0988 11.6204 96.6816 11.4868 96.6816 11.3219C96.6816 11.1571 97.0988 11.0234 97.6135 11.0234C98.1281 11.0234 98.5698 11.1073 98.5698 11.2722Z" fill="#B6F5F5"/>
</g>
<g filter="url(#filter12_f_4897_5320)">
<path d="M96.3383 11.9404C96.3383 12.0684 96.0819 12.2602 95.3384 12.3882C94.8004 12.3882 94.3643 12.2163 94.3643 12.0044C94.3643 11.7924 94.8004 11.6206 95.3384 11.6206C95.8765 11.6206 96.3383 11.7285 96.3383 11.9404Z" fill="#B6F5F5"/>
</g>
<g filter="url(#filter13_f_4897_5320)">
<path d="M85.3524 15.3516C85.3524 15.4795 85.0961 15.6714 84.3526 15.7993C83.8146 15.7993 83.3784 15.6275 83.3784 15.4155C83.3784 15.2036 83.8146 15.0317 84.3526 15.0317C84.8906 15.0317 85.3524 15.1396 85.3524 15.3516Z" fill="#B6F5F5"/>
</g>
<g filter="url(#filter14_f_4897_5320)">
<path d="M86.2968 15.6929C86.2968 15.8208 86.0404 16.0127 85.2969 16.1406C84.7589 16.1406 84.3228 15.9688 84.3228 15.7568C84.3228 15.5449 84.7589 15.373 85.2969 15.373C85.835 15.373 86.2968 15.4809 86.2968 15.6929Z" fill="#B6F5F5"/>
</g>
<g filter="url(#filter15_f_4897_5320)">
<path d="M94.8794 12.1607C94.8794 12.2745 94.6342 12.445 93.923 12.5587C93.4084 12.5587 92.9912 12.406 92.9912 12.2176C92.9912 12.0292 93.4084 11.8765 93.923 11.8765C94.4377 11.8765 94.8794 11.9723 94.8794 12.1607Z" fill="#B6F5F5"/>
</g>
<g filter="url(#filter16_f_4897_5320)">
<path d="M86.2969 23.1267C86.2969 23.2262 86.0516 23.3754 85.3405 23.4749C84.8259 23.4749 84.4087 23.3413 84.4087 23.1764C84.4087 23.0116 84.8259 22.8779 85.3405 22.8779C85.8552 22.8779 86.2969 22.9618 86.2969 23.1267Z" fill="#B6F5F5"/>
</g>
<g filter="url(#filter17_f_4897_5320)">
<path d="M101.659 15.0107C101.659 15.1387 101.191 15.3306 99.8336 15.4585C98.8511 15.4585 98.0547 15.2867 98.0547 15.0747C98.0547 14.8627 98.8511 14.6909 99.8336 14.6909C100.816 14.6909 101.659 14.7988 101.659 15.0107Z" fill="#B6F5F5"/>
</g>
<g filter="url(#filter18_f_4897_5320)">
<path d="M97.7974 16.2046C97.7974 16.3325 97.5521 16.5244 96.841 16.6523C96.3264 16.6523 95.9092 16.4805 95.9092 16.2685C95.9092 16.0566 96.3264 15.8848 96.841 15.8848C97.3556 15.8848 97.7974 15.9926 97.7974 16.2046Z" fill="#B6F5F5"/>
</g>
<g filter="url(#filter19_f_4897_5320)">
<path d="M109.212 18.5928C109.212 18.7207 108.844 18.9126 107.778 19.0405C107.006 19.0405 106.38 18.8687 106.38 18.6567C106.38 18.4448 107.006 18.2729 107.778 18.2729C108.55 18.2729 109.212 18.3808 109.212 18.5928Z" fill="#B6F5F5"/>
</g>
<g filter="url(#filter20_f_4897_5320)">
<ellipse cx="136.72" cy="14.6481" rx="1.84526" ry="0.298499" fill="#BBF3F5"/>
</g>
<g filter="url(#filter21_f_4897_5320)">
<ellipse cx="137.492" cy="16.6094" rx="1.67361" ry="0.383784" fill="#BBF3F5"/>
</g>
<g filter="url(#filter22_f_4897_5320)">
<ellipse cx="138.093" cy="14.1364" rx="1.75944" ry="0.298499" fill="#BBF3F5"/>
</g>
<g filter="url(#filter23_f_4897_5320)">
<ellipse cx="139.265" cy="15.9271" rx="1.58778" ry="0.341142" fill="#BBF3F5"/>
</g>
<g filter="url(#filter24_f_4897_5320)">
<ellipse cx="137.835" cy="22.9206" rx="1.50196" ry="0.554355" fill="#BBF3F5"/>
</g>
<g filter="url(#filter25_f_4897_5320)">
<ellipse cx="135.732" cy="24.5838" rx="1.54487" ry="0.341142" fill="#BBF3F5"/>
</g>
<g filter="url(#filter26_f_4897_5320)">
<ellipse cx="135.99" cy="27.2277" rx="1.54487" ry="0.426427" fill="#BBF3F5"/>
</g>
<g filter="url(#filter27_f_4897_5320)">
<ellipse cx="140.024" cy="13.6673" rx="1.37322" ry="0.341142" fill="#BBF3F5"/>
</g>
<g filter="url(#filter28_f_4897_5320)">
<ellipse cx="140.539" cy="15.5438" rx="1.20157" ry="0.341142" fill="#BBF3F5"/>
</g>
<g filter="url(#filter29_f_4897_5320)">
<ellipse cx="140.153" cy="10.6396" rx="2.87518" ry="0.639641" fill="#BBF3F5"/>
</g>
<g filter="url(#filter30_f_4897_5320)">
<ellipse cx="140.539" cy="12.3027" rx="1.20157" ry="0.255856" fill="#BBF3F5"/>
</g>
<g filter="url(#filter31_f_4897_5320)">
<ellipse cx="118.267" cy="20.3625" rx="2.10274" ry="0.298499" fill="#C6F5F5"/>
</g>
<g filter="url(#filter32_f_4897_5320)">
<ellipse cx="2.03322" cy="0.356945" rx="2.03322" ry="0.356945" transform="matrix(0.954847 -0.2971 0.30054 0.953769 118.376 29.7588)" fill="#C6F5F5"/>
</g>
<g filter="url(#filter33_f_4897_5320)">
<ellipse cx="121.056" cy="21.2576" rx="3.00392" ry="0.341142" fill="#C6F5F5"/>
</g>
<g filter="url(#filter34_f_4897_5320)">
<ellipse cx="119.94" cy="24.5413" rx="3.00392" ry="0.724926" fill="#C6F5F5"/>
</g>
<g filter="url(#filter35_f_4897_5320)">
<ellipse cx="116.508" cy="22.9206" rx="1.28739" ry="0.298499" fill="#C6F5F5"/>
</g>
<g filter="url(#filter36_f_4897_5320)">
<ellipse cx="118.01" cy="26.3747" rx="2.01692" ry="0.426427" fill="#9BF5F5"/>
</g>
<g filter="url(#filter37_f_4897_5320)">
<ellipse cx="2.03406" cy="0.475729" rx="2.03406" ry="0.475729" transform="matrix(0.988179 -0.153307 0.155211 0.987881 115.933 27.917)" fill="#9BF5F5"/>
</g>
<g filter="url(#filter38_f_4897_5320)">
<ellipse cx="1.52481" cy="0.475729" rx="1.52481" ry="0.475729" transform="matrix(0.988179 -0.153307 0.155211 0.987881 110.717 27.9189)" fill="#CDF5F5"/>
</g>
<g filter="url(#filter39_f_4897_5320)">
<ellipse cx="2.37319" cy="0.475661" rx="2.37319" ry="0.475661" transform="matrix(0.999392 0.0348733 -0.0353164 0.999376 109.076 25.9346)" fill="#CDF5F5"/>
</g>
<g filter="url(#filter40_f_4897_5320)">
<ellipse cx="1.64615" cy="0.419094" rx="1.64615" ry="0.419094" transform="matrix(0.999392 0.0348733 -0.0353164 0.999376 110.747 22.1294)" fill="#CDF5F5"/>
</g>
<g filter="url(#filter41_f_4897_5320)">
<ellipse cx="0.759784" cy="0.241447" rx="0.759784" ry="0.241447" transform="matrix(0.999392 0.0348733 -0.0353164 0.999376 109.059 23.7939)" fill="#CDF5F5"/>
</g>
<g filter="url(#filter42_f_4897_5320)">
<ellipse cx="1.33562" cy="0.241447" rx="1.33562" ry="0.241447" transform="matrix(0.999392 0.0348733 -0.0353164 0.999376 112.888 24.7451)" fill="#CDF5F5"/>
</g>
<g filter="url(#filter43_f_4897_5320)">
<ellipse cx="1.0911" cy="0.475729" rx="1.0911" ry="0.475729" transform="matrix(0.988179 -0.153307 0.155211 0.987881 113.829 30.1255)" fill="#9BF5F5"/>
</g>
<g filter="url(#filter44_f_4897_5320)">
<ellipse cx="1.35537" cy="0.475657" rx="1.35537" ry="0.475657" transform="matrix(0.999978 0.0066936 -0.00677875 0.999977 101.205 28.6626)" fill="#9BF5F5"/>
</g>
<g filter="url(#filter45_f_4897_5320)">
<ellipse cx="1.35537" cy="0.475657" rx="1.35537" ry="0.475657" transform="matrix(0.999978 0.0066936 -0.00677875 0.999977 102.826 27.3613)" fill="#9BF5F5"/>
</g>
<g filter="url(#filter46_f_4897_5320)">
<ellipse cx="1.79865" cy="0.475657" rx="1.79865" ry="0.475657" transform="matrix(0.999978 0.0066936 -0.00677875 0.999977 101.15 25.6968)" fill="#9BF5F5"/>
</g>
<g filter="url(#filter47_f_4897_5320)">
<ellipse cx="2.27521" cy="0.698272" rx="2.27521" ry="0.698272" transform="matrix(0.999978 0.0066936 -0.00677875 0.999977 102.11 23.7939)" fill="#BAF5F1"/>
</g>
<g filter="url(#filter48_f_4897_5320)">
<ellipse cx="2.15333" cy="0.542276" rx="2.15333" ry="0.542276" transform="matrix(0.999978 0.0066936 -0.00677875 0.999977 99.2368 22.8428)" fill="#BAF5F1"/>
</g>
<g filter="url(#filter49_f_4897_5320)">
<path d="M99.7085 22.2481C99.7065 22.5476 98.0251 22.9983 96.8359 22.9903C95.6467 22.9823 94.6842 22.7331 94.6863 22.4336C94.6932 21.4159 95.6462 21.408 96.8355 21.4159C100.545 20.7023 99.7106 21.9486 99.7085 22.2481Z" fill="#BAF5F1"/>
</g>
<g filter="url(#filter50_f_4897_5320)">
<ellipse cx="1.12275" cy="0.475657" rx="1.12275" ry="0.475657" transform="matrix(0.999978 0.0066936 -0.00677875 0.999977 99.4751 27.1235)" fill="#9BF5F5"/>
</g>
<g filter="url(#filter51_f_4897_5320)">
<path d="M57.6554 25.8197C61.0069 23.7498 64.5531 22.01 68.2441 20.625L71.6124 19.361C72.0697 19.1894 72.5437 19.0654 73.0269 18.991V18.991C74.1432 18.8193 74.6987 20.2964 73.7476 20.902V20.902C73.3325 21.1664 72.8899 21.3875 72.4287 21.5605L68.9845 22.853C65.3474 24.2178 61.5881 25.2365 57.7567 25.8954L57.4464 25.9488L57.6554 25.8197Z" fill="url(#paint10_linear_4897_5320)"/>
</g>
<g filter="url(#filter52_i_4897_5320)">
<path fill-rule="evenodd" clip-rule="evenodd" d="M51.9525 44.9639C51.792 44.9749 51.6334 44.8892 51.5592 44.7354C51.4618 44.5336 51.5464 44.291 51.7482 44.1936C51.9346 44.1036 52.1558 44.1689 52.2653 44.3385C52.5133 44.2438 52.7967 44.3533 52.9142 44.5967C53.0382 44.8536 52.9305 45.1624 52.6735 45.2864C52.4166 45.4104 52.1079 45.3027 51.9839 45.0457C51.9709 45.0189 51.9605 44.9916 51.9525 44.9639Z" fill="#39CFF9"/>
</g>
<g filter="url(#filter53_i_4897_5320)">
<path fill-rule="evenodd" clip-rule="evenodd" d="M47.772 38.3249C47.5701 38.4224 47.3276 38.3377 47.2301 38.1359C47.1327 37.9341 47.2174 37.6915 47.4192 37.5941C47.621 37.4967 47.8636 37.5813 47.961 37.7831C48.0584 37.985 47.9738 38.2275 47.772 38.3249ZM46.0187 40.3564C46.1161 40.5582 46.3587 40.6429 46.5605 40.5455C46.7623 40.4481 46.847 40.2055 46.7496 40.0036C46.6521 39.8018 46.4096 39.7172 46.2077 39.8146C46.0059 39.912 45.9213 40.1546 46.0187 40.3564ZM49.7062 39.3158C49.5808 39.3763 49.4302 39.3238 49.3697 39.1984C49.3092 39.0731 49.3617 38.9224 49.4871 38.8619C49.6124 38.8014 49.7631 38.854 49.8236 38.9793C49.8841 39.1047 49.8315 39.2553 49.7062 39.3158ZM49.093 41.8042C49.1905 42.006 49.4796 42.0795 49.6814 41.9821C49.8832 41.8847 49.9679 41.6421 49.8705 41.4403C49.7731 41.2385 49.4434 41.1293 49.2416 41.2267C49.0398 41.3241 48.9956 41.6024 49.093 41.8042ZM51.1273 41.5496C51.2513 41.8065 51.6396 41.9282 51.8965 41.8042C52.1534 41.6802 52.2283 41.3343 52.1043 41.0774C51.9802 40.8205 51.6249 40.7359 51.368 40.8599C51.1111 40.9839 51.0033 41.2927 51.1273 41.5496Z" fill="#41D3F8"/>
</g>
<path d="M40.9727 53.6867C46.0735 54.4575 50.4099 51.9445 52.436 50.0382C52.814 49.6826 52.5746 49.1022 52.0574 49.0585C43.8605 48.3672 29.2211 47.4028 29.746 48.2356C30.4351 49.3289 33.5434 52.564 40.9727 53.6867Z" fill="#F3F3F3"/>
<path d="M38.5098 40.5852C39.4241 41.1843 40.3273 42.2901 40.8088 43.0035L38.5366 43.519C37.989 42.8444 37.6119 42.2836 37.358 41.8265C36.8281 40.8727 37.5972 39.9871 38.5098 40.5852Z" fill="#595959"/>
<path d="M34.7411 41.8592C48.5607 40.4443 50.9107 45.2195 52.6653 47.7221C53.118 48.3678 53.082 49.2216 52.3426 49.4955C51.3539 49.8619 49.7936 50.284 47.5583 50.6508C45.8429 50.9324 43.6484 51.762 42.0914 52.535C40.9239 53.1146 40.1068 52.9428 38.8663 52.5424L36.6251 51.819C32.2987 50.4225 28.2569 48.1694 25.131 44.8683C24.1893 43.8738 23.3634 42.9308 22.9338 42.2737C21.9645 40.9792 20.0936 37.8013 19.4763 37.2727C18.8112 36.7032 17.5665 35.7776 17.0571 35.131C15.7602 33.5331 16.1184 33.2788 16.6756 33.3989C16.9908 33.4669 17.2894 33.5986 17.6001 33.6848C18.512 33.9378 19.4812 33.9886 20.315 33.5408C20.9118 33.2203 21.6483 32.7359 22.4635 32.0327C22.8477 31.7012 23.3142 30.8723 23.7652 30.6397C24.794 30.109 23.6413 32.1969 23.0383 33.185C21.509 35.6911 21.8561 37.9135 22.2754 38.8512C24.2372 41.77 31.3765 42.0957 34.7411 41.8592Z" fill="url(#paint11_linear_4897_5320)"/>
<path d="M40.5056 51.698C43.8389 51.6428 44.3629 50.1356 42.6619 49.6452C41.4883 49.3069 40.1195 48.9988 39.0033 49.4944C37.8825 49.9921 37.6505 51.376 40.5056 51.698Z" fill="#F3F3F3"/>
<path d="M33.9519 42.3742C34.9126 42.8111 35.7164 42.9172 36.151 42.8844L36.0912 42.8912C33.6725 43.1647 31.2236 42.9529 28.8879 42.2679C30.1904 41.8137 28.6656 40.2184 27.7403 39.4776C29.4951 37.915 31.8131 41.4014 33.9519 42.3742Z" fill="url(#paint12_linear_4897_5320)"/>
<path d="M35.2459 51.0567C36.5167 50.4232 37.0875 50.6388 37.2253 50.9151C36.8982 50.1537 35.0777 48.8161 30.4117 49.557C27.9212 49.9525 27.3363 50.3424 27.5749 50.6607C28.3297 51.6679 29.9832 51.7964 31.213 52.0642C32.6459 52.3763 33.9334 51.711 35.2459 51.0567Z" fill="url(#paint13_linear_4897_5320)"/>
<path d="M106.337 50.4506C107.559 51.0087 106.572 52.1905 106.072 52.4989C105.501 52.5881 104.301 52.6772 104.061 52.3202C103.313 51.3814 104.255 49.4999 106.337 50.4506Z" fill="url(#paint14_linear_4897_5320)"/>
<path d="M106.072 52.4989L106.623 50.6213C106.585 50.5908 106.542 50.5613 106.495 50.533L105.979 52.5127C106.011 52.5081 106.042 52.5035 106.072 52.4989Z" fill="#FF8126"/>
<path d="M105.848 51.9593L106.206 50.3938C106.167 50.3778 106.129 50.3628 106.09 50.3489L105.848 51.9593Z" fill="#FF8126"/>
<path d="M105.663 51.6771L105.516 52.5614C105.478 52.5642 105.439 52.5667 105.399 52.5689L105.663 51.6771Z" fill="#FF8126"/>
<path d="M105.583 50.2149L105.105 52.5785C105.079 52.5787 105.052 52.5786 105.025 52.5784L105.493 50.2027C105.523 50.2061 105.553 50.2102 105.583 50.2149Z" fill="#FF8126"/>
<path d="M105.035 51.0253L104.717 52.5638C104.707 52.5628 104.697 52.5619 104.687 52.5608L105.035 51.0253Z" fill="#FF8126"/>
<path d="M105.693 51.5516L105.93 50.295C105.908 50.2885 105.887 50.2824 105.866 50.2765C105.841 50.2693 105.74 51.1236 105.693 51.5516Z" fill="#FF8126"/>
<path d="M103.974 52.1938L104.097 50.7272C104.135 50.6785 104.176 50.632 104.221 50.5882L104.024 52.2709C104.006 52.2458 103.99 52.2201 103.974 52.1938Z" fill="#FF8126"/>
<path d="M104.703 50.7481L104.822 50.2473C104.804 50.2525 104.785 50.2579 104.767 50.2637L104.703 50.7481Z" fill="#FF8126"/>
<path d="M104.745 51.39L104.503 52.5348C104.482 52.5308 104.461 52.5266 104.44 52.522L104.745 51.39Z" fill="#FF8126"/>
<path d="M104.329 52.0508L104.551 50.3524C104.536 50.3601 104.521 50.3681 104.506 50.3764L104.329 52.0508Z" fill="#FF8126"/>
<path d="M104.061 52.3202C103.313 51.3814 104.255 49.4999 106.337 50.4506C106.947 50.7291 107.006 51.1629 106.851 51.566C106.785 51.4956 106.643 51.286 106.602 51.0113C106.55 50.668 106.415 50.848 106.29 50.8184C106.164 50.7887 106.005 50.6167 105.901 50.5534C105.798 50.4901 105.425 50.6669 105.18 50.6357C104.936 50.6044 104.966 50.479 104.847 50.4774C104.728 50.4758 104.593 50.6558 104.494 50.7384C104.395 50.821 104.22 50.8326 104.17 50.8739C104.121 50.9152 104.195 51.105 104.06 51.285C103.924 51.465 104.044 51.9701 104.029 52.0328C104.068 52.0918 104.131 52.2318 104.061 52.3202Z" fill="#333E76"/>
<path d="M102.061 54.8912C102.076 54.3042 103.156 54.105 103.622 54.0704C103.796 54.1496 103.928 54.2288 104.026 54.3068C104.744 54.8782 102.988 56.0035 102.233 55.4817C102.12 55.4033 102.053 55.2286 102.061 54.8912Z" fill="#FF8D3A"/>
<path d="M104.183 54.5805C104.13 54.416 104.01 54.2474 103.622 54.0706L104.183 54.5805Z" fill="#FF8126"/>
<path d="M103.933 54.5209L103.476 54.0849C103.457 54.0871 103.438 54.0895 103.418 54.0922L103.933 54.5209Z" fill="#FF8126"/>
<path d="M103.462 54.6844L103.899 55.1323C103.882 55.1443 103.865 55.1559 103.848 55.1672L103.462 54.6844Z" fill="#FF8126"/>
<path d="M102.861 54.6188L102.669 54.2751C102.649 54.2831 102.628 54.2913 102.608 54.2998L102.861 54.6188Z" fill="#FF8126"/>
<path d="M102.307 54.7792L102.711 55.4876C102.692 55.4929 102.673 55.4978 102.655 55.5025L102.307 54.7792Z" fill="#FF8126"/>
<path d="M102.944 54.7178C103.018 54.7794 103.102 54.8877 103.17 55.0495C103.053 54.929 102.975 54.8091 102.944 54.7178Z" fill="#FF8126"/>
<path d="M103.393 54.6119L103.068 54.1554C103.053 54.1589 103.037 54.1625 103.022 54.1663L103.393 54.6119Z" fill="#FF8126"/>
<path d="M103.258 54.1171L104.066 54.924C104.055 54.9383 104.043 54.9523 104.03 54.9661L103.219 54.1242C103.232 54.1218 103.245 54.1194 103.258 54.1171Z" fill="#FF8126"/>
<path d="M103.996 54.2841C104.007 54.2917 104.016 54.2993 104.026 54.3068C104.744 54.8783 102.987 56.0034 102.233 55.4817C102.155 55.4275 102.098 55.3275 102.074 55.1596C102.134 55.2539 102.309 55.4181 102.523 55.3203C102.79 55.198 103.411 55.3182 103.469 55.1861C103.526 55.054 103.779 54.9945 103.843 55.0089C103.908 55.0233 104.256 54.882 104.091 54.684C103.959 54.5256 103.973 54.3514 103.996 54.2841Z" fill="#333E76"/>
<path d="M98.6548 57.3784C97.5798 57.4423 97.9819 56.451 98.3173 55.9473C99.3238 54.9398 99.7849 56.0159 99.8312 56.2123C99.8697 56.376 99.9985 57.2985 98.6548 57.3784Z" fill="#FF8D3A"/>
<path d="M99.5508 56.9098L99.6878 55.9C99.6659 55.8658 99.6415 55.8313 99.6145 55.7979L99.5508 56.9098Z" fill="#FF8126"/>
<path d="M99.4431 56.0762L99.3618 57.2116C99.3428 57.2212 99.3232 57.2305 99.3027 57.2394L99.4431 56.0762Z" fill="#FF8126"/>
<path d="M99.1667 57.2904L99.3233 55.568C99.2927 55.5551 99.2606 55.5446 99.2271 55.537L99.0835 57.3144C99.1122 57.3069 99.14 57.2989 99.1667 57.2904Z" fill="#FF8126"/>
<path d="M98.3954 57.0342L98.535 55.7539C98.5005 55.7804 98.4652 55.8095 98.4292 55.8414L98.3954 57.0342Z" fill="#FF8126"/>
<path d="M98.7186 56.3952L98.6543 57.3785C98.6342 57.3797 98.6147 57.3805 98.5956 57.381L98.7186 56.3952Z" fill="#FF8126"/>
<path d="M98.7416 56.2416L98.8231 55.5822C98.7804 55.5999 98.7362 55.6218 98.6906 55.6485L98.7416 56.2416Z" fill="#FF8126"/>
<path d="M99.0238 56.0566C99.0316 56.1733 99.0356 56.433 98.9894 56.5387C98.9748 56.3762 99.0062 56.1496 99.0238 56.0566Z" fill="#FF8126"/>
<path d="M99.8508 56.4835C99.8299 56.817 99.6312 57.3202 98.6544 57.3783C97.938 57.421 97.8776 56.9948 98.0164 56.5567C98.0156 56.6372 98.0418 56.8154 98.1528 56.884C98.2915 56.9697 98.2735 57.2702 98.4286 57.1744C98.5837 57.0786 98.8545 57.222 98.9173 57.2369C98.98 57.2517 99.3729 57.159 99.4322 56.9081C99.4796 56.7073 99.731 56.5414 99.8508 56.4835Z" fill="#333E76"/>
<path d="M96.1939 51.1975L96.9066 51.9768L99.8683 52.2262L102.287 52.5619L102.983 51.9087C103.044 51.8513 103.058 51.7583 103.009 51.6897C102.536 51.0142 101.755 50.8009 101.242 50.9141C101.09 50.9475 100.916 50.8985 100.825 50.7723C99.8688 49.4333 97.5013 49.6326 96.2012 50.8429C96.0997 50.9374 96.1003 51.0951 96.1939 51.1975Z" fill="#FF8D3A"/>
<path d="M101.674 51.8474L100.975 51.0173L100.875 51.4731L100.97 51.7471L101.674 51.8474Z" fill="white"/>
<path d="M100.975 51.0175C100.959 50.9871 100.943 50.9573 100.926 50.9281C100.85 51.2422 100.835 51.3049 100.812 51.4584C100.788 51.6197 100.808 51.815 100.816 51.7242L101.017 51.8248C100.935 51.7258 100.938 51.4881 100.953 51.4253C100.965 51.3752 100.984 51.1397 100.975 51.0175C101.036 51.1077 101.174 51.308 101.24 51.3872C101.306 51.4664 101.455 51.7118 101.521 51.8245L101.709 51.869C101.696 51.8129 101.64 51.6779 101.524 51.5868C101.408 51.4958 101.315 51.3696 101.283 51.3179C101.248 51.253 101.157 51.1127 101.076 51.0704L100.975 51.0175Z" fill="#333E76"/>
<path d="M102.426 52.1443L102.907 51.5568C102.896 51.5435 102.885 51.5304 102.874 51.5176L102.426 52.1443Z" fill="#FF8126"/>
<path d="M102.487 51.7745L102.042 52.528L101.981 52.5195L102.487 51.7745Z" fill="#FF8126"/>
<path d="M102.287 51.555C102.251 51.6524 102.153 51.8651 102.051 51.9365C102.014 51.9624 102.166 51.7119 102.287 51.555Z" fill="#FF8126"/>
<path d="M101.263 51.2336L101.332 50.898C101.313 50.9007 101.294 50.9038 101.275 50.9074L101.263 51.2336Z" fill="#FF8126"/>
<path d="M101.074 51.8115L101.001 52.3835L100.94 52.375L101.074 51.8115Z" fill="#FF8126"/>
<path d="M101.546 51.5521L101.717 50.8982C101.697 50.8956 101.677 50.8934 101.656 50.8916L101.546 51.5521Z" fill="#FF8126"/>
<path d="M97.0158 51.4355L96.5691 50.5461C96.5568 50.5547 96.5447 50.5633 96.5326 50.572L97.0158 51.4355Z" fill="#FF8126"/>
<path d="M97.0422 51.5477L97.2994 52.01L97.2389 52.0049L97.0422 51.5477Z" fill="#FF8126"/>
<path d="M98.4484 50.9792L98.1361 49.9059C98.1172 49.9092 98.0982 49.9127 98.0793 49.9163L98.4484 50.9792Z" fill="#FF8126"/>
<path d="M97.3693 50.5018C97.3334 50.4046 97.2834 50.2636 97.2503 50.1692C97.2324 50.1769 97.2144 50.1847 97.1966 50.1926C97.2418 50.2678 97.3202 50.4034 97.3693 50.5018C97.3988 50.5819 97.4187 50.6321 97.4115 50.6017C97.4067 50.5811 97.3908 50.545 97.3693 50.5018Z" fill="#FF8126"/>
<path d="M97.5603 50.9813L98.0247 52.0711L97.9642 52.066L97.5603 50.9813Z" fill="#FF8126"/>
<path d="M98.478 52.1093L97.7703 49.9878C97.7412 49.9958 97.7122 50.0041 97.6832 50.0127L98.3873 52.1016L98.478 52.1093Z" fill="#FF8126"/>
<path d="M99.6405 51.2608L99.3487 49.8979C99.3282 49.8942 99.3076 49.8908 99.287 49.8876L99.6405 51.2608Z" fill="#FF8126"/>
<path d="M99.3544 52.1831C99.2082 51.7154 98.9266 50.8127 98.8693 50.6209C98.8616 50.5931 98.8579 50.5803 98.8593 50.5861C98.8602 50.5901 98.8637 50.6021 98.8693 50.6209C98.922 50.8106 99.1638 51.6989 99.294 52.178L99.3544 52.1831Z" fill="#FF8126"/>
<path d="M98.6414 50.6671C98.7163 50.8172 98.8626 51.1777 98.8482 51.4181C98.7852 51.2516 98.6841 50.848 98.6414 50.6671Z" fill="#FF8126"/>
<path d="M100.005 51.1748L100.31 52.2877L100.231 52.2767L100.005 51.1748Z" fill="#FF8126"/>
<path d="M99.0885 50.1765L99.7473 52.2162L99.6733 52.2099L99.0885 50.1765Z" fill="#FF8126"/>
<path d="M100.826 50.7721C99.8665 49.4299 97.49 49.6333 96.192 50.8513C96.1275 50.9119 96.1071 50.9996 96.1281 51.0797C96.1485 51.1575 96.0824 51.0926 96.1607 51.0741V51.0741C96.1887 51.0675 96.2877 50.9849 96.3505 50.9997C96.4132 51.0146 96.6806 50.8923 96.6607 50.8081C96.6409 50.7239 96.7745 50.6627 96.8934 50.6643C97.0123 50.6659 97.2383 50.4941 97.3522 50.3488C97.466 50.2035 97.7598 50.1934 97.9695 50.2032C98.1791 50.213 98.3425 50.0264 98.6016 49.9949C98.8608 49.9634 98.8939 50.1037 99.1102 50.1416C99.3264 50.1794 99.6698 50.1281 99.8019 50.1858C99.934 50.2435 99.9273 50.2154 100.126 50.5537C100.284 50.8244 100.441 50.8843 100.499 50.8804C100.523 50.8551 100.602 50.8384 100.728 50.9744C100.887 51.1443 101.118 51.1195 101.224 51.0649C101.329 51.0104 101.237 51.1211 101.453 51.1589C101.626 51.1892 101.848 51.1152 101.937 51.0745C101.992 51.1009 102.127 51.1777 102.221 51.2741C102.315 51.3704 102.473 51.3824 102.541 51.3763C102.616 51.5278 102.822 51.696 102.965 51.796C103.012 51.8288 103.088 51.8091 103.057 51.7608V51.7608C102.59 51.029 101.772 50.7969 101.242 50.9139C101.09 50.9473 100.916 50.8983 100.826 50.7721Z" fill="#333E76"/>
<path d="M98.686 51.486C101.306 51.5017 104.402 52.6557 105.541 52.4169C105.653 52.3904 106.857 52.0708 105.633 52.8097C100.151 56.5908 96.2638 57.0829 94.9396 56.5757C94.4157 56.3635 93.694 55.8819 94.3726 55.0506C95.0513 54.2193 94.8892 51.4631 98.686 51.486Z" fill="url(#paint15_linear_4897_5320)"/>
<path d="M94.8478 56.536C95.1251 56.3791 95.4751 56.1447 94.6667 56.4453C94.7185 56.4776 94.7766 56.507 94.8478 56.536Z" fill="#FF7715"/>
<path d="M97.8097 51.536C98.0758 51.5014 98.3671 51.4836 98.6864 51.4856C99.2828 52.3816 100.401 54.5882 100.015 55.8641L99.3326 56.1099C99.8194 54.9587 98.5202 52.5809 97.8097 51.536Z" fill="white"/>
<path d="M105.302 53.0354C105.44 52.7182 105.188 52.5106 105.044 52.4464C104.923 52.4417 104.792 52.4305 104.652 52.414C104.805 52.5624 105.063 52.9523 104.866 53.324C105.01 53.2301 105.156 53.1339 105.302 53.0354Z" fill="white"/>
<path d="M102.816 54.5542C103.024 53.308 102.055 52.2113 101.544 51.8187C101.321 51.7764 101.096 51.7357 100.869 51.6982C101.391 52.2914 102.399 53.7524 102.259 54.8506C102.442 54.756 102.628 54.6572 102.816 54.5542Z" fill="white"/>
<path d="M98.1573 52.381C98.0065 51.9426 97.7339 51.674 97.6098 51.5664C97.684 51.5538 97.7603 51.5425 97.8388 51.5327C97.8458 51.5624 97.9146 51.6362 98.0051 51.7356V51.7356C98.2522 52.007 98.3259 52.4035 98.5176 52.7165C98.5474 52.7652 98.5812 52.8066 98.6198 52.8347C98.8345 52.9915 98.8775 53.2866 98.9684 53.4338C99.0642 53.5889 98.9356 53.797 99.1023 53.8762C99.2357 53.9395 99.3166 54.2403 99.3403 54.3828C99.3547 54.5275 99.4118 54.8282 99.466 54.916C99.6098 55.1487 99.4923 55.4777 99.4713 55.5664C99.4417 55.6919 99.4629 55.9075 99.4975 56.0541C99.4143 56.083 99.332 56.111 99.2506 56.1379C99.3894 56.0231 99.3599 55.8896 99.3278 55.8372C99.2684 55.7525 99.1741 55.5121 99.273 55.2281C99.3719 54.9441 99.2326 54.5958 99.1505 54.4572C98.9925 54.2476 98.6982 53.7701 98.7852 53.5363C98.8723 53.3025 98.698 53.0829 98.61 53.0444C98.5219 53.0059 98.3081 52.8194 98.1573 52.381Z" fill="#333E76"/>
<path d="M98.6168 51.4859C98.64 51.4858 98.6633 51.4859 98.6868 51.486C98.7755 51.4865 98.7776 51.4942 98.8403 51.509C98.8787 51.5462 98.8589 51.6883 99.0518 51.9035C99.293 52.1724 99.3096 52.4943 99.5442 52.7352C99.7318 52.928 99.622 53.1908 99.8483 53.5225C100.025 53.8955 99.9675 54.229 100.034 54.3082C100.116 54.4072 100.139 54.7572 100.214 54.947C100.288 55.1368 100.118 55.2953 100.117 55.4142C100.115 55.512 100.211 55.6866 100.205 55.7907C100.123 55.8231 100.042 55.8547 99.9612 55.8853C100.004 55.8587 100.073 55.7563 100.003 55.5595C99.9153 55.3136 100.092 55.1831 100.024 55.0213C99.9282 54.7925 99.9094 54.5255 99.8653 54.2813C99.8569 54.2349 99.8556 54.1989 99.8512 54.1681C99.849 54.1525 99.8464 54.137 99.8448 54.1213C99.8303 53.9842 99.7732 53.7043 99.6387 53.5127C99.4602 53.2586 99.5545 53.0496 99.3957 52.8591C99.3545 52.8098 99.3303 52.763 99.3069 52.7149C99.1994 52.4938 99.1184 52.1679 98.9528 51.9861C98.7929 51.8105 98.6622 51.5795 98.6168 51.4859Z" fill="#333E76"/>
<path d="M101.714 53.1419C101.641 52.836 101.019 52.2219 100.787 51.6902C100.778 51.6712 100.794 51.652 100.814 51.6587C100.868 51.677 100.924 51.7077 100.976 51.7164C101.011 51.7575 101.094 51.8483 101.15 51.8826C101.219 51.9255 101.236 52.2474 101.416 52.3827C101.596 52.5179 101.732 52.8414 101.847 53.0807C101.963 53.32 102.199 53.9456 102.26 54.0793C102.322 54.2129 102.299 54.3665 102.282 54.5481C102.269 54.6934 102.3 54.7907 102.317 54.8213C102.273 54.8442 102.229 54.8669 102.185 54.8894C102.164 54.7586 102.13 54.4537 102.16 54.2807C102.198 54.0644 102.031 53.9853 102.013 53.7822C101.994 53.5792 101.806 53.5347 101.714 53.1419Z" fill="#333E76"/>
<path d="M101.99 52.3064C101.888 52.1233 101.616 51.9333 101.519 51.8143C101.581 51.8261 101.643 51.8381 101.705 51.8501C101.822 51.9279 102.071 52.1215 102.131 52.2734C102.19 52.4252 102.462 52.7976 102.59 52.9648C102.673 53.0638 102.837 53.3094 102.835 53.4995C102.831 53.7373 103.096 53.8527 103.045 54.0128C102.993 54.173 102.86 54.2341 102.914 54.3398C102.958 54.4243 102.955 54.4701 102.948 54.4825C102.895 54.5117 102.843 54.5405 102.791 54.569C102.776 54.5058 102.757 54.353 102.804 54.2474C102.85 54.1417 102.835 54.003 102.822 53.9469C102.74 53.8004 102.716 53.6658 102.714 53.6168C102.681 53.4765 102.593 53.1774 102.504 53.1035C102.394 53.0111 102.081 52.4676 101.99 52.3064Z" fill="#333E76"/>
<path d="M104.781 52.8333C104.692 52.7594 104.597 52.5157 104.561 52.4031C104.607 52.4091 104.653 52.4147 104.698 52.4196C104.78 52.4953 104.942 52.6648 104.936 52.7375C104.929 52.8101 104.957 53.0384 104.972 53.1435C104.98 53.1679 104.983 53.2295 104.934 53.2808C104.898 53.3039 104.863 53.3269 104.828 53.3497C104.84 53.3388 104.854 53.2958 104.81 53.2113C104.756 53.1057 104.891 52.9257 104.781 52.8333Z" fill="#333E76"/>
<path d="M105.244 52.6647C105.194 52.6528 105.077 52.514 105.025 52.446V52.446C105.102 52.4494 105.179 52.4736 105.223 52.5365C105.279 52.6173 105.315 52.7148 105.363 52.8034C105.364 52.8068 105.366 52.81 105.368 52.8132C105.407 52.8752 105.374 52.9645 105.353 53.0014C105.328 53.0187 105.302 53.0359 105.277 53.053C105.24 52.9443 105.275 52.8985 105.297 52.8891C105.301 52.8193 105.295 52.6765 105.244 52.6647Z" fill="#333E76"/>
<path d="M99.669 53.9567C99.5641 53.3587 99.2197 53.3944 98.8752 53.5453C98.5352 53.6943 98.2282 54.1038 98.4511 54.4007C98.5834 54.5768 98.8021 54.584 98.9869 54.5894C99.3493 54.5998 99.7739 54.5542 99.669 53.9567Z" fill="url(#paint16_linear_4897_5320)"/>
<path d="M99.669 53.9567C99.5968 53.5452 99.4113 53.4337 99.1903 53.4534C99.4174 53.5858 99.7807 53.989 99.4161 54.5424C99.6053 54.4737 99.7317 54.3137 99.669 53.9567Z" fill="#333E76"/>
<path d="M95.6898 54.0757C95.7943 54.5187 96.2124 54.7991 96.6238 54.7021C97.0351 54.6051 97.2839 54.1674 97.1794 53.7244C97.0749 53.2815 96.6568 53.001 96.2455 53.098C95.8341 53.195 95.5854 53.6327 95.6898 54.0757Z" fill="white"/>
<path d="M95.8314 54.1631C95.8911 54.4162 96.119 54.5791 96.3405 54.5269C96.562 54.4746 96.6932 54.2271 96.6335 53.974C96.5738 53.7208 96.3458 53.558 96.1244 53.6102C95.9029 53.6624 95.7717 53.91 95.8314 54.1631Z" fill="#414141"/>
<path d="M95.9464 54.1361C95.9269 54.0534 95.9297 53.9714 95.9507 53.8982C95.9727 53.8213 96.0681 53.8246 96.1023 53.897C96.1601 54.0191 96.2139 54.1773 96.2092 54.3183C96.2069 54.3867 96.1318 54.4187 96.0816 54.3723C96.0179 54.3134 95.969 54.2319 95.9464 54.1361Z" fill="#C4C4C4"/>
<defs>
<filter id="filter0_f_4897_5320" x="78.3441" y="8.0482" width="46.6062" height="53.6502" filterUnits="userSpaceOnUse" color-interpolation-filters="sRGB">
<feFlood flood-opacity="0" result="BackgroundImageFix"/>
<feBlend mode="normal" in="SourceGraphic" in2="BackgroundImageFix" result="shape"/>
<feGaussianBlur stdDeviation="4.61067" result="effect1_foregroundBlur_4897_5320"/>
</filter>
<filter id="filter1_f_4897_5320" x="103.168" y="14.6403" width="18.7873" height="31.6232" filterUnits="userSpaceOnUse" color-interpolation-filters="sRGB">
<feFlood flood-opacity="0" result="BackgroundImageFix"/>
<feBlend mode="normal" in="SourceGraphic" in2="BackgroundImageFix" result="shape"/>
<feGaussianBlur stdDeviation="1.976" result="effect1_foregroundBlur_4897_5320"/>
</filter>
<filter id="filter2_f_4897_5320" x="99.8919" y="9.35777" width="25.2644" height="33.7635" filterUnits="userSpaceOnUse" color-interpolation-filters="sRGB">
<feFlood flood-opacity="0" result="BackgroundImageFix"/>
<feBlend mode="normal" in="SourceGraphic" in2="BackgroundImageFix" result="shape"/>
<feGaussianBlur stdDeviation="4.61067" result="effect1_foregroundBlur_4897_5320"/>
</filter>
<filter id="filter3_f_4897_5320" x="99.3833" y="28.9136" width="29.7281" height="37.2915" filterUnits="userSpaceOnUse" color-interpolation-filters="sRGB">
<feFlood flood-opacity="0" result="BackgroundImageFix"/>
<feBlend mode="normal" in="SourceGraphic" in2="BackgroundImageFix" result="shape"/>
<feGaussianBlur stdDeviation="6.25733" result="effect1_foregroundBlur_4897_5320"/>
</filter>
<filter id="filter4_f_4897_5320" x="115.653" y="22.8854" width="33.7732" height="44.8343" filterUnits="userSpaceOnUse" color-interpolation-filters="sRGB">
<feFlood flood-opacity="0" result="BackgroundImageFix"/>
<feBlend mode="normal" in="SourceGraphic" in2="BackgroundImageFix" result="shape"/>
<feGaussianBlur stdDeviation="7.904" result="effect1_foregroundBlur_4897_5320"/>
</filter>
<filter id="filter5_f_4897_5320" x="64.788" y="4.16493" width="52.3806" height="53.5066" filterUnits="userSpaceOnUse" color-interpolation-filters="sRGB">
<feFlood flood-opacity="0" result="BackgroundImageFix"/>
<feBlend mode="normal" in="SourceGraphic" in2="BackgroundImageFix" result="shape"/>
<feGaussianBlur stdDeviation="11.5267" result="effect1_foregroundBlur_4897_5320"/>
</filter>
<filter id="filter6_f_4897_5320" x="67.2514" y="0.402814" width="45.4903" height="43.0996" filterUnits="userSpaceOnUse" color-interpolation-filters="sRGB">
<feFlood flood-opacity="0" result="BackgroundImageFix"/>
<feBlend mode="normal" in="SourceGraphic" in2="BackgroundImageFix" result="shape"/>
<feGaussianBlur stdDeviation="6.25733" result="effect1_foregroundBlur_4897_5320"/>
</filter>
<filter id="filter7_f_4897_5320" x="113.055" y="11.3681" width="27.4405" height="34.2466" filterUnits="userSpaceOnUse" color-interpolation-filters="sRGB">
<feFlood flood-opacity="0" result="BackgroundImageFix"/>
<feBlend mode="normal" in="SourceGraphic" in2="BackgroundImageFix" result="shape"/>
<feGaussianBlur stdDeviation="6.25733" result="effect1_foregroundBlur_4897_5320"/>
</filter>
<filter id="filter8_f_4897_5320" x="90.0908" y="0.863751" width="37.1021" height="31.1143" filterUnits="userSpaceOnUse" color-interpolation-filters="sRGB">
<feFlood flood-opacity="0" result="BackgroundImageFix"/>
<feBlend mode="normal" in="SourceGraphic" in2="BackgroundImageFix" result="shape"/>
<feGaussianBlur stdDeviation="6.25733" result="effect1_foregroundBlur_4897_5320"/>
</filter>
<filter id="filter9_f_4897_5320" x="97.3126" y="7.36533" width="40.931" height="16.9231" filterUnits="userSpaceOnUse" color-interpolation-filters="sRGB">
<feFlood flood-opacity="0" result="BackgroundImageFix"/>
<feBlend mode="normal" in="SourceGraphic" in2="BackgroundImageFix" result="shape"/>
<feGaussianBlur stdDeviation="1.31733" result="effect1_foregroundBlur_4897_5320"/>
</filter>
<filter id="filter10_f_4897_5320" x="92.7594" y="9.92393" width="14.4529" height="6.71904" filterUnits="userSpaceOnUse" color-interpolation-filters="sRGB">
<feFlood flood-opacity="0" result="BackgroundImageFix"/>
<feBlend mode="normal" in="SourceGraphic" in2="BackgroundImageFix" result="shape"/>
<feGaussianBlur stdDeviation="1.31733" result="effect1_foregroundBlur_4897_5320"/>
</filter>
<filter id="filter11_f_4897_5320" x="94.047" y="8.38877" width="7.15752" height="5.8665" filterUnits="userSpaceOnUse" color-interpolation-filters="sRGB">
<feFlood flood-opacity="0" result="BackgroundImageFix"/>
<feBlend mode="normal" in="SourceGraphic" in2="BackgroundImageFix" result="shape"/>
<feGaussianBlur stdDeviation="1.31733" result="effect1_foregroundBlur_4897_5320"/>
</filter>
<filter id="filter12_f_4897_5320" x="91.7296" y="8.98594" width="7.24345" height="6.03691" filterUnits="userSpaceOnUse" color-interpolation-filters="sRGB">
<feFlood flood-opacity="0" result="BackgroundImageFix"/>
<feBlend mode="normal" in="SourceGraphic" in2="BackgroundImageFix" result="shape"/>
<feGaussianBlur stdDeviation="1.31733" result="effect1_foregroundBlur_4897_5320"/>
</filter>
<filter id="filter13_f_4897_5320" x="80.7438" y="12.3971" width="7.24345" height="6.03691" filterUnits="userSpaceOnUse" color-interpolation-filters="sRGB">
<feFlood flood-opacity="0" result="BackgroundImageFix"/>
<feBlend mode="normal" in="SourceGraphic" in2="BackgroundImageFix" result="shape"/>
<feGaussianBlur stdDeviation="1.31733" result="effect1_foregroundBlur_4897_5320"/>
</filter>
<filter id="filter14_f_4897_5320" x="81.6881" y="12.7384" width="7.24345" height="6.03691" filterUnits="userSpaceOnUse" color-interpolation-filters="sRGB">
<feFlood flood-opacity="0" result="BackgroundImageFix"/>
<feBlend mode="normal" in="SourceGraphic" in2="BackgroundImageFix" result="shape"/>
<feGaussianBlur stdDeviation="1.31733" result="effect1_foregroundBlur_4897_5320"/>
</filter>
<filter id="filter15_f_4897_5320" x="90.3565" y="9.2418" width="7.15752" height="5.95146" filterUnits="userSpaceOnUse" color-interpolation-filters="sRGB">
<feFlood flood-opacity="0" result="BackgroundImageFix"/>
<feBlend mode="normal" in="SourceGraphic" in2="BackgroundImageFix" result="shape"/>
<feGaussianBlur stdDeviation="1.31733" result="effect1_foregroundBlur_4897_5320"/>
</filter>
<filter id="filter16_f_4897_5320" x="81.774" y="20.2433" width="7.15752" height="5.8665" filterUnits="userSpaceOnUse" color-interpolation-filters="sRGB">
<feFlood flood-opacity="0" result="BackgroundImageFix"/>
<feBlend mode="normal" in="SourceGraphic" in2="BackgroundImageFix" result="shape"/>
<feGaussianBlur stdDeviation="1.31733" result="effect1_foregroundBlur_4897_5320"/>
</filter>
<filter id="filter17_f_4897_5320" x="95.42" y="12.0563" width="8.87383" height="6.03691" filterUnits="userSpaceOnUse" color-interpolation-filters="sRGB">
<feFlood flood-opacity="0" result="BackgroundImageFix"/>
<feBlend mode="normal" in="SourceGraphic" in2="BackgroundImageFix" result="shape"/>
<feGaussianBlur stdDeviation="1.31733" result="effect1_foregroundBlur_4897_5320"/>
</filter>
<filter id="filter18_f_4897_5320" x="93.2745" y="13.2501" width="7.15752" height="6.03691" filterUnits="userSpaceOnUse" color-interpolation-filters="sRGB">
<feFlood flood-opacity="0" result="BackgroundImageFix"/>
<feBlend mode="normal" in="SourceGraphic" in2="BackgroundImageFix" result="shape"/>
<feGaussianBlur stdDeviation="1.31733" result="effect1_foregroundBlur_4897_5320"/>
</filter>
<filter id="filter19_f_4897_5320" x="103.745" y="15.6383" width="8.10136" height="6.03691" filterUnits="userSpaceOnUse" color-interpolation-filters="sRGB">
<feFlood flood-opacity="0" result="BackgroundImageFix"/>
<feBlend mode="normal" in="SourceGraphic" in2="BackgroundImageFix" result="shape"/>
<feGaussianBlur stdDeviation="1.31733" result="effect1_foregroundBlur_4897_5320"/>
</filter>
<filter id="filter20_f_4897_5320" x="132.24" y="11.7149" width="8.95976" height="5.8665" filterUnits="userSpaceOnUse" color-interpolation-filters="sRGB">
<feFlood flood-opacity="0" result="BackgroundImageFix"/>
<feBlend mode="normal" in="SourceGraphic" in2="BackgroundImageFix" result="shape"/>
<feGaussianBlur stdDeviation="1.31733" result="effect1_foregroundBlur_4897_5320"/>
</filter>
<filter id="filter21_f_4897_5320" x="133.184" y="13.5909" width="8.6165" height="6.03691" filterUnits="userSpaceOnUse" color-interpolation-filters="sRGB">
<feFlood flood-opacity="0" result="BackgroundImageFix"/>
<feBlend mode="normal" in="SourceGraphic" in2="BackgroundImageFix" result="shape"/>
<feGaussianBlur stdDeviation="1.31733" result="effect1_foregroundBlur_4897_5320"/>
</filter>
<filter id="filter22_f_4897_5320" x="133.699" y="11.2032" width="8.78838" height="5.8665" filterUnits="userSpaceOnUse" color-interpolation-filters="sRGB">
<feFlood flood-opacity="0" result="BackgroundImageFix"/>
<feBlend mode="normal" in="SourceGraphic" in2="BackgroundImageFix" result="shape"/>
<feGaussianBlur stdDeviation="1.31733" result="effect1_foregroundBlur_4897_5320"/>
</filter>
<filter id="filter23_f_4897_5320" x="135.042" y="12.9513" width="8.44511" height="5.95146" filterUnits="userSpaceOnUse" color-interpolation-filters="sRGB">
<feFlood flood-opacity="0" result="BackgroundImageFix"/>
<feBlend mode="normal" in="SourceGraphic" in2="BackgroundImageFix" result="shape"/>
<feGaussianBlur stdDeviation="1.31733" result="effect1_foregroundBlur_4897_5320"/>
</filter>
<filter id="filter24_f_4897_5320" x="133.699" y="19.7315" width="8.27324" height="6.37822" filterUnits="userSpaceOnUse" color-interpolation-filters="sRGB">
<feFlood flood-opacity="0" result="BackgroundImageFix"/>
<feBlend mode="normal" in="SourceGraphic" in2="BackgroundImageFix" result="shape"/>
<feGaussianBlur stdDeviation="1.31733" result="effect1_foregroundBlur_4897_5320"/>
</filter>
<filter id="filter25_f_4897_5320" x="131.553" y="21.608" width="8.35918" height="5.95146" filterUnits="userSpaceOnUse" color-interpolation-filters="sRGB">
<feFlood flood-opacity="0" result="BackgroundImageFix"/>
<feBlend mode="normal" in="SourceGraphic" in2="BackgroundImageFix" result="shape"/>
<feGaussianBlur stdDeviation="1.31733" result="effect1_foregroundBlur_4897_5320"/>
</filter>
<filter id="filter26_f_4897_5320" x="131.811" y="24.1666" width="8.35918" height="6.12236" filterUnits="userSpaceOnUse" color-interpolation-filters="sRGB">
<feFlood flood-opacity="0" result="BackgroundImageFix"/>
<feBlend mode="normal" in="SourceGraphic" in2="BackgroundImageFix" result="shape"/>
<feGaussianBlur stdDeviation="1.31733" result="effect1_foregroundBlur_4897_5320"/>
</filter>
<filter id="filter27_f_4897_5320" x="136.016" y="10.6915" width="8.01592" height="5.95146" filterUnits="userSpaceOnUse" color-interpolation-filters="sRGB">
<feFlood flood-opacity="0" result="BackgroundImageFix"/>
<feBlend mode="normal" in="SourceGraphic" in2="BackgroundImageFix" result="shape"/>
<feGaussianBlur stdDeviation="1.31733" result="effect1_foregroundBlur_4897_5320"/>
</filter>
<filter id="filter28_f_4897_5320" x="136.703" y="12.568" width="7.67265" height="5.95146" filterUnits="userSpaceOnUse" color-interpolation-filters="sRGB">
<feFlood flood-opacity="0" result="BackgroundImageFix"/>
<feBlend mode="normal" in="SourceGraphic" in2="BackgroundImageFix" result="shape"/>
<feGaussianBlur stdDeviation="1.31733" result="effect1_foregroundBlur_4897_5320"/>
</filter>
<filter id="filter29_f_4897_5320" x="134.643" y="7.36533" width="11.0198" height="6.54863" filterUnits="userSpaceOnUse" color-interpolation-filters="sRGB">
<feFlood flood-opacity="0" result="BackgroundImageFix"/>
<feBlend mode="normal" in="SourceGraphic" in2="BackgroundImageFix" result="shape"/>
<feGaussianBlur stdDeviation="1.31733" result="effect1_foregroundBlur_4897_5320"/>
</filter>
<filter id="filter30_f_4897_5320" x="136.703" y="9.41221" width="7.67265" height="5.78105" filterUnits="userSpaceOnUse" color-interpolation-filters="sRGB">
<feFlood flood-opacity="0" result="BackgroundImageFix"/>
<feBlend mode="normal" in="SourceGraphic" in2="BackgroundImageFix" result="shape"/>
<feGaussianBlur stdDeviation="1.31733" result="effect1_foregroundBlur_4897_5320"/>
</filter>
<filter id="filter31_f_4897_5320" x="113.529" y="17.4293" width="9.4749" height="5.8665" filterUnits="userSpaceOnUse" color-interpolation-filters="sRGB">
<feFlood flood-opacity="0" result="BackgroundImageFix"/>
<feBlend mode="normal" in="SourceGraphic" in2="BackgroundImageFix" result="shape"/>
<feGaussianBlur stdDeviation="1.31733" result="effect1_foregroundBlur_4897_5320"/>
</filter>
<filter id="filter32_f_4897_5320" x="115.846" y="26.1671" width="9.15801" height="6.65605" filterUnits="userSpaceOnUse" color-interpolation-filters="sRGB">
<feFlood flood-opacity="0" result="BackgroundImageFix"/>
<feBlend mode="normal" in="SourceGraphic" in2="BackgroundImageFix" result="shape"/>
<feGaussianBlur stdDeviation="1.31733" result="effect1_foregroundBlur_4897_5320"/>
</filter>
<filter id="filter33_f_4897_5320" x="115.418" y="18.2818" width="11.2771" height="5.95146" filterUnits="userSpaceOnUse" color-interpolation-filters="sRGB">
<feFlood flood-opacity="0" result="BackgroundImageFix"/>
<feBlend mode="normal" in="SourceGraphic" in2="BackgroundImageFix" result="shape"/>
<feGaussianBlur stdDeviation="1.31733" result="effect1_foregroundBlur_4897_5320"/>
</filter>
<filter id="filter34_f_4897_5320" x="114.302" y="21.1817" width="11.2771" height="6.71904" filterUnits="userSpaceOnUse" color-interpolation-filters="sRGB">
<feFlood flood-opacity="0" result="BackgroundImageFix"/>
<feBlend mode="normal" in="SourceGraphic" in2="BackgroundImageFix" result="shape"/>
<feGaussianBlur stdDeviation="1.31733" result="effect1_foregroundBlur_4897_5320"/>
</filter>
<filter id="filter35_f_4897_5320" x="112.586" y="19.9874" width="7.84404" height="5.8665" filterUnits="userSpaceOnUse" color-interpolation-filters="sRGB">
<feFlood flood-opacity="0" result="BackgroundImageFix"/>
<feBlend mode="normal" in="SourceGraphic" in2="BackgroundImageFix" result="shape"/>
<feGaussianBlur stdDeviation="1.31733" result="effect1_foregroundBlur_4897_5320"/>
</filter>
<filter id="filter36_f_4897_5320" x="113.358" y="23.3136" width="9.30302" height="6.12236" filterUnits="userSpaceOnUse" color-interpolation-filters="sRGB">
<feFlood flood-opacity="0" result="BackgroundImageFix"/>
<feBlend mode="normal" in="SourceGraphic" in2="BackgroundImageFix" result="shape"/>
<feGaussianBlur stdDeviation="1.31733" result="effect1_foregroundBlur_4897_5320"/>
</filter>
<filter id="filter37_f_4897_5320" x="113.371" y="24.8766" width="9.29228" height="6.39726" filterUnits="userSpaceOnUse" color-interpolation-filters="sRGB">
<feFlood flood-opacity="0" result="BackgroundImageFix"/>
<feBlend mode="normal" in="SourceGraphic" in2="BackgroundImageFix" result="shape"/>
<feGaussianBlur stdDeviation="1.31733" result="effect1_foregroundBlur_4897_5320"/>
</filter>
<filter id="filter38_f_4897_5320" x="108.154" y="24.9957" width="8.28691" height="6.31914" filterUnits="userSpaceOnUse" color-interpolation-filters="sRGB">
<feFlood flood-opacity="0" result="BackgroundImageFix"/>
<feBlend mode="normal" in="SourceGraphic" in2="BackgroundImageFix" result="shape"/>
<feGaussianBlur stdDeviation="1.31733" result="effect1_foregroundBlur_4897_5320"/>
</filter>
<filter id="filter39_f_4897_5320" x="106.424" y="23.3756" width="10.013" height="6.23418" filterUnits="userSpaceOnUse" color-interpolation-filters="sRGB">
<feFlood flood-opacity="0" result="BackgroundImageFix"/>
<feBlend mode="normal" in="SourceGraphic" in2="BackgroundImageFix" result="shape"/>
<feGaussianBlur stdDeviation="1.31733" result="effect1_foregroundBlur_4897_5320"/>
</filter>
<filter id="filter40_f_4897_5320" x="108.097" y="19.548" width="8.55937" height="6.11504" filterUnits="userSpaceOnUse" color-interpolation-filters="sRGB">
<feFlood flood-opacity="0" result="BackgroundImageFix"/>
<feBlend mode="normal" in="SourceGraphic" in2="BackgroundImageFix" result="shape"/>
<feGaussianBlur stdDeviation="1.31733" result="effect1_foregroundBlur_4897_5320"/>
</filter>
<filter id="filter41_f_4897_5320" x="106.415" y="21.1842" width="6.78838" height="5.75517" filterUnits="userSpaceOnUse" color-interpolation-filters="sRGB">
<feFlood flood-opacity="0" result="BackgroundImageFix"/>
<feBlend mode="normal" in="SourceGraphic" in2="BackgroundImageFix" result="shape"/>
<feGaussianBlur stdDeviation="1.31733" result="effect1_foregroundBlur_4897_5320"/>
</filter>
<filter id="filter42_f_4897_5320" x="110.245" y="22.1524" width="7.93926" height="5.76103" filterUnits="userSpaceOnUse" color-interpolation-filters="sRGB">
<feFlood flood-opacity="0" result="BackgroundImageFix"/>
<feBlend mode="normal" in="SourceGraphic" in2="BackgroundImageFix" result="shape"/>
<feGaussianBlur stdDeviation="1.31733" result="effect1_foregroundBlur_4897_5320"/>
</filter>
<filter id="filter43_f_4897_5320" x="111.266" y="27.2945" width="7.43095" height="6.26738" filterUnits="userSpaceOnUse" color-interpolation-filters="sRGB">
<feFlood flood-opacity="0" result="BackgroundImageFix"/>
<feBlend mode="normal" in="SourceGraphic" in2="BackgroundImageFix" result="shape"/>
<feGaussianBlur stdDeviation="1.31733" result="effect1_foregroundBlur_4897_5320"/>
</filter>
<filter id="filter44_f_4897_5320" x="98.5665" y="26.0367" width="7.98027" height="6.22099" filterUnits="userSpaceOnUse" color-interpolation-filters="sRGB">
<feFlood flood-opacity="0" result="BackgroundImageFix"/>
<feBlend mode="normal" in="SourceGraphic" in2="BackgroundImageFix" result="shape"/>
<feGaussianBlur stdDeviation="1.31733" result="effect1_foregroundBlur_4897_5320"/>
</filter>
<filter id="filter45_f_4897_5320" x="100.188" y="24.7355" width="7.98027" height="6.22099" filterUnits="userSpaceOnUse" color-interpolation-filters="sRGB">
<feFlood flood-opacity="0" result="BackgroundImageFix"/>
<feBlend mode="normal" in="SourceGraphic" in2="BackgroundImageFix" result="shape"/>
<feGaussianBlur stdDeviation="1.31733" result="effect1_foregroundBlur_4897_5320"/>
</filter>
<filter id="filter46_f_4897_5320" x="98.5123" y="23.0738" width="8.8665" height="6.22099" filterUnits="userSpaceOnUse" color-interpolation-filters="sRGB">
<feFlood flood-opacity="0" result="BackgroundImageFix"/>
<feBlend mode="normal" in="SourceGraphic" in2="BackgroundImageFix" result="shape"/>
<feGaussianBlur stdDeviation="1.31733" result="effect1_foregroundBlur_4897_5320"/>
</filter>
<filter id="filter47_f_4897_5320" x="99.4708" y="21.1744" width="9.81963" height="6.66631" filterUnits="userSpaceOnUse" color-interpolation-filters="sRGB">
<feFlood flood-opacity="0" result="BackgroundImageFix"/>
<feBlend mode="normal" in="SourceGraphic" in2="BackgroundImageFix" result="shape"/>
<feGaussianBlur stdDeviation="1.31733" result="effect1_foregroundBlur_4897_5320"/>
</filter>
<filter id="filter48_f_4897_5320" x="96.5982" y="20.2223" width="9.57597" height="6.35429" filterUnits="userSpaceOnUse" color-interpolation-filters="sRGB">
<feFlood flood-opacity="0" result="BackgroundImageFix"/>
<feBlend mode="normal" in="SourceGraphic" in2="BackgroundImageFix" result="shape"/>
<feGaussianBlur stdDeviation="1.31733" result="effect1_foregroundBlur_4897_5320"/>
</filter>
<filter id="filter49_f_4897_5320" x="92.0514" y="18.5641" width="10.3738" height="7.06084" filterUnits="userSpaceOnUse" color-interpolation-filters="sRGB">
<feFlood flood-opacity="0" result="BackgroundImageFix"/>
<feBlend mode="normal" in="SourceGraphic" in2="BackgroundImageFix" result="shape"/>
<feGaussianBlur stdDeviation="1.31733" result="effect1_foregroundBlur_4897_5320"/>
</filter>
<filter id="filter50_f_4897_5320" x="96.837" y="24.4962" width="7.51494" height="6.22099" filterUnits="userSpaceOnUse" color-interpolation-filters="sRGB">
<feFlood flood-opacity="0" result="BackgroundImageFix"/>
<feBlend mode="normal" in="SourceGraphic" in2="BackgroundImageFix" result="shape"/>
<feGaussianBlur stdDeviation="1.31733" result="effect1_foregroundBlur_4897_5320"/>
</filter>
<filter id="filter51_f_4897_5320" x="45.5903" y="7.12105" width="40.4991" height="30.6837" filterUnits="userSpaceOnUse" color-interpolation-filters="sRGB">
<feFlood flood-opacity="0" result="BackgroundImageFix"/>
<feBlend mode="normal" in="SourceGraphic" in2="BackgroundImageFix" result="shape"/>
<feGaussianBlur stdDeviation="5.928" result="effect1_foregroundBlur_4897_5320"/>
</filter>
<filter id="filter52_i_4897_5320" x="51.5186" y="44.1533" width="1.44727" height="1.18457" filterUnits="userSpaceOnUse" color-interpolation-filters="sRGB">
<feFlood flood-opacity="0" result="BackgroundImageFix"/>
<feBlend mode="normal" in="SourceGraphic" in2="BackgroundImageFix" result="shape"/>
<feColorMatrix in="SourceAlpha" type="matrix" values="0 0 0 0 0 0 0 0 0 0 0 0 0 0 0 0 0 0 127 0" result="hardAlpha"/>
<feOffset/>
<feGaussianBlur stdDeviation="1.64667"/>
<feComposite in2="hardAlpha" operator="arithmetic" k2="-1" k3="1"/>
<feColorMatrix type="matrix" values="0 0 0 0 1 0 0 0 0 1 0 0 0 0 1 0 0 0 1 0"/>
<feBlend mode="normal" in2="shape" result="effect1_innerShadow_4897_5320"/>
</filter>
<filter id="filter53_i_4897_5320" x="45.978" y="37.5537" width="6.18457" height="4.47119" filterUnits="userSpaceOnUse" color-interpolation-filters="sRGB">
<feFlood flood-opacity="0" result="BackgroundImageFix"/>
<feBlend mode="normal" in="SourceGraphic" in2="BackgroundImageFix" result="shape"/>
<feColorMatrix in="SourceAlpha" type="matrix" values="0 0 0 0 0 0 0 0 0 0 0 0 0 0 0 0 0 0 127 0" result="hardAlpha"/>
<feOffset/>
<feGaussianBlur stdDeviation="0.988"/>
<feComposite in2="hardAlpha" operator="arithmetic" k2="-1" k3="1"/>
<feColorMatrix type="matrix" values="0 0 0 0 1 0 0 0 0 1 0 0 0 0 1 0 0 0 1 0"/>
<feBlend mode="normal" in2="shape" result="effect1_innerShadow_4897_5320"/>
</filter>
<linearGradient id="paint0_linear_4897_5320" x1="75" y1="79" x2="116" y2="-49.5" gradientUnits="userSpaceOnUse">
<stop stop-color="#41CBEE"/>
<stop offset="1" stop-color="#41CBEE" stop-opacity="0"/>
</linearGradient>
<linearGradient id="paint1_linear_4897_5320" x1="115.744" y1="17.0283" x2="86.8894" y2="53.843" gradientUnits="userSpaceOnUse">
<stop stop-color="#C1FDFF"/>
<stop offset="1" stop-color="#9BF1F4" stop-opacity="0.27"/>
</linearGradient>
<linearGradient id="paint2_linear_4897_5320" x1="118.007" y1="18.0344" x2="106.765" y2="43.6715" gradientUnits="userSpaceOnUse">
<stop stop-color="#DFF5F7"/>
<stop offset="1" stop-color="#9BF1F4" stop-opacity="0.27"/>
</linearGradient>
<linearGradient id="paint3_linear_4897_5320" x1="115.399" y1="18.5325" x2="109.187" y2="34.2305" gradientUnits="userSpaceOnUse">
<stop offset="0.119462" stop-color="#CBFBFD"/>
<stop offset="1" stop-color="#E5FEFF" stop-opacity="0"/>
</linearGradient>
<linearGradient id="paint4_linear_4897_5320" x1="116.508" y1="41.1933" x2="111.866" y2="54.3495" gradientUnits="userSpaceOnUse">
<stop stop-color="#9BF1F4"/>
<stop offset="1" stop-color="#9BF1F4" stop-opacity="0.81"/>
</linearGradient>
<linearGradient id="paint5_linear_4897_5320" x1="131.944" y1="38.5733" x2="133.666" y2="52.4089" gradientUnits="userSpaceOnUse">
<stop stop-color="#9BF1F4"/>
<stop offset="1" stop-color="#9BF1F4" stop-opacity="0.81"/>
</linearGradient>
<linearGradient id="paint6_linear_4897_5320" x1="93.7023" y1="27.2922" x2="88.3754" y2="34.9714" gradientUnits="userSpaceOnUse">
<stop stop-color="#9BF1F4"/>
<stop offset="1" stop-color="#9BF1F4" stop-opacity="0.81"/>
</linearGradient>
<linearGradient id="paint7_linear_4897_5320" x1="100.413" y1="12.7703" x2="78.9543" y2="32.1561" gradientUnits="userSpaceOnUse">
<stop stop-color="#C4FAFC"/>
<stop offset="1" stop-color="#9BF1F4" stop-opacity="0.81"/>
</linearGradient>
<linearGradient id="paint8_linear_4897_5320" x1="127.516" y1="23.8341" x2="125.825" y2="33.3989" gradientUnits="userSpaceOnUse">
<stop stop-color="#9BF1F4"/>
<stop offset="1" stop-color="#9BF1F4" stop-opacity="0.81"/>
</linearGradient>
<linearGradient id="paint9_linear_4897_5320" x1="114.758" y1="13.5031" x2="102.254" y2="19.8258" gradientUnits="userSpaceOnUse">
<stop stop-color="#9BF1F4"/>
<stop offset="1" stop-color="#9BF1F4" stop-opacity="0.81"/>
</linearGradient>
<linearGradient id="paint10_linear_4897_5320" x1="79.3729" y1="15.1338" x2="55.3817" y2="29.6484" gradientUnits="userSpaceOnUse">
<stop stop-color="#BAF8FA"/>
<stop offset="0.320833" stop-color="#89EFF4"/>
</linearGradient>
<linearGradient id="paint11_linear_4897_5320" x1="26.0339" y1="27.2625" x2="43.6229" y2="55.17" gradientUnits="userSpaceOnUse">
<stop stop-color="#232323"/>
<stop offset="1" stop-color="#343434"/>
</linearGradient>
<linearGradient id="paint12_linear_4897_5320" x1="27.1101" y1="42.6417" x2="33.7044" y2="44.5263" gradientUnits="userSpaceOnUse">
<stop stop-color="#2B2B2B"/>
<stop offset="1" stop-color="#343434"/>
</linearGradient>
<linearGradient id="paint13_linear_4897_5320" x1="31.1488" y1="53.3699" x2="36.4116" y2="46.6921" gradientUnits="userSpaceOnUse">
<stop stop-color="#646464"/>
<stop offset="1" stop-color="#343434"/>
</linearGradient>
<linearGradient id="paint14_linear_4897_5320" x1="103.108" y1="51.3591" x2="107.786" y2="51.6216" gradientUnits="userSpaceOnUse">
<stop stop-color="#FE7B1C"/>
<stop offset="1" stop-color="#FE7B1C"/>
</linearGradient>
<linearGradient id="paint15_linear_4897_5320" x1="95.7756" y1="53.285" x2="107.224" y2="52.5019" gradientUnits="userSpaceOnUse">
<stop stop-color="#FF8D3A"/>
<stop offset="0.450423" stop-color="#FE7B1C"/>
</linearGradient>
<linearGradient id="paint16_linear_4897_5320" x1="99.9186" y1="54.049" x2="98.0358" y2="54.4621" gradientUnits="userSpaceOnUse">
<stop offset="0.522332" stop-color="#FF7C1C"/>
<stop offset="0.81243" stop-color="#FF8D3A"/>
</linearGradient>
</defs>
</svg>
