<svg width="152" height="69" viewBox="0 0 152 69" fill="none" xmlns="http://www.w3.org/2000/svg">
<rect x="0.5" y="7.5" width="151" height="61" rx="14.5" fill="url(#paint0_linear_4942_5471)" stroke="#FF5F8F"/>
<g filter="url(#filter0_f_4942_5471)">
<path d="M112.261 19.5851C113.102 18.4515 114.313 17.6423 115.686 17.2955V17.2955C116.22 17.1607 116.736 17.5665 116.729 18.1137V18.1137C116.709 19.5198 116.202 20.879 115.293 21.9577L90.4514 51.4283C90.1545 51.7806 89.816 52.096 89.4432 52.3678V52.3678C88.9811 52.7047 88.3743 52.203 88.6236 51.6901L88.7389 51.4531C88.9126 51.0958 89.1193 50.7554 89.3563 50.4361L112.261 19.5851Z" fill="url(#paint1_linear_4942_5471)"/>
</g>
<g filter="url(#filter1_f_4942_5471)">
<path d="M117.482 19.8244C117.661 19.4002 117.93 19.0194 118.27 18.7082V18.7082C118.552 18.451 119.004 18.6504 119.003 19.0302V19.0302C119.001 19.4888 118.899 19.9426 118.706 20.3593L108.564 42.2V42.2C108.413 42.4335 108.051 42.2683 108.131 42.0023L108.164 41.8934L117.482 19.8244Z" fill="url(#paint2_linear_4942_5471)"/>
</g>
<g filter="url(#filter2_f_4942_5471)">
<path d="M114.377 20.2277C114.649 19.4103 115.326 18.7902 116.165 18.5886V18.5886C116.305 18.555 116.451 18.6129 116.53 18.733V18.733C117 19.4529 117.066 20.3655 116.702 21.147L111.214 32.9409C111.055 33.2826 110.825 33.5874 110.541 33.8355V33.8355C110.375 33.9801 110.116 33.8647 110.114 33.6454L110.114 33.5564C110.111 33.2142 110.165 32.8738 110.273 32.5487L114.377 20.2277Z" fill="url(#paint3_linear_4942_5471)"/>
</g>
<g filter="url(#filter3_f_4942_5471)">
<path d="M116.728 42.2055C116.82 41.932 116.982 41.6842 117.196 41.4893V41.4893C117.331 41.3654 117.552 41.4407 117.579 41.6219V41.6219C117.622 41.9104 117.588 42.2051 117.481 42.4769L113.145 53.4923C113.124 53.546 113.098 53.5977 113.068 53.6467V53.6467C113.008 53.7419 112.863 53.6674 112.906 53.5641L112.937 53.4895L116.728 42.2055Z" fill="url(#paint4_linear_4942_5471)"/>
</g>
<g filter="url(#filter4_f_4942_5471)">
<path d="M132.485 40.1696C132.409 39.6916 132.523 39.1991 132.799 38.8019V38.8019C132.884 38.6795 133.058 38.6566 133.171 38.7544V38.7544C133.539 39.0736 133.765 39.5259 133.8 40.0116L134.615 51.3767C134.625 51.5202 134.614 51.6643 134.582 51.8044V51.8044C134.546 51.9622 134.314 51.9396 134.309 51.7778L134.303 51.6135L132.485 40.1696Z" fill="url(#paint5_linear_4942_5471)"/>
</g>
<g filter="url(#filter5_f_4942_5471)">
<path d="M92.4771 28.1862C92.9032 27.4234 93.8057 27.0527 94.6492 27.2889V27.2889C94.7015 27.3036 94.7476 27.3354 94.7794 27.3792V27.3792C95.2873 28.0761 95.2122 29.0373 94.602 29.6501L90.1881 34.083C89.8882 34.3842 89.4918 34.5715 89.0679 34.6124L89.0147 34.6175C88.8585 34.6325 88.7785 34.4366 88.9008 34.3386V34.3386C89.0673 34.2052 89.2064 34.0411 89.3102 33.8552L92.4771 28.1862Z" fill="url(#paint6_linear_4942_5471)"/>
</g>
<g filter="url(#filter6_f_4942_5471)">
<path d="M98.7676 13.856C99.286 13.3724 99.9421 13.0482 100.642 12.9252V12.9252C101.002 12.862 101.309 13.1951 101.207 13.5436V13.5436C101.007 14.2293 100.605 14.8396 100.053 15.2963L81.1362 30.946V30.946C80.8998 31.1018 80.6377 30.7875 80.8358 30.5857L80.8521 30.5691L98.7676 13.856Z" fill="url(#paint7_linear_4942_5471)"/>
</g>
<g filter="url(#filter7_f_4942_5471)">
<path d="M127.657 24.9702C127.717 24.5163 127.997 24.1177 128.403 23.9045V23.9045C128.479 23.8649 128.572 23.8809 128.629 23.944V23.944C128.936 24.2838 129.052 24.7556 128.937 25.1997L127.015 32.591C126.971 32.7586 126.894 32.9155 126.788 33.0523V33.0523C126.704 33.1594 126.535 33.0707 126.576 32.9413L126.592 32.8895C126.616 32.8127 126.634 32.7339 126.644 32.6541L127.657 24.9702Z" fill="url(#paint8_linear_4942_5471)"/>
</g>
<g filter="url(#filter8_f_4942_5471)">
<path d="M114.096 13.6039C114.521 13.3748 115.022 13.3181 115.489 13.4432V13.4432C115.635 13.4823 115.716 13.6398 115.66 13.7795V13.7795C115.482 14.2293 115.132 14.5901 114.686 14.7835L104.171 19.352C104.04 19.4086 103.902 19.4458 103.761 19.4622V19.4622C103.6 19.4809 103.542 19.256 103.693 19.1969L103.845 19.1374L114.096 13.6039Z" fill="url(#paint9_linear_4942_5471)"/>
</g>
<g filter="url(#filter9_f_4942_5471)">
<path fill-rule="evenodd" clip-rule="evenodd" d="M124.574 10.3167C124.574 10.4916 124.176 10.6333 123.685 10.6333C123.194 10.6333 122.796 10.4916 122.796 10.3167C122.796 10.1418 123.194 10 123.685 10C124.176 10 124.574 10.1418 124.574 10.3167ZM119.656 13.4335C119.938 13.4101 120.212 13.3818 120.476 13.3493C120.102 13.6307 119.983 14.0613 120.223 14.6852C120.787 16.1451 122.402 16.0304 125.464 15.813C125.678 15.7978 125.899 15.7822 126.127 15.7665C126.808 15.7665 127.46 15.7478 128.059 15.7134C128.39 15.9536 129.341 16.1271 130.464 16.1271C131.282 16.1271 131.827 16.0447 132.246 15.9039C132.651 15.7674 132.679 15.2393 132.273 15.1065C132.041 15.0307 131.769 14.9836 131.433 14.9565C131.432 14.9462 131.431 14.9359 131.428 14.9255C131.374 14.7098 131.105 14.5578 130.689 14.4286C128.782 13.8373 125.179 12.9394 122.709 12.905C123.242 12.7347 123.555 12.5487 123.54 12.3757C124.974 10.8398 124.202 11.0182 122.471 11.4185C121.66 11.606 120.638 11.8422 119.534 11.9736C117.355 12.1547 115.616 12.6283 115.649 13.0314C117.109 13.5852 118.005 13.5255 118.868 13.4681C119.129 13.4507 119.386 13.4335 119.656 13.4335ZM116.633 16.876C117.211 16.2392 116.824 15.2487 115.726 14.6584C115.109 14.3261 114.208 14.1447 111.67 14.2049C110.381 14.2049 109.778 14.5311 108.98 14.9625C108.539 15.201 108.039 15.4716 107.33 15.7371C107.224 15.7769 107.135 15.8366 107.063 15.9093C106.179 15.9892 105.526 16.2715 105.526 16.6076C105.526 16.8215 105.79 17.0136 106.211 17.1456C105.93 17.1088 105.616 17.0882 105.284 17.0882C104.087 17.0882 103.116 17.3572 103.116 17.6889C103.116 18.0207 104.087 18.2896 105.284 18.2896C106.482 18.2896 107.453 18.0207 107.453 17.6889C107.453 17.5352 107.244 17.3949 106.901 17.2887C107.112 17.3144 107.338 17.3284 107.574 17.3284C107.814 17.3284 108.045 17.3138 108.259 17.287C109.828 17.6167 111.231 17.7354 112.634 17.8091C112.816 17.8091 113 17.8038 113.184 17.7937C113.061 17.9128 112.996 18.039 112.996 18.1696C113.129 18.702 113.312 19.3163 113.659 19.7645C112.988 19.8347 112.513 20.0085 112.513 20.2119C112.513 20.4773 113.322 20.6924 114.32 20.6924C115.318 20.6924 116.127 20.4773 116.127 20.2119C116.127 20.1826 116.118 20.1539 116.099 20.1261C116.495 19.9617 116.944 19.7156 117.453 19.371C119.219 19.371 122.16 19.2538 123.775 19.1423C123.871 19.1921 123.968 19.24 124.065 19.286C123.09 19.3694 122.392 19.5911 122.392 19.8514C122.392 20.1831 123.525 20.4521 124.922 20.4521C125.806 20.4521 126.585 20.3444 127.037 20.1812C128.522 20.3947 129.606 20.2019 129.547 19.8812C129.951 19.8202 130.432 19.7009 130.939 19.5279C132.207 19.0946 133.147 18.489 133.039 18.1752C132.931 17.8613 131.816 17.9581 130.548 18.3914C129.705 18.6797 129.006 19.0442 128.665 19.3484C128.226 19.048 128.174 18.3498 128.694 18.1257C129.771 17.6618 130.264 17.5752 130.64 17.509C130.856 17.4709 131.034 17.4396 131.262 17.3473C131.292 17.3353 131.324 17.3183 131.351 17.3007C131.546 17.1737 131.622 17.0663 131.604 16.9754C131.802 17.0449 132.081 17.0882 132.392 17.0882C132.991 17.0882 133.476 16.9269 133.476 16.7278C133.476 16.5288 132.991 16.3674 132.392 16.3674C131.793 16.3674 131.308 16.5288 131.308 16.7278C131.308 16.7373 131.309 16.7466 131.311 16.7559C130.478 16.4658 128.074 16.4779 126.582 16.4855L126.582 16.4855C126.369 16.4866 126.175 16.4875 126.006 16.4875C124.621 16.4875 123.23 17.2713 122.608 17.782C121.019 17.2753 118.955 16.848 117.574 16.848C117.251 16.848 116.936 16.8577 116.633 16.876ZM107.453 14.4453C107.453 14.7107 106.536 14.9259 105.405 14.9259C104.274 14.9259 103.357 14.7107 103.357 14.4453C103.357 14.1799 104.274 13.9648 105.405 13.9648C106.536 13.9648 107.453 14.1799 107.453 14.4453ZM108.176 13.9646C108.974 13.9646 109.622 13.7494 109.622 13.484C109.622 13.2186 108.974 13.0034 108.176 13.0034C107.377 13.0034 106.73 13.2186 106.73 13.484C106.73 13.7494 107.377 13.9646 108.176 13.9646ZM102.032 17.0882C102.63 17.0882 103.116 16.9269 103.116 16.7278C103.116 16.5288 102.63 16.3674 102.032 16.3674C101.433 16.3674 100.947 16.5288 100.947 16.7278C100.947 16.9269 101.433 17.0882 102.032 17.0882ZM113.236 20.9328C113.236 21.3309 111.941 21.6537 110.344 21.6537C108.747 21.6537 107.453 21.3309 107.453 20.9328C107.453 20.5347 108.747 20.212 110.344 20.212C111.941 20.212 113.236 20.5347 113.236 20.9328ZM133.878 13.6599C133.499 13.7013 133.077 13.7243 132.632 13.7243C130.969 13.7243 129.62 13.4016 129.62 13.0035C129.62 12.6054 130.969 12.2826 132.632 12.2826C133.944 12.2826 135.06 12.4834 135.473 12.7635C136.107 12.7707 136.609 12.8753 136.609 13.0034C136.609 13.1314 136.107 13.2361 135.474 13.2433C135.424 13.277 135.364 13.3096 135.295 13.3408C135.578 13.755 135.569 14.2594 135.263 14.4902C134.945 14.7307 134.427 14.5828 134.105 14.1599C133.985 14.0021 133.91 13.8283 133.878 13.6599Z" fill="#F8F8F8" fill-opacity="0.82"/>
</g>
<g filter="url(#filter10_f_4942_5471)">
<path d="M105.577 13.1627C105.577 13.4043 104.385 13.7668 100.926 14.0084C98.4231 14.0084 96.394 13.6839 96.394 13.2835C96.394 12.8832 98.4231 12.5586 100.926 12.5586C103.429 12.5586 105.577 12.7623 105.577 13.1627Z" fill="#B6F5F5"/>
</g>
<g filter="url(#filter11_f_4942_5471)">
<path d="M99.5698 11.2722C99.5698 11.3717 99.3246 11.5209 98.6135 11.6204C98.0988 11.6204 97.6816 11.4868 97.6816 11.3219C97.6816 11.1571 98.0988 11.0234 98.6135 11.0234C99.1281 11.0234 99.5698 11.1073 99.5698 11.2722Z" fill="#B6F5F5"/>
</g>
<g filter="url(#filter12_f_4942_5471)">
<path d="M97.3383 11.9404C97.3383 12.0684 97.0819 12.2602 96.3384 12.3882C95.8004 12.3882 95.3643 12.2163 95.3643 12.0044C95.3643 11.7924 95.8004 11.6206 96.3384 11.6206C96.8765 11.6206 97.3383 11.7285 97.3383 11.9404Z" fill="#B6F5F5"/>
</g>
<g filter="url(#filter13_f_4942_5471)">
<path d="M86.3524 15.3516C86.3524 15.4795 86.0961 15.6714 85.3526 15.7993C84.8146 15.7993 84.3784 15.6275 84.3784 15.4155C84.3784 15.2036 84.8146 15.0317 85.3526 15.0317C85.8906 15.0317 86.3524 15.1396 86.3524 15.3516Z" fill="#B6F5F5"/>
</g>
<g filter="url(#filter14_f_4942_5471)">
<path d="M87.2968 15.6929C87.2968 15.8208 87.0404 16.0127 86.2969 16.1406C85.7589 16.1406 85.3228 15.9688 85.3228 15.7568C85.3228 15.5449 85.7589 15.373 86.2969 15.373C86.835 15.373 87.2968 15.4809 87.2968 15.6929Z" fill="#B6F5F5"/>
</g>
<g filter="url(#filter15_f_4942_5471)">
<path d="M95.8794 12.1607C95.8794 12.2745 95.6342 12.445 94.923 12.5587C94.4084 12.5587 93.9912 12.406 93.9912 12.2176C93.9912 12.0292 94.4084 11.8765 94.923 11.8765C95.4377 11.8765 95.8794 11.9723 95.8794 12.1607Z" fill="#B6F5F5"/>
</g>
<g filter="url(#filter16_f_4942_5471)">
<path d="M87.2969 23.1267C87.2969 23.2262 87.0516 23.3754 86.3405 23.4749C85.8259 23.4749 85.4087 23.3413 85.4087 23.1764C85.4087 23.0116 85.8259 22.8779 86.3405 22.8779C86.8552 22.8779 87.2969 22.9618 87.2969 23.1267Z" fill="#B6F5F5"/>
</g>
<g filter="url(#filter17_f_4942_5471)">
<path d="M102.659 15.0107C102.659 15.1387 102.191 15.3306 100.834 15.4585C99.8511 15.4585 99.0547 15.2867 99.0547 15.0747C99.0547 14.8627 99.8511 14.6909 100.834 14.6909C101.816 14.6909 102.659 14.7988 102.659 15.0107Z" fill="#B6F5F5"/>
</g>
<g filter="url(#filter18_f_4942_5471)">
<path d="M98.7974 16.2046C98.7974 16.3325 98.5521 16.5244 97.841 16.6523C97.3264 16.6523 96.9092 16.4805 96.9092 16.2685C96.9092 16.0566 97.3264 15.8848 97.841 15.8848C98.3556 15.8848 98.7974 15.9926 98.7974 16.2046Z" fill="#B6F5F5"/>
</g>
<g filter="url(#filter19_f_4942_5471)">
<path d="M110.212 18.5928C110.212 18.7207 109.844 18.9126 108.778 19.0405C108.006 19.0405 107.38 18.8687 107.38 18.6567C107.38 18.4448 108.006 18.2729 108.778 18.2729C109.55 18.2729 110.212 18.3808 110.212 18.5928Z" fill="#B6F5F5"/>
</g>
<g filter="url(#filter20_f_4942_5471)">
<ellipse cx="137.72" cy="14.6481" rx="1.84526" ry="0.298499" fill="#BBF3F5"/>
</g>
<g filter="url(#filter21_f_4942_5471)">
<ellipse cx="138.492" cy="16.6094" rx="1.67361" ry="0.383784" fill="#BBF3F5"/>
</g>
<g filter="url(#filter22_f_4942_5471)">
<ellipse cx="139.093" cy="14.1364" rx="1.75944" ry="0.298499" fill="#BBF3F5"/>
</g>
<g filter="url(#filter23_f_4942_5471)">
<ellipse cx="140.265" cy="15.9271" rx="1.58778" ry="0.341142" fill="#BBF3F5"/>
</g>
<g filter="url(#filter24_f_4942_5471)">
<ellipse cx="138.835" cy="22.9206" rx="1.50196" ry="0.554355" fill="#BBF3F5"/>
</g>
<g filter="url(#filter25_f_4942_5471)">
<ellipse cx="136.732" cy="24.5838" rx="1.54487" ry="0.341142" fill="#BBF3F5"/>
</g>
<g filter="url(#filter26_f_4942_5471)">
<ellipse cx="136.99" cy="27.2277" rx="1.54487" ry="0.426427" fill="#BBF3F5"/>
</g>
<g filter="url(#filter27_f_4942_5471)">
<ellipse cx="141.024" cy="13.6673" rx="1.37322" ry="0.341142" fill="#BBF3F5"/>
</g>
<g filter="url(#filter28_f_4942_5471)">
<ellipse cx="141.539" cy="15.5438" rx="1.20157" ry="0.341142" fill="#BBF3F5"/>
</g>
<g filter="url(#filter29_f_4942_5471)">
<ellipse cx="141.153" cy="10.6396" rx="2.87518" ry="0.639641" fill="#BBF3F5"/>
</g>
<g filter="url(#filter30_f_4942_5471)">
<ellipse cx="141.539" cy="12.3027" rx="1.20157" ry="0.255856" fill="#BBF3F5"/>
</g>
<g filter="url(#filter31_f_4942_5471)">
<ellipse cx="119.267" cy="20.3625" rx="2.10274" ry="0.298499" fill="#C6F5F5"/>
</g>
<g filter="url(#filter32_f_4942_5471)">
<ellipse cx="2.03322" cy="0.356945" rx="2.03322" ry="0.356945" transform="matrix(0.954847 -0.2971 0.30054 0.953769 119.376 29.7588)" fill="#C6F5F5"/>
</g>
<g filter="url(#filter33_f_4942_5471)">
<ellipse cx="122.056" cy="21.2576" rx="3.00392" ry="0.341142" fill="#C6F5F5"/>
</g>
<g filter="url(#filter34_f_4942_5471)">
<ellipse cx="120.94" cy="24.5413" rx="3.00392" ry="0.724926" fill="#C6F5F5"/>
</g>
<g filter="url(#filter35_f_4942_5471)">
<ellipse cx="117.508" cy="22.9206" rx="1.28739" ry="0.298499" fill="#C6F5F5"/>
</g>
<g filter="url(#filter36_f_4942_5471)">
<ellipse cx="119.01" cy="26.3747" rx="2.01692" ry="0.426427" fill="#9BF5F5"/>
</g>
<g filter="url(#filter37_f_4942_5471)">
<ellipse cx="2.03406" cy="0.475729" rx="2.03406" ry="0.475729" transform="matrix(0.988179 -0.153307 0.155211 0.987881 116.933 27.917)" fill="#9BF5F5"/>
</g>
<g filter="url(#filter38_f_4942_5471)">
<ellipse cx="1.52481" cy="0.475729" rx="1.52481" ry="0.475729" transform="matrix(0.988179 -0.153307 0.155211 0.987881 111.717 27.9189)" fill="#CDF5F5"/>
</g>
<g filter="url(#filter39_f_4942_5471)">
<ellipse cx="2.37319" cy="0.475661" rx="2.37319" ry="0.475661" transform="matrix(0.999392 0.0348733 -0.0353164 0.999376 110.076 25.9346)" fill="#CDF5F5"/>
</g>
<g filter="url(#filter40_f_4942_5471)">
<ellipse cx="1.64615" cy="0.419094" rx="1.64615" ry="0.419094" transform="matrix(0.999392 0.0348733 -0.0353164 0.999376 111.747 22.1294)" fill="#CDF5F5"/>
</g>
<g filter="url(#filter41_f_4942_5471)">
<ellipse cx="0.759784" cy="0.241447" rx="0.759784" ry="0.241447" transform="matrix(0.999392 0.0348733 -0.0353164 0.999376 110.059 23.7939)" fill="#CDF5F5"/>
</g>
<g filter="url(#filter42_f_4942_5471)">
<ellipse cx="1.33562" cy="0.241447" rx="1.33562" ry="0.241447" transform="matrix(0.999392 0.0348733 -0.0353164 0.999376 113.888 24.7451)" fill="#CDF5F5"/>
</g>
<g filter="url(#filter43_f_4942_5471)">
<ellipse cx="1.0911" cy="0.475729" rx="1.0911" ry="0.475729" transform="matrix(0.988179 -0.153307 0.155211 0.987881 114.829 30.1255)" fill="#9BF5F5"/>
</g>
<g filter="url(#filter44_f_4942_5471)">
<ellipse cx="1.35537" cy="0.475657" rx="1.35537" ry="0.475657" transform="matrix(0.999978 0.0066936 -0.00677875 0.999977 102.205 28.6626)" fill="#9BF5F5"/>
</g>
<g filter="url(#filter45_f_4942_5471)">
<ellipse cx="1.35537" cy="0.475657" rx="1.35537" ry="0.475657" transform="matrix(0.999978 0.0066936 -0.00677875 0.999977 103.826 27.3613)" fill="#9BF5F5"/>
</g>
<g filter="url(#filter46_f_4942_5471)">
<ellipse cx="1.79865" cy="0.475657" rx="1.79865" ry="0.475657" transform="matrix(0.999978 0.0066936 -0.00677875 0.999977 102.15 25.6968)" fill="#9BF5F5"/>
</g>
<g filter="url(#filter47_f_4942_5471)">
<ellipse cx="2.27521" cy="0.698272" rx="2.27521" ry="0.698272" transform="matrix(0.999978 0.0066936 -0.00677875 0.999977 103.11 23.7939)" fill="#BAF5F1"/>
</g>
<g filter="url(#filter48_f_4942_5471)">
<ellipse cx="2.15333" cy="0.542276" rx="2.15333" ry="0.542276" transform="matrix(0.999978 0.0066936 -0.00677875 0.999977 100.237 22.8428)" fill="#BAF5F1"/>
</g>
<g filter="url(#filter49_f_4942_5471)">
<path d="M100.709 22.2481C100.707 22.5476 99.0251 22.9983 97.8359 22.9903C96.6467 22.9823 95.6842 22.7331 95.6863 22.4336C95.6932 21.4159 96.6462 21.408 97.8355 21.4159C101.545 20.7023 100.711 21.9486 100.709 22.2481Z" fill="#BAF5F1"/>
</g>
<g filter="url(#filter50_f_4942_5471)">
<ellipse cx="1.12275" cy="0.475657" rx="1.12275" ry="0.475657" transform="matrix(0.999978 0.0066936 -0.00677875 0.999977 100.475 27.1235)" fill="#9BF5F5"/>
</g>
<g filter="url(#filter51_f_4942_5471)">
<path d="M58.6554 25.8197C62.0069 23.7498 65.5531 22.01 69.2441 20.625L72.6124 19.361C73.0697 19.1894 73.5437 19.0654 74.0269 18.991V18.991C75.1432 18.8193 75.6987 20.2964 74.7476 20.902V20.902C74.3325 21.1664 73.8899 21.3875 73.4287 21.5605L69.9845 22.853C66.3474 24.2178 62.5881 25.2365 58.7567 25.8954L58.4464 25.9488L58.6554 25.8197Z" fill="url(#paint10_linear_4942_5471)"/>
</g>
<g filter="url(#filter52_i_4942_5471)">
<path fill-rule="evenodd" clip-rule="evenodd" d="M52.9525 44.9639C52.792 44.9749 52.6334 44.8892 52.5592 44.7354C52.4618 44.5336 52.5464 44.291 52.7482 44.1936C52.9346 44.1036 53.1558 44.1689 53.2653 44.3385C53.5133 44.2438 53.7967 44.3533 53.9142 44.5967C54.0382 44.8536 53.9305 45.1624 53.6735 45.2864C53.4166 45.4104 53.1079 45.3027 52.9839 45.0457C52.9709 45.0189 52.9605 44.9916 52.9525 44.9639Z" fill="#39CFF9"/>
</g>
<g filter="url(#filter53_i_4942_5471)">
<path fill-rule="evenodd" clip-rule="evenodd" d="M48.772 38.3249C48.5701 38.4224 48.3276 38.3377 48.2301 38.1359C48.1327 37.9341 48.2174 37.6915 48.4192 37.5941C48.621 37.4967 48.8636 37.5813 48.961 37.7831C49.0584 37.985 48.9738 38.2275 48.772 38.3249ZM47.0187 40.3564C47.1161 40.5582 47.3587 40.6429 47.5605 40.5455C47.7623 40.4481 47.847 40.2055 47.7496 40.0036C47.6521 39.8018 47.4096 39.7172 47.2077 39.8146C47.0059 39.912 46.9213 40.1546 47.0187 40.3564ZM50.7062 39.3158C50.5808 39.3763 50.4302 39.3238 50.3697 39.1984C50.3092 39.0731 50.3617 38.9224 50.4871 38.8619C50.6124 38.8014 50.7631 38.854 50.8236 38.9793C50.8841 39.1047 50.8315 39.2553 50.7062 39.3158ZM50.093 41.8042C50.1905 42.006 50.4796 42.0795 50.6814 41.9821C50.8832 41.8847 50.9679 41.6421 50.8705 41.4403C50.7731 41.2385 50.4434 41.1293 50.2416 41.2267C50.0398 41.3241 49.9956 41.6024 50.093 41.8042ZM52.1273 41.5496C52.2513 41.8065 52.6396 41.9282 52.8965 41.8042C53.1534 41.6802 53.2283 41.3343 53.1043 41.0774C52.9802 40.8205 52.6249 40.7359 52.368 40.8599C52.1111 40.9839 52.0033 41.2927 52.1273 41.5496Z" fill="#41D3F8"/>
</g>
<path d="M41.9727 53.6867C47.0735 54.4575 51.4099 51.9445 53.436 50.0382C53.814 49.6826 53.5746 49.1022 53.0574 49.0585C44.8605 48.3672 30.2211 47.4028 30.746 48.2356C31.4351 49.3289 34.5434 52.564 41.9727 53.6867Z" fill="#F3F3F3"/>
<path d="M39.5098 40.5852C40.4241 41.1843 41.3273 42.2901 41.8088 43.0035L39.5366 43.519C38.989 42.8444 38.6119 42.2836 38.358 41.8265C37.8281 40.8727 38.5972 39.9871 39.5098 40.5852Z" fill="#595959"/>
<path d="M35.7411 41.8592C49.5607 40.4443 51.9107 45.2195 53.6653 47.7221C54.118 48.3678 54.082 49.2216 53.3426 49.4955C52.3539 49.8619 50.7936 50.284 48.5583 50.6508C46.8429 50.9324 44.6484 51.762 43.0914 52.535C41.9239 53.1146 41.1068 52.9428 39.8663 52.5424L37.6251 51.819C33.2987 50.4225 29.2569 48.1694 26.131 44.8683C25.1893 43.8738 24.3634 42.9308 23.9338 42.2737C22.9645 40.9792 21.0936 37.8013 20.4763 37.2727C19.8112 36.7032 18.5665 35.7776 18.0571 35.131C16.7602 33.5331 17.1184 33.2788 17.6756 33.3989C17.9908 33.4669 18.2894 33.5986 18.6001 33.6848C19.512 33.9378 20.4812 33.9886 21.315 33.5408C21.9118 33.2203 22.6483 32.7359 23.4635 32.0327C23.8477 31.7012 24.3142 30.8723 24.7652 30.6397C25.794 30.109 24.6413 32.1969 24.0383 33.185C22.509 35.6911 22.8561 37.9135 23.2754 38.8512C25.2372 41.77 32.3765 42.0957 35.7411 41.8592Z" fill="url(#paint11_linear_4942_5471)"/>
<path d="M41.5056 51.698C44.8389 51.6428 45.3629 50.1356 43.6619 49.6452C42.4883 49.3069 41.1195 48.9988 40.0033 49.4944C38.8825 49.9921 38.6505 51.376 41.5056 51.698Z" fill="#F3F3F3"/>
<path d="M34.9519 42.3742C35.9126 42.8111 36.7164 42.9172 37.151 42.8844L37.0912 42.8912C34.6725 43.1647 32.2236 42.9529 29.8879 42.2679C31.1904 41.8137 29.6656 40.2184 28.7403 39.4776C30.4951 37.915 32.8131 41.4014 34.9519 42.3742Z" fill="url(#paint12_linear_4942_5471)"/>
<path d="M36.2459 51.0567C37.5167 50.4232 38.0875 50.6388 38.2253 50.9151C37.8982 50.1537 36.0777 48.8161 31.4117 49.557C28.9212 49.9525 28.3363 50.3424 28.5749 50.6607C29.3297 51.6679 30.9832 51.7964 32.213 52.0642C33.6459 52.3763 34.9334 51.711 36.2459 51.0567Z" fill="url(#paint13_linear_4942_5471)"/>
<path d="M107.337 50.4506C108.559 51.0087 107.572 52.1905 107.072 52.4989C106.501 52.5881 105.301 52.6772 105.061 52.3202C104.313 51.3814 105.255 49.4999 107.337 50.4506Z" fill="url(#paint14_linear_4942_5471)"/>
<path d="M107.072 52.4989L107.623 50.6213C107.585 50.5908 107.542 50.5613 107.495 50.533L106.979 52.5127C107.011 52.5081 107.042 52.5035 107.072 52.4989Z" fill="#FF8126"/>
<path d="M106.848 51.9593L107.206 50.3938C107.167 50.3778 107.129 50.3628 107.09 50.3489L106.848 51.9593Z" fill="#FF8126"/>
<path d="M106.663 51.6771L106.516 52.5614C106.478 52.5642 106.439 52.5667 106.399 52.5689L106.663 51.6771Z" fill="#FF8126"/>
<path d="M106.583 50.2149L106.105 52.5785C106.079 52.5787 106.052 52.5786 106.025 52.5784L106.493 50.2027C106.523 50.2061 106.553 50.2102 106.583 50.2149Z" fill="#FF8126"/>
<path d="M106.035 51.0253L105.717 52.5638C105.707 52.5628 105.697 52.5619 105.687 52.5608L106.035 51.0253Z" fill="#FF8126"/>
<path d="M106.693 51.5516L106.93 50.295C106.908 50.2885 106.887 50.2824 106.866 50.2765C106.841 50.2693 106.74 51.1236 106.693 51.5516Z" fill="#FF8126"/>
<path d="M104.974 52.1938L105.097 50.7272C105.135 50.6785 105.176 50.632 105.221 50.5882L105.024 52.2709C105.006 52.2458 104.99 52.2201 104.974 52.1938Z" fill="#FF8126"/>
<path d="M105.703 50.7481L105.822 50.2473C105.804 50.2525 105.785 50.2579 105.767 50.2637L105.703 50.7481Z" fill="#FF8126"/>
<path d="M105.745 51.39L105.503 52.5348C105.482 52.5308 105.461 52.5266 105.44 52.522L105.745 51.39Z" fill="#FF8126"/>
<path d="M105.329 52.0508L105.551 50.3524C105.536 50.3601 105.521 50.3681 105.506 50.3764L105.329 52.0508Z" fill="#FF8126"/>
<path d="M105.061 52.3202C104.313 51.3814 105.255 49.4999 107.337 50.4506C107.947 50.7291 108.006 51.1629 107.851 51.566C107.785 51.4956 107.643 51.286 107.602 51.0113C107.55 50.668 107.415 50.848 107.29 50.8184C107.164 50.7887 107.005 50.6167 106.901 50.5534C106.798 50.4901 106.425 50.6669 106.18 50.6357C105.936 50.6044 105.966 50.479 105.847 50.4774C105.728 50.4758 105.593 50.6558 105.494 50.7384C105.395 50.821 105.22 50.8326 105.17 50.8739C105.121 50.9152 105.195 51.105 105.06 51.285C104.924 51.465 105.044 51.9701 105.029 52.0328C105.068 52.0918 105.131 52.2318 105.061 52.3202Z" fill="#333E76"/>
<path d="M103.061 54.8912C103.076 54.3042 104.156 54.105 104.622 54.0704C104.796 54.1496 104.928 54.2288 105.026 54.3068C105.744 54.8782 103.988 56.0035 103.233 55.4817C103.12 55.4033 103.053 55.2286 103.061 54.8912Z" fill="#FF8D3A"/>
<path d="M105.183 54.5805C105.13 54.416 105.01 54.2474 104.622 54.0706L105.183 54.5805Z" fill="#FF8126"/>
<path d="M104.933 54.5209L104.476 54.0849C104.457 54.0871 104.438 54.0895 104.418 54.0922L104.933 54.5209Z" fill="#FF8126"/>
<path d="M104.462 54.6844L104.899 55.1323C104.882 55.1443 104.865 55.1559 104.848 55.1672L104.462 54.6844Z" fill="#FF8126"/>
<path d="M103.861 54.6188L103.669 54.2751C103.649 54.2831 103.628 54.2913 103.608 54.2998L103.861 54.6188Z" fill="#FF8126"/>
<path d="M103.307 54.7792L103.711 55.4876C103.692 55.4929 103.673 55.4978 103.655 55.5025L103.307 54.7792Z" fill="#FF8126"/>
<path d="M103.944 54.7178C104.018 54.7794 104.102 54.8877 104.17 55.0495C104.053 54.929 103.975 54.8091 103.944 54.7178Z" fill="#FF8126"/>
<path d="M104.393 54.6119L104.068 54.1554C104.053 54.1589 104.037 54.1625 104.022 54.1663L104.393 54.6119Z" fill="#FF8126"/>
<path d="M104.258 54.1171L105.066 54.924C105.055 54.9383 105.043 54.9523 105.03 54.9661L104.219 54.1242C104.232 54.1218 104.245 54.1194 104.258 54.1171Z" fill="#FF8126"/>
<path d="M104.996 54.2841C105.007 54.2917 105.016 54.2993 105.026 54.3068C105.744 54.8783 103.987 56.0034 103.233 55.4817C103.155 55.4275 103.098 55.3275 103.074 55.1596C103.134 55.2539 103.309 55.4181 103.523 55.3203C103.79 55.198 104.411 55.3182 104.469 55.1861C104.526 55.054 104.779 54.9945 104.843 55.0089C104.908 55.0233 105.256 54.882 105.091 54.684C104.959 54.5256 104.973 54.3514 104.996 54.2841Z" fill="#333E76"/>
<path d="M99.6548 57.3784C98.5798 57.4423 98.9819 56.451 99.3173 55.9473C100.324 54.9398 100.785 56.0159 100.831 56.2123C100.87 56.376 100.998 57.2985 99.6548 57.3784Z" fill="#FF8D3A"/>
<path d="M100.551 56.9098L100.688 55.9C100.666 55.8658 100.641 55.8313 100.614 55.7979L100.551 56.9098Z" fill="#FF8126"/>
<path d="M100.443 56.0762L100.362 57.2116C100.343 57.2212 100.323 57.2305 100.303 57.2394L100.443 56.0762Z" fill="#FF8126"/>
<path d="M100.167 57.2904L100.323 55.568C100.293 55.5551 100.261 55.5446 100.227 55.537L100.083 57.3144C100.112 57.3069 100.14 57.2989 100.167 57.2904Z" fill="#FF8126"/>
<path d="M99.3954 57.0342L99.535 55.7539C99.5005 55.7804 99.4652 55.8095 99.4292 55.8414L99.3954 57.0342Z" fill="#FF8126"/>
<path d="M99.7186 56.3952L99.6543 57.3785C99.6342 57.3797 99.6147 57.3805 99.5956 57.381L99.7186 56.3952Z" fill="#FF8126"/>
<path d="M99.7416 56.2416L99.8231 55.5822C99.7804 55.5999 99.7362 55.6218 99.6906 55.6485L99.7416 56.2416Z" fill="#FF8126"/>
<path d="M100.024 56.0566C100.032 56.1733 100.036 56.433 99.9894 56.5387C99.9748 56.3762 100.006 56.1496 100.024 56.0566Z" fill="#FF8126"/>
<path d="M100.851 56.4835C100.83 56.817 100.631 57.3202 99.6544 57.3783C98.938 57.421 98.8776 56.9948 99.0164 56.5567C99.0156 56.6372 99.0418 56.8154 99.1528 56.884C99.2915 56.9697 99.2735 57.2702 99.4286 57.1744C99.5837 57.0786 99.8545 57.222 99.9173 57.2369C99.98 57.2517 100.373 57.159 100.432 56.9081C100.48 56.7073 100.731 56.5414 100.851 56.4835Z" fill="#333E76"/>
<path d="M97.1939 51.1975L97.9066 51.9768L100.868 52.2262L103.287 52.5619L103.983 51.9087C104.044 51.8513 104.058 51.7583 104.009 51.6897C103.536 51.0142 102.755 50.8009 102.242 50.9141C102.09 50.9475 101.916 50.8985 101.825 50.7723C100.869 49.4333 98.5013 49.6326 97.2012 50.8429C97.0997 50.9374 97.1003 51.0951 97.1939 51.1975Z" fill="#FF8D3A"/>
<path d="M102.674 51.8474L101.975 51.0173L101.875 51.4731L101.97 51.7471L102.674 51.8474Z" fill="white"/>
<path d="M101.975 51.0175C101.959 50.9871 101.943 50.9573 101.926 50.9281C101.85 51.2422 101.835 51.3049 101.812 51.4584C101.788 51.6197 101.808 51.815 101.816 51.7242L102.017 51.8248C101.935 51.7258 101.938 51.4881 101.953 51.4253C101.965 51.3752 101.984 51.1397 101.975 51.0175C102.036 51.1077 102.174 51.308 102.24 51.3872C102.306 51.4664 102.455 51.7118 102.521 51.8245L102.709 51.869C102.696 51.8129 102.64 51.6779 102.524 51.5868C102.408 51.4958 102.315 51.3696 102.283 51.3179C102.248 51.253 102.157 51.1127 102.076 51.0704L101.975 51.0175Z" fill="#333E76"/>
<path d="M103.426 52.1443L103.907 51.5568C103.896 51.5435 103.885 51.5304 103.874 51.5176L103.426 52.1443Z" fill="#FF8126"/>
<path d="M103.487 51.7745L103.042 52.528L102.981 52.5195L103.487 51.7745Z" fill="#FF8126"/>
<path d="M103.287 51.555C103.251 51.6524 103.153 51.8651 103.051 51.9365C103.014 51.9624 103.166 51.7119 103.287 51.555Z" fill="#FF8126"/>
<path d="M102.263 51.2336L102.332 50.898C102.313 50.9007 102.294 50.9038 102.275 50.9074L102.263 51.2336Z" fill="#FF8126"/>
<path d="M102.074 51.8115L102.001 52.3835L101.94 52.375L102.074 51.8115Z" fill="#FF8126"/>
<path d="M102.546 51.5521L102.717 50.8982C102.697 50.8956 102.677 50.8934 102.656 50.8916L102.546 51.5521Z" fill="#FF8126"/>
<path d="M98.0158 51.4355L97.5691 50.5461C97.5568 50.5547 97.5447 50.5633 97.5326 50.572L98.0158 51.4355Z" fill="#FF8126"/>
<path d="M98.0422 51.5477L98.2994 52.01L98.2389 52.0049L98.0422 51.5477Z" fill="#FF8126"/>
<path d="M99.4484 50.9792L99.1361 49.9059C99.1172 49.9092 99.0982 49.9127 99.0793 49.9163L99.4484 50.9792Z" fill="#FF8126"/>
<path d="M98.3693 50.5018C98.3334 50.4046 98.2834 50.2636 98.2503 50.1692C98.2324 50.1769 98.2144 50.1847 98.1966 50.1926C98.2418 50.2678 98.3202 50.4034 98.3693 50.5018C98.3988 50.5819 98.4187 50.6321 98.4115 50.6017C98.4067 50.5811 98.3908 50.545 98.3693 50.5018Z" fill="#FF8126"/>
<path d="M98.5603 50.9813L99.0247 52.0711L98.9642 52.066L98.5603 50.9813Z" fill="#FF8126"/>
<path d="M99.478 52.1093L98.7703 49.9878C98.7412 49.9958 98.7122 50.0041 98.6832 50.0127L99.3873 52.1016L99.478 52.1093Z" fill="#FF8126"/>
<path d="M100.64 51.2608L100.349 49.8979C100.328 49.8942 100.308 49.8908 100.287 49.8876L100.64 51.2608Z" fill="#FF8126"/>
<path d="M100.354 52.1831C100.208 51.7154 99.9266 50.8127 99.8693 50.6209C99.8616 50.5931 99.8579 50.5803 99.8593 50.5861C99.8602 50.5901 99.8637 50.6021 99.8693 50.6209C99.922 50.8106 100.164 51.6989 100.294 52.178L100.354 52.1831Z" fill="#FF8126"/>
<path d="M99.6414 50.6671C99.7163 50.8172 99.8626 51.1777 99.8482 51.4181C99.7852 51.2516 99.6841 50.848 99.6414 50.6671Z" fill="#FF8126"/>
<path d="M101.005 51.1748L101.31 52.2877L101.231 52.2767L101.005 51.1748Z" fill="#FF8126"/>
<path d="M100.089 50.1765L100.747 52.2162L100.673 52.2099L100.089 50.1765Z" fill="#FF8126"/>
<path d="M101.826 50.7721C100.867 49.4299 98.49 49.6333 97.192 50.8513C97.1275 50.9119 97.1071 50.9996 97.1281 51.0797C97.1485 51.1575 97.0824 51.0926 97.1607 51.0741V51.0741C97.1887 51.0675 97.2877 50.9849 97.3505 50.9997C97.4132 51.0146 97.6806 50.8923 97.6607 50.8081C97.6409 50.7239 97.7745 50.6627 97.8934 50.6643C98.0123 50.6659 98.2383 50.4941 98.3522 50.3488C98.466 50.2035 98.7598 50.1934 98.9695 50.2032C99.1791 50.213 99.3425 50.0264 99.6016 49.9949C99.8608 49.9634 99.8939 50.1037 100.11 50.1416C100.326 50.1794 100.67 50.1281 100.802 50.1858C100.934 50.2435 100.927 50.2154 101.126 50.5537C101.284 50.8244 101.441 50.8843 101.499 50.8804C101.523 50.8551 101.602 50.8384 101.728 50.9744C101.887 51.1443 102.118 51.1195 102.224 51.0649C102.329 51.0104 102.237 51.1211 102.453 51.1589C102.626 51.1892 102.848 51.1152 102.937 51.0745C102.992 51.1009 103.127 51.1777 103.221 51.2741C103.315 51.3704 103.473 51.3824 103.541 51.3763C103.616 51.5278 103.822 51.696 103.965 51.796C104.012 51.8288 104.088 51.8091 104.057 51.7608V51.7608C103.59 51.029 102.772 50.7969 102.242 50.9139C102.09 50.9473 101.916 50.8983 101.826 50.7721Z" fill="#333E76"/>
<path d="M99.686 51.486C102.306 51.5017 105.402 52.6557 106.541 52.4169C106.653 52.3904 107.857 52.0708 106.633 52.8097C101.151 56.5908 97.2638 57.0829 95.9396 56.5757C95.4157 56.3635 94.694 55.8819 95.3726 55.0506C96.0513 54.2193 95.8892 51.4631 99.686 51.486Z" fill="url(#paint15_linear_4942_5471)"/>
<path d="M95.8478 56.536C96.1251 56.3791 96.4751 56.1447 95.6667 56.4453C95.7185 56.4776 95.7766 56.507 95.8478 56.536Z" fill="#FF7715"/>
<path d="M98.8097 51.536C99.0758 51.5014 99.3671 51.4836 99.6864 51.4856C100.283 52.3816 101.401 54.5882 101.015 55.8641L100.333 56.1099C100.819 54.9587 99.5202 52.5809 98.8097 51.536Z" fill="white"/>
<path d="M106.302 53.0354C106.44 52.7182 106.188 52.5106 106.044 52.4464C105.923 52.4417 105.792 52.4305 105.652 52.414C105.805 52.5624 106.063 52.9523 105.866 53.324C106.01 53.2301 106.156 53.1339 106.302 53.0354Z" fill="white"/>
<path d="M103.816 54.5542C104.024 53.308 103.055 52.2113 102.544 51.8187C102.321 51.7764 102.096 51.7357 101.869 51.6982C102.391 52.2914 103.399 53.7524 103.259 54.8506C103.442 54.756 103.628 54.6572 103.816 54.5542Z" fill="white"/>
<path d="M99.1573 52.381C99.0065 51.9426 98.7339 51.674 98.6098 51.5664C98.684 51.5538 98.7603 51.5425 98.8388 51.5327C98.8458 51.5624 98.9146 51.6362 99.0051 51.7356V51.7356C99.2522 52.007 99.3259 52.4035 99.5176 52.7165C99.5474 52.7652 99.5812 52.8066 99.6198 52.8347C99.8345 52.9915 99.8775 53.2866 99.9684 53.4338C100.064 53.5889 99.9356 53.797 100.102 53.8762C100.236 53.9395 100.317 54.2403 100.34 54.3828C100.355 54.5275 100.412 54.8282 100.466 54.916C100.61 55.1487 100.492 55.4777 100.471 55.5664C100.442 55.6919 100.463 55.9075 100.497 56.0541C100.414 56.083 100.332 56.111 100.251 56.1379C100.389 56.0231 100.36 55.8896 100.328 55.8372C100.268 55.7525 100.174 55.5121 100.273 55.2281C100.372 54.9441 100.233 54.5958 100.15 54.4572C99.9925 54.2476 99.6982 53.7701 99.7852 53.5363C99.8723 53.3025 99.698 53.0829 99.61 53.0444C99.5219 53.0059 99.3081 52.8194 99.1573 52.381Z" fill="#333E76"/>
<path d="M99.6168 51.4859C99.64 51.4858 99.6633 51.4859 99.6868 51.486C99.7755 51.4865 99.7776 51.4942 99.8403 51.509C99.8787 51.5462 99.8589 51.6883 100.052 51.9035C100.293 52.1724 100.31 52.4943 100.544 52.7352C100.732 52.928 100.622 53.1908 100.848 53.5225C101.025 53.8955 100.968 54.229 101.034 54.3082C101.116 54.4072 101.139 54.7572 101.214 54.947C101.288 55.1368 101.118 55.2953 101.117 55.4142C101.115 55.512 101.211 55.6866 101.205 55.7907C101.123 55.8231 101.042 55.8547 100.961 55.8853C101.004 55.8587 101.073 55.7563 101.003 55.5595C100.915 55.3136 101.092 55.1831 101.024 55.0213C100.928 54.7925 100.909 54.5255 100.865 54.2813C100.857 54.2349 100.856 54.1989 100.851 54.1681C100.849 54.1525 100.846 54.137 100.845 54.1213C100.83 53.9842 100.773 53.7043 100.639 53.5127C100.46 53.2586 100.555 53.0496 100.396 52.8591C100.354 52.8098 100.33 52.763 100.307 52.7149C100.199 52.4938 100.118 52.1679 99.9528 51.9861C99.7929 51.8105 99.6622 51.5795 99.6168 51.4859Z" fill="#333E76"/>
<path d="M102.714 53.1419C102.641 52.836 102.019 52.2219 101.787 51.6902C101.778 51.6712 101.794 51.652 101.814 51.6587C101.868 51.677 101.924 51.7077 101.976 51.7164C102.011 51.7575 102.094 51.8483 102.15 51.8826C102.219 51.9255 102.236 52.2474 102.416 52.3827C102.596 52.5179 102.732 52.8414 102.847 53.0807C102.963 53.32 103.199 53.9456 103.26 54.0793C103.322 54.2129 103.299 54.3665 103.282 54.5481C103.269 54.6934 103.3 54.7907 103.317 54.8213C103.273 54.8442 103.229 54.8669 103.185 54.8894C103.164 54.7586 103.13 54.4537 103.16 54.2807C103.198 54.0644 103.031 53.9853 103.013 53.7822C102.994 53.5792 102.806 53.5347 102.714 53.1419Z" fill="#333E76"/>
<path d="M102.99 52.3064C102.888 52.1233 102.616 51.9333 102.519 51.8143C102.581 51.8261 102.643 51.8381 102.705 51.8501C102.822 51.9279 103.071 52.1215 103.131 52.2734C103.19 52.4252 103.462 52.7976 103.59 52.9648C103.673 53.0638 103.837 53.3094 103.835 53.4995C103.831 53.7373 104.096 53.8527 104.045 54.0128C103.993 54.173 103.86 54.2341 103.914 54.3398C103.958 54.4243 103.955 54.4701 103.948 54.4825C103.895 54.5117 103.843 54.5405 103.791 54.569C103.776 54.5058 103.757 54.353 103.804 54.2474C103.85 54.1417 103.835 54.003 103.822 53.9469C103.74 53.8004 103.716 53.6658 103.714 53.6168C103.681 53.4765 103.593 53.1774 103.504 53.1035C103.394 53.0111 103.081 52.4676 102.99 52.3064Z" fill="#333E76"/>
<path d="M105.781 52.8333C105.692 52.7594 105.597 52.5157 105.561 52.4031C105.607 52.4091 105.653 52.4147 105.698 52.4196C105.78 52.4953 105.942 52.6648 105.936 52.7375C105.929 52.8101 105.957 53.0384 105.972 53.1435C105.98 53.1679 105.983 53.2295 105.934 53.2808C105.898 53.3039 105.863 53.3269 105.828 53.3497C105.84 53.3388 105.854 53.2958 105.81 53.2113C105.756 53.1057 105.891 52.9257 105.781 52.8333Z" fill="#333E76"/>
<path d="M106.244 52.6647C106.194 52.6528 106.077 52.514 106.025 52.446V52.446C106.102 52.4494 106.179 52.4736 106.223 52.5365C106.279 52.6173 106.315 52.7148 106.363 52.8034C106.364 52.8068 106.366 52.81 106.368 52.8132C106.407 52.8752 106.374 52.9645 106.353 53.0014C106.328 53.0187 106.302 53.0359 106.277 53.053C106.24 52.9443 106.275 52.8985 106.297 52.8891C106.301 52.8193 106.295 52.6765 106.244 52.6647Z" fill="#333E76"/>
<path d="M100.669 53.9567C100.564 53.3587 100.22 53.3944 99.8752 53.5453C99.5352 53.6943 99.2282 54.1038 99.4511 54.4007C99.5834 54.5768 99.8021 54.584 99.9869 54.5894C100.349 54.5998 100.774 54.5542 100.669 53.9567Z" fill="url(#paint16_linear_4942_5471)"/>
<path d="M100.669 53.9567C100.597 53.5452 100.411 53.4337 100.19 53.4534C100.417 53.5858 100.781 53.989 100.416 54.5424C100.605 54.4737 100.732 54.3137 100.669 53.9567Z" fill="#333E76"/>
<path d="M96.6898 54.0757C96.7943 54.5187 97.2124 54.7991 97.6238 54.7021C98.0351 54.6051 98.2839 54.1674 98.1794 53.7244C98.0749 53.2815 97.6568 53.001 97.2455 53.098C96.8341 53.195 96.5854 53.6327 96.6898 54.0757Z" fill="white"/>
<path d="M96.8314 54.1631C96.8911 54.4162 97.119 54.5791 97.3405 54.5269C97.562 54.4746 97.6932 54.2271 97.6335 53.974C97.5738 53.7208 97.3458 53.558 97.1244 53.6102C96.9029 53.6624 96.7717 53.91 96.8314 54.1631Z" fill="#414141"/>
<path d="M96.9464 54.1361C96.9269 54.0534 96.9297 53.9714 96.9507 53.8982C96.9727 53.8213 97.0681 53.8246 97.1023 53.897C97.1601 54.0191 97.2139 54.1773 97.2092 54.3183C97.2069 54.3867 97.1318 54.4187 97.0816 54.3723C97.0179 54.3134 96.969 54.2319 96.9464 54.1361Z" fill="#C4C4C4"/>
<defs>
<filter id="filter0_f_4942_5471" x="79.3441" y="8.0482" width="46.6062" height="53.6502" filterUnits="userSpaceOnUse" color-interpolation-filters="sRGB">
<feFlood flood-opacity="0" result="BackgroundImageFix"/>
<feBlend mode="normal" in="SourceGraphic" in2="BackgroundImageFix" result="shape"/>
<feGaussianBlur stdDeviation="4.61067" result="effect1_foregroundBlur_4942_5471"/>
</filter>
<filter id="filter1_f_4942_5471" x="104.168" y="14.6403" width="18.7873" height="31.6232" filterUnits="userSpaceOnUse" color-interpolation-filters="sRGB">
<feFlood flood-opacity="0" result="BackgroundImageFix"/>
<feBlend mode="normal" in="SourceGraphic" in2="BackgroundImageFix" result="shape"/>
<feGaussianBlur stdDeviation="1.976" result="effect1_foregroundBlur_4942_5471"/>
</filter>
<filter id="filter2_f_4942_5471" x="100.892" y="9.35777" width="25.2644" height="33.7635" filterUnits="userSpaceOnUse" color-interpolation-filters="sRGB">
<feFlood flood-opacity="0" result="BackgroundImageFix"/>
<feBlend mode="normal" in="SourceGraphic" in2="BackgroundImageFix" result="shape"/>
<feGaussianBlur stdDeviation="4.61067" result="effect1_foregroundBlur_4942_5471"/>
</filter>
<filter id="filter3_f_4942_5471" x="100.383" y="28.9136" width="29.7281" height="37.2915" filterUnits="userSpaceOnUse" color-interpolation-filters="sRGB">
<feFlood flood-opacity="0" result="BackgroundImageFix"/>
<feBlend mode="normal" in="SourceGraphic" in2="BackgroundImageFix" result="shape"/>
<feGaussianBlur stdDeviation="6.25733" result="effect1_foregroundBlur_4942_5471"/>
</filter>
<filter id="filter4_f_4942_5471" x="116.653" y="22.8854" width="33.7732" height="44.8343" filterUnits="userSpaceOnUse" color-interpolation-filters="sRGB">
<feFlood flood-opacity="0" result="BackgroundImageFix"/>
<feBlend mode="normal" in="SourceGraphic" in2="BackgroundImageFix" result="shape"/>
<feGaussianBlur stdDeviation="7.904" result="effect1_foregroundBlur_4942_5471"/>
</filter>
<filter id="filter5_f_4942_5471" x="65.788" y="4.16493" width="52.3806" height="53.5066" filterUnits="userSpaceOnUse" color-interpolation-filters="sRGB">
<feFlood flood-opacity="0" result="BackgroundImageFix"/>
<feBlend mode="normal" in="SourceGraphic" in2="BackgroundImageFix" result="shape"/>
<feGaussianBlur stdDeviation="11.5267" result="effect1_foregroundBlur_4942_5471"/>
</filter>
<filter id="filter6_f_4942_5471" x="68.2514" y="0.402814" width="45.4903" height="43.0996" filterUnits="userSpaceOnUse" color-interpolation-filters="sRGB">
<feFlood flood-opacity="0" result="BackgroundImageFix"/>
<feBlend mode="normal" in="SourceGraphic" in2="BackgroundImageFix" result="shape"/>
<feGaussianBlur stdDeviation="6.25733" result="effect1_foregroundBlur_4942_5471"/>
</filter>
<filter id="filter7_f_4942_5471" x="114.055" y="11.3681" width="27.4405" height="34.2466" filterUnits="userSpaceOnUse" color-interpolation-filters="sRGB">
<feFlood flood-opacity="0" result="BackgroundImageFix"/>
<feBlend mode="normal" in="SourceGraphic" in2="BackgroundImageFix" result="shape"/>
<feGaussianBlur stdDeviation="6.25733" result="effect1_foregroundBlur_4942_5471"/>
</filter>
<filter id="filter8_f_4942_5471" x="91.0908" y="0.863751" width="37.1021" height="31.1143" filterUnits="userSpaceOnUse" color-interpolation-filters="sRGB">
<feFlood flood-opacity="0" result="BackgroundImageFix"/>
<feBlend mode="normal" in="SourceGraphic" in2="BackgroundImageFix" result="shape"/>
<feGaussianBlur stdDeviation="6.25733" result="effect1_foregroundBlur_4942_5471"/>
</filter>
<filter id="filter9_f_4942_5471" x="98.3126" y="7.36533" width="40.931" height="16.9231" filterUnits="userSpaceOnUse" color-interpolation-filters="sRGB">
<feFlood flood-opacity="0" result="BackgroundImageFix"/>
<feBlend mode="normal" in="SourceGraphic" in2="BackgroundImageFix" result="shape"/>
<feGaussianBlur stdDeviation="1.31733" result="effect1_foregroundBlur_4942_5471"/>
</filter>
<filter id="filter10_f_4942_5471" x="93.7594" y="9.92393" width="14.4529" height="6.71904" filterUnits="userSpaceOnUse" color-interpolation-filters="sRGB">
<feFlood flood-opacity="0" result="BackgroundImageFix"/>
<feBlend mode="normal" in="SourceGraphic" in2="BackgroundImageFix" result="shape"/>
<feGaussianBlur stdDeviation="1.31733" result="effect1_foregroundBlur_4942_5471"/>
</filter>
<filter id="filter11_f_4942_5471" x="95.047" y="8.38877" width="7.15752" height="5.8665" filterUnits="userSpaceOnUse" color-interpolation-filters="sRGB">
<feFlood flood-opacity="0" result="BackgroundImageFix"/>
<feBlend mode="normal" in="SourceGraphic" in2="BackgroundImageFix" result="shape"/>
<feGaussianBlur stdDeviation="1.31733" result="effect1_foregroundBlur_4942_5471"/>
</filter>
<filter id="filter12_f_4942_5471" x="92.7296" y="8.98594" width="7.24345" height="6.03691" filterUnits="userSpaceOnUse" color-interpolation-filters="sRGB">
<feFlood flood-opacity="0" result="BackgroundImageFix"/>
<feBlend mode="normal" in="SourceGraphic" in2="BackgroundImageFix" result="shape"/>
<feGaussianBlur stdDeviation="1.31733" result="effect1_foregroundBlur_4942_5471"/>
</filter>
<filter id="filter13_f_4942_5471" x="81.7438" y="12.3971" width="7.24345" height="6.03691" filterUnits="userSpaceOnUse" color-interpolation-filters="sRGB">
<feFlood flood-opacity="0" result="BackgroundImageFix"/>
<feBlend mode="normal" in="SourceGraphic" in2="BackgroundImageFix" result="shape"/>
<feGaussianBlur stdDeviation="1.31733" result="effect1_foregroundBlur_4942_5471"/>
</filter>
<filter id="filter14_f_4942_5471" x="82.6881" y="12.7384" width="7.24345" height="6.03691" filterUnits="userSpaceOnUse" color-interpolation-filters="sRGB">
<feFlood flood-opacity="0" result="BackgroundImageFix"/>
<feBlend mode="normal" in="SourceGraphic" in2="BackgroundImageFix" result="shape"/>
<feGaussianBlur stdDeviation="1.31733" result="effect1_foregroundBlur_4942_5471"/>
</filter>
<filter id="filter15_f_4942_5471" x="91.3565" y="9.2418" width="7.15752" height="5.95146" filterUnits="userSpaceOnUse" color-interpolation-filters="sRGB">
<feFlood flood-opacity="0" result="BackgroundImageFix"/>
<feBlend mode="normal" in="SourceGraphic" in2="BackgroundImageFix" result="shape"/>
<feGaussianBlur stdDeviation="1.31733" result="effect1_foregroundBlur_4942_5471"/>
</filter>
<filter id="filter16_f_4942_5471" x="82.774" y="20.2433" width="7.15752" height="5.8665" filterUnits="userSpaceOnUse" color-interpolation-filters="sRGB">
<feFlood flood-opacity="0" result="BackgroundImageFix"/>
<feBlend mode="normal" in="SourceGraphic" in2="BackgroundImageFix" result="shape"/>
<feGaussianBlur stdDeviation="1.31733" result="effect1_foregroundBlur_4942_5471"/>
</filter>
<filter id="filter17_f_4942_5471" x="96.42" y="12.0563" width="8.87383" height="6.03691" filterUnits="userSpaceOnUse" color-interpolation-filters="sRGB">
<feFlood flood-opacity="0" result="BackgroundImageFix"/>
<feBlend mode="normal" in="SourceGraphic" in2="BackgroundImageFix" result="shape"/>
<feGaussianBlur stdDeviation="1.31733" result="effect1_foregroundBlur_4942_5471"/>
</filter>
<filter id="filter18_f_4942_5471" x="94.2745" y="13.2501" width="7.15752" height="6.03691" filterUnits="userSpaceOnUse" color-interpolation-filters="sRGB">
<feFlood flood-opacity="0" result="BackgroundImageFix"/>
<feBlend mode="normal" in="SourceGraphic" in2="BackgroundImageFix" result="shape"/>
<feGaussianBlur stdDeviation="1.31733" result="effect1_foregroundBlur_4942_5471"/>
</filter>
<filter id="filter19_f_4942_5471" x="104.745" y="15.6383" width="8.10136" height="6.03691" filterUnits="userSpaceOnUse" color-interpolation-filters="sRGB">
<feFlood flood-opacity="0" result="BackgroundImageFix"/>
<feBlend mode="normal" in="SourceGraphic" in2="BackgroundImageFix" result="shape"/>
<feGaussianBlur stdDeviation="1.31733" result="effect1_foregroundBlur_4942_5471"/>
</filter>
<filter id="filter20_f_4942_5471" x="133.24" y="11.7149" width="8.95976" height="5.8665" filterUnits="userSpaceOnUse" color-interpolation-filters="sRGB">
<feFlood flood-opacity="0" result="BackgroundImageFix"/>
<feBlend mode="normal" in="SourceGraphic" in2="BackgroundImageFix" result="shape"/>
<feGaussianBlur stdDeviation="1.31733" result="effect1_foregroundBlur_4942_5471"/>
</filter>
<filter id="filter21_f_4942_5471" x="134.184" y="13.5909" width="8.6165" height="6.03691" filterUnits="userSpaceOnUse" color-interpolation-filters="sRGB">
<feFlood flood-opacity="0" result="BackgroundImageFix"/>
<feBlend mode="normal" in="SourceGraphic" in2="BackgroundImageFix" result="shape"/>
<feGaussianBlur stdDeviation="1.31733" result="effect1_foregroundBlur_4942_5471"/>
</filter>
<filter id="filter22_f_4942_5471" x="134.699" y="11.2032" width="8.78838" height="5.8665" filterUnits="userSpaceOnUse" color-interpolation-filters="sRGB">
<feFlood flood-opacity="0" result="BackgroundImageFix"/>
<feBlend mode="normal" in="SourceGraphic" in2="BackgroundImageFix" result="shape"/>
<feGaussianBlur stdDeviation="1.31733" result="effect1_foregroundBlur_4942_5471"/>
</filter>
<filter id="filter23_f_4942_5471" x="136.042" y="12.9513" width="8.44511" height="5.95146" filterUnits="userSpaceOnUse" color-interpolation-filters="sRGB">
<feFlood flood-opacity="0" result="BackgroundImageFix"/>
<feBlend mode="normal" in="SourceGraphic" in2="BackgroundImageFix" result="shape"/>
<feGaussianBlur stdDeviation="1.31733" result="effect1_foregroundBlur_4942_5471"/>
</filter>
<filter id="filter24_f_4942_5471" x="134.699" y="19.7315" width="8.27324" height="6.37822" filterUnits="userSpaceOnUse" color-interpolation-filters="sRGB">
<feFlood flood-opacity="0" result="BackgroundImageFix"/>
<feBlend mode="normal" in="SourceGraphic" in2="BackgroundImageFix" result="shape"/>
<feGaussianBlur stdDeviation="1.31733" result="effect1_foregroundBlur_4942_5471"/>
</filter>
<filter id="filter25_f_4942_5471" x="132.553" y="21.608" width="8.35918" height="5.95146" filterUnits="userSpaceOnUse" color-interpolation-filters="sRGB">
<feFlood flood-opacity="0" result="BackgroundImageFix"/>
<feBlend mode="normal" in="SourceGraphic" in2="BackgroundImageFix" result="shape"/>
<feGaussianBlur stdDeviation="1.31733" result="effect1_foregroundBlur_4942_5471"/>
</filter>
<filter id="filter26_f_4942_5471" x="132.811" y="24.1666" width="8.35918" height="6.12236" filterUnits="userSpaceOnUse" color-interpolation-filters="sRGB">
<feFlood flood-opacity="0" result="BackgroundImageFix"/>
<feBlend mode="normal" in="SourceGraphic" in2="BackgroundImageFix" result="shape"/>
<feGaussianBlur stdDeviation="1.31733" result="effect1_foregroundBlur_4942_5471"/>
</filter>
<filter id="filter27_f_4942_5471" x="137.016" y="10.6915" width="8.01592" height="5.95146" filterUnits="userSpaceOnUse" color-interpolation-filters="sRGB">
<feFlood flood-opacity="0" result="BackgroundImageFix"/>
<feBlend mode="normal" in="SourceGraphic" in2="BackgroundImageFix" result="shape"/>
<feGaussianBlur stdDeviation="1.31733" result="effect1_foregroundBlur_4942_5471"/>
</filter>
<filter id="filter28_f_4942_5471" x="137.703" y="12.568" width="7.67265" height="5.95146" filterUnits="userSpaceOnUse" color-interpolation-filters="sRGB">
<feFlood flood-opacity="0" result="BackgroundImageFix"/>
<feBlend mode="normal" in="SourceGraphic" in2="BackgroundImageFix" result="shape"/>
<feGaussianBlur stdDeviation="1.31733" result="effect1_foregroundBlur_4942_5471"/>
</filter>
<filter id="filter29_f_4942_5471" x="135.643" y="7.36533" width="11.0198" height="6.54863" filterUnits="userSpaceOnUse" color-interpolation-filters="sRGB">
<feFlood flood-opacity="0" result="BackgroundImageFix"/>
<feBlend mode="normal" in="SourceGraphic" in2="BackgroundImageFix" result="shape"/>
<feGaussianBlur stdDeviation="1.31733" result="effect1_foregroundBlur_4942_5471"/>
</filter>
<filter id="filter30_f_4942_5471" x="137.703" y="9.41221" width="7.67265" height="5.78105" filterUnits="userSpaceOnUse" color-interpolation-filters="sRGB">
<feFlood flood-opacity="0" result="BackgroundImageFix"/>
<feBlend mode="normal" in="SourceGraphic" in2="BackgroundImageFix" result="shape"/>
<feGaussianBlur stdDeviation="1.31733" result="effect1_foregroundBlur_4942_5471"/>
</filter>
<filter id="filter31_f_4942_5471" x="114.529" y="17.4293" width="9.4749" height="5.8665" filterUnits="userSpaceOnUse" color-interpolation-filters="sRGB">
<feFlood flood-opacity="0" result="BackgroundImageFix"/>
<feBlend mode="normal" in="SourceGraphic" in2="BackgroundImageFix" result="shape"/>
<feGaussianBlur stdDeviation="1.31733" result="effect1_foregroundBlur_4942_5471"/>
</filter>
<filter id="filter32_f_4942_5471" x="116.846" y="26.1671" width="9.15801" height="6.65605" filterUnits="userSpaceOnUse" color-interpolation-filters="sRGB">
<feFlood flood-opacity="0" result="BackgroundImageFix"/>
<feBlend mode="normal" in="SourceGraphic" in2="BackgroundImageFix" result="shape"/>
<feGaussianBlur stdDeviation="1.31733" result="effect1_foregroundBlur_4942_5471"/>
</filter>
<filter id="filter33_f_4942_5471" x="116.418" y="18.2818" width="11.2771" height="5.95146" filterUnits="userSpaceOnUse" color-interpolation-filters="sRGB">
<feFlood flood-opacity="0" result="BackgroundImageFix"/>
<feBlend mode="normal" in="SourceGraphic" in2="BackgroundImageFix" result="shape"/>
<feGaussianBlur stdDeviation="1.31733" result="effect1_foregroundBlur_4942_5471"/>
</filter>
<filter id="filter34_f_4942_5471" x="115.302" y="21.1817" width="11.2771" height="6.71904" filterUnits="userSpaceOnUse" color-interpolation-filters="sRGB">
<feFlood flood-opacity="0" result="BackgroundImageFix"/>
<feBlend mode="normal" in="SourceGraphic" in2="BackgroundImageFix" result="shape"/>
<feGaussianBlur stdDeviation="1.31733" result="effect1_foregroundBlur_4942_5471"/>
</filter>
<filter id="filter35_f_4942_5471" x="113.586" y="19.9874" width="7.84404" height="5.8665" filterUnits="userSpaceOnUse" color-interpolation-filters="sRGB">
<feFlood flood-opacity="0" result="BackgroundImageFix"/>
<feBlend mode="normal" in="SourceGraphic" in2="BackgroundImageFix" result="shape"/>
<feGaussianBlur stdDeviation="1.31733" result="effect1_foregroundBlur_4942_5471"/>
</filter>
<filter id="filter36_f_4942_5471" x="114.358" y="23.3136" width="9.30302" height="6.12236" filterUnits="userSpaceOnUse" color-interpolation-filters="sRGB">
<feFlood flood-opacity="0" result="BackgroundImageFix"/>
<feBlend mode="normal" in="SourceGraphic" in2="BackgroundImageFix" result="shape"/>
<feGaussianBlur stdDeviation="1.31733" result="effect1_foregroundBlur_4942_5471"/>
</filter>
<filter id="filter37_f_4942_5471" x="114.371" y="24.8766" width="9.29228" height="6.39726" filterUnits="userSpaceOnUse" color-interpolation-filters="sRGB">
<feFlood flood-opacity="0" result="BackgroundImageFix"/>
<feBlend mode="normal" in="SourceGraphic" in2="BackgroundImageFix" result="shape"/>
<feGaussianBlur stdDeviation="1.31733" result="effect1_foregroundBlur_4942_5471"/>
</filter>
<filter id="filter38_f_4942_5471" x="109.154" y="24.9957" width="8.28691" height="6.31914" filterUnits="userSpaceOnUse" color-interpolation-filters="sRGB">
<feFlood flood-opacity="0" result="BackgroundImageFix"/>
<feBlend mode="normal" in="SourceGraphic" in2="BackgroundImageFix" result="shape"/>
<feGaussianBlur stdDeviation="1.31733" result="effect1_foregroundBlur_4942_5471"/>
</filter>
<filter id="filter39_f_4942_5471" x="107.424" y="23.3756" width="10.013" height="6.23418" filterUnits="userSpaceOnUse" color-interpolation-filters="sRGB">
<feFlood flood-opacity="0" result="BackgroundImageFix"/>
<feBlend mode="normal" in="SourceGraphic" in2="BackgroundImageFix" result="shape"/>
<feGaussianBlur stdDeviation="1.31733" result="effect1_foregroundBlur_4942_5471"/>
</filter>
<filter id="filter40_f_4942_5471" x="109.097" y="19.548" width="8.55937" height="6.11504" filterUnits="userSpaceOnUse" color-interpolation-filters="sRGB">
<feFlood flood-opacity="0" result="BackgroundImageFix"/>
<feBlend mode="normal" in="SourceGraphic" in2="BackgroundImageFix" result="shape"/>
<feGaussianBlur stdDeviation="1.31733" result="effect1_foregroundBlur_4942_5471"/>
</filter>
<filter id="filter41_f_4942_5471" x="107.415" y="21.1842" width="6.78838" height="5.75517" filterUnits="userSpaceOnUse" color-interpolation-filters="sRGB">
<feFlood flood-opacity="0" result="BackgroundImageFix"/>
<feBlend mode="normal" in="SourceGraphic" in2="BackgroundImageFix" result="shape"/>
<feGaussianBlur stdDeviation="1.31733" result="effect1_foregroundBlur_4942_5471"/>
</filter>
<filter id="filter42_f_4942_5471" x="111.245" y="22.1524" width="7.93926" height="5.76103" filterUnits="userSpaceOnUse" color-interpolation-filters="sRGB">
<feFlood flood-opacity="0" result="BackgroundImageFix"/>
<feBlend mode="normal" in="SourceGraphic" in2="BackgroundImageFix" result="shape"/>
<feGaussianBlur stdDeviation="1.31733" result="effect1_foregroundBlur_4942_5471"/>
</filter>
<filter id="filter43_f_4942_5471" x="112.266" y="27.2945" width="7.43095" height="6.26738" filterUnits="userSpaceOnUse" color-interpolation-filters="sRGB">
<feFlood flood-opacity="0" result="BackgroundImageFix"/>
<feBlend mode="normal" in="SourceGraphic" in2="BackgroundImageFix" result="shape"/>
<feGaussianBlur stdDeviation="1.31733" result="effect1_foregroundBlur_4942_5471"/>
</filter>
<filter id="filter44_f_4942_5471" x="99.5665" y="26.0367" width="7.98027" height="6.22099" filterUnits="userSpaceOnUse" color-interpolation-filters="sRGB">
<feFlood flood-opacity="0" result="BackgroundImageFix"/>
<feBlend mode="normal" in="SourceGraphic" in2="BackgroundImageFix" result="shape"/>
<feGaussianBlur stdDeviation="1.31733" result="effect1_foregroundBlur_4942_5471"/>
</filter>
<filter id="filter45_f_4942_5471" x="101.188" y="24.7355" width="7.98027" height="6.22099" filterUnits="userSpaceOnUse" color-interpolation-filters="sRGB">
<feFlood flood-opacity="0" result="BackgroundImageFix"/>
<feBlend mode="normal" in="SourceGraphic" in2="BackgroundImageFix" result="shape"/>
<feGaussianBlur stdDeviation="1.31733" result="effect1_foregroundBlur_4942_5471"/>
</filter>
<filter id="filter46_f_4942_5471" x="99.5123" y="23.0738" width="8.8665" height="6.22099" filterUnits="userSpaceOnUse" color-interpolation-filters="sRGB">
<feFlood flood-opacity="0" result="BackgroundImageFix"/>
<feBlend mode="normal" in="SourceGraphic" in2="BackgroundImageFix" result="shape"/>
<feGaussianBlur stdDeviation="1.31733" result="effect1_foregroundBlur_4942_5471"/>
</filter>
<filter id="filter47_f_4942_5471" x="100.471" y="21.1744" width="9.81963" height="6.66631" filterUnits="userSpaceOnUse" color-interpolation-filters="sRGB">
<feFlood flood-opacity="0" result="BackgroundImageFix"/>
<feBlend mode="normal" in="SourceGraphic" in2="BackgroundImageFix" result="shape"/>
<feGaussianBlur stdDeviation="1.31733" result="effect1_foregroundBlur_4942_5471"/>
</filter>
<filter id="filter48_f_4942_5471" x="97.5982" y="20.2223" width="9.57597" height="6.35429" filterUnits="userSpaceOnUse" color-interpolation-filters="sRGB">
<feFlood flood-opacity="0" result="BackgroundImageFix"/>
<feBlend mode="normal" in="SourceGraphic" in2="BackgroundImageFix" result="shape"/>
<feGaussianBlur stdDeviation="1.31733" result="effect1_foregroundBlur_4942_5471"/>
</filter>
<filter id="filter49_f_4942_5471" x="93.0514" y="18.5641" width="10.3738" height="7.06084" filterUnits="userSpaceOnUse" color-interpolation-filters="sRGB">
<feFlood flood-opacity="0" result="BackgroundImageFix"/>
<feBlend mode="normal" in="SourceGraphic" in2="BackgroundImageFix" result="shape"/>
<feGaussianBlur stdDeviation="1.31733" result="effect1_foregroundBlur_4942_5471"/>
</filter>
<filter id="filter50_f_4942_5471" x="97.837" y="24.4962" width="7.51494" height="6.22099" filterUnits="userSpaceOnUse" color-interpolation-filters="sRGB">
<feFlood flood-opacity="0" result="BackgroundImageFix"/>
<feBlend mode="normal" in="SourceGraphic" in2="BackgroundImageFix" result="shape"/>
<feGaussianBlur stdDeviation="1.31733" result="effect1_foregroundBlur_4942_5471"/>
</filter>
<filter id="filter51_f_4942_5471" x="46.5903" y="7.12105" width="40.4991" height="30.6837" filterUnits="userSpaceOnUse" color-interpolation-filters="sRGB">
<feFlood flood-opacity="0" result="BackgroundImageFix"/>
<feBlend mode="normal" in="SourceGraphic" in2="BackgroundImageFix" result="shape"/>
<feGaussianBlur stdDeviation="5.928" result="effect1_foregroundBlur_4942_5471"/>
</filter>
<filter id="filter52_i_4942_5471" x="52.5186" y="44.1533" width="1.44727" height="1.18457" filterUnits="userSpaceOnUse" color-interpolation-filters="sRGB">
<feFlood flood-opacity="0" result="BackgroundImageFix"/>
<feBlend mode="normal" in="SourceGraphic" in2="BackgroundImageFix" result="shape"/>
<feColorMatrix in="SourceAlpha" type="matrix" values="0 0 0 0 0 0 0 0 0 0 0 0 0 0 0 0 0 0 127 0" result="hardAlpha"/>
<feOffset/>
<feGaussianBlur stdDeviation="1.64667"/>
<feComposite in2="hardAlpha" operator="arithmetic" k2="-1" k3="1"/>
<feColorMatrix type="matrix" values="0 0 0 0 1 0 0 0 0 1 0 0 0 0 1 0 0 0 1 0"/>
<feBlend mode="normal" in2="shape" result="effect1_innerShadow_4942_5471"/>
</filter>
<filter id="filter53_i_4942_5471" x="46.978" y="37.5537" width="6.18457" height="4.47119" filterUnits="userSpaceOnUse" color-interpolation-filters="sRGB">
<feFlood flood-opacity="0" result="BackgroundImageFix"/>
<feBlend mode="normal" in="SourceGraphic" in2="BackgroundImageFix" result="shape"/>
<feColorMatrix in="SourceAlpha" type="matrix" values="0 0 0 0 0 0 0 0 0 0 0 0 0 0 0 0 0 0 127 0" result="hardAlpha"/>
<feOffset/>
<feGaussianBlur stdDeviation="0.988"/>
<feComposite in2="hardAlpha" operator="arithmetic" k2="-1" k3="1"/>
<feColorMatrix type="matrix" values="0 0 0 0 1 0 0 0 0 1 0 0 0 0 1 0 0 0 1 0"/>
<feBlend mode="normal" in2="shape" result="effect1_innerShadow_4942_5471"/>
</filter>
<linearGradient id="paint0_linear_4942_5471" x1="76" y1="79" x2="117" y2="-49.5" gradientUnits="userSpaceOnUse">
<stop stop-color="#41CBEE"/>
<stop offset="1" stop-color="#41CBEE" stop-opacity="0"/>
</linearGradient>
<linearGradient id="paint1_linear_4942_5471" x1="116.744" y1="17.0283" x2="87.8894" y2="53.843" gradientUnits="userSpaceOnUse">
<stop stop-color="#C1FDFF"/>
<stop offset="1" stop-color="#9BF1F4" stop-opacity="0.27"/>
</linearGradient>
<linearGradient id="paint2_linear_4942_5471" x1="119.007" y1="18.0344" x2="107.765" y2="43.6715" gradientUnits="userSpaceOnUse">
<stop stop-color="#DFF5F7"/>
<stop offset="1" stop-color="#9BF1F4" stop-opacity="0.27"/>
</linearGradient>
<linearGradient id="paint3_linear_4942_5471" x1="116.399" y1="18.5325" x2="110.187" y2="34.2305" gradientUnits="userSpaceOnUse">
<stop offset="0.119462" stop-color="#CBFBFD"/>
<stop offset="1" stop-color="#E5FEFF" stop-opacity="0"/>
</linearGradient>
<linearGradient id="paint4_linear_4942_5471" x1="117.508" y1="41.1933" x2="112.866" y2="54.3495" gradientUnits="userSpaceOnUse">
<stop stop-color="#9BF1F4"/>
<stop offset="1" stop-color="#9BF1F4" stop-opacity="0.81"/>
</linearGradient>
<linearGradient id="paint5_linear_4942_5471" x1="132.944" y1="38.5733" x2="134.666" y2="52.4089" gradientUnits="userSpaceOnUse">
<stop stop-color="#9BF1F4"/>
<stop offset="1" stop-color="#9BF1F4" stop-opacity="0.81"/>
</linearGradient>
<linearGradient id="paint6_linear_4942_5471" x1="94.7023" y1="27.2922" x2="89.3754" y2="34.9714" gradientUnits="userSpaceOnUse">
<stop stop-color="#9BF1F4"/>
<stop offset="1" stop-color="#9BF1F4" stop-opacity="0.81"/>
</linearGradient>
<linearGradient id="paint7_linear_4942_5471" x1="101.413" y1="12.7703" x2="79.9543" y2="32.1561" gradientUnits="userSpaceOnUse">
<stop stop-color="#C4FAFC"/>
<stop offset="1" stop-color="#9BF1F4" stop-opacity="0.81"/>
</linearGradient>
<linearGradient id="paint8_linear_4942_5471" x1="128.516" y1="23.8341" x2="126.825" y2="33.3989" gradientUnits="userSpaceOnUse">
<stop stop-color="#9BF1F4"/>
<stop offset="1" stop-color="#9BF1F4" stop-opacity="0.81"/>
</linearGradient>
<linearGradient id="paint9_linear_4942_5471" x1="115.758" y1="13.5031" x2="103.254" y2="19.8258" gradientUnits="userSpaceOnUse">
<stop stop-color="#9BF1F4"/>
<stop offset="1" stop-color="#9BF1F4" stop-opacity="0.81"/>
</linearGradient>
<linearGradient id="paint10_linear_4942_5471" x1="80.3729" y1="15.1338" x2="56.3817" y2="29.6484" gradientUnits="userSpaceOnUse">
<stop stop-color="#BAF8FA"/>
<stop offset="0.320833" stop-color="#89EFF4"/>
</linearGradient>
<linearGradient id="paint11_linear_4942_5471" x1="27.0339" y1="27.2625" x2="44.6229" y2="55.17" gradientUnits="userSpaceOnUse">
<stop stop-color="#232323"/>
<stop offset="1" stop-color="#343434"/>
</linearGradient>
<linearGradient id="paint12_linear_4942_5471" x1="28.1101" y1="42.6417" x2="34.7044" y2="44.5263" gradientUnits="userSpaceOnUse">
<stop stop-color="#2B2B2B"/>
<stop offset="1" stop-color="#343434"/>
</linearGradient>
<linearGradient id="paint13_linear_4942_5471" x1="32.1488" y1="53.3699" x2="37.4116" y2="46.6921" gradientUnits="userSpaceOnUse">
<stop stop-color="#646464"/>
<stop offset="1" stop-color="#343434"/>
</linearGradient>
<linearGradient id="paint14_linear_4942_5471" x1="104.108" y1="51.3591" x2="108.786" y2="51.6216" gradientUnits="userSpaceOnUse">
<stop stop-color="#FE7B1C"/>
<stop offset="1" stop-color="#FE7B1C"/>
</linearGradient>
<linearGradient id="paint15_linear_4942_5471" x1="96.7756" y1="53.285" x2="108.224" y2="52.5019" gradientUnits="userSpaceOnUse">
<stop stop-color="#FF8D3A"/>
<stop offset="0.450423" stop-color="#FE7B1C"/>
</linearGradient>
<linearGradient id="paint16_linear_4942_5471" x1="100.919" y1="54.049" x2="99.0358" y2="54.4621" gradientUnits="userSpaceOnUse">
<stop offset="0.522332" stop-color="#FF7C1C"/>
<stop offset="0.81243" stop-color="#FF8D3A"/>
</linearGradient>
</defs>
</svg>
