<svg width="156" height="73" viewBox="0 0 156 73" fill="none" xmlns="http://www.w3.org/2000/svg">
<rect x="0.5" y="11.5" width="151" height="61" rx="14.5" fill="url(#paint0_linear_4942_5433)" stroke="#FF5F8F"/>
<path d="M123.007 62.7123L91.3375 62.0913L81.7123 62.7123L106.707 63.4885L123.007 62.7123Z" fill="url(#paint1_linear_4942_5433)"/>
<path d="M110.85 59.9043L93.8879 62.9139L71.0004 64.3266L127.975 64.7303L114.485 62.7845C112.843 62.5478 111.456 61.4481 110.85 59.9043V59.9043Z" fill="url(#paint2_linear_4942_5433)"/>
<path fill-rule="evenodd" clip-rule="evenodd" d="M102.343 62.8787C103.254 63.8233 104.593 64.4199 106.085 64.4199C108.829 64.4199 111.053 62.4043 111.053 59.9178C111.053 58.4299 110.257 57.1105 109.029 56.2908C108.471 54.3579 106.531 52.9317 104.223 52.9317C102.918 52.9317 101.732 53.3872 100.845 54.1322C100.292 52.8819 98.954 52.0002 97.3915 52.0002C95.4344 52.0002 93.8298 53.3834 93.6775 55.1415C93.4703 55.1176 93.2592 55.1053 93.0449 55.1053C90.3013 55.1053 88.0771 57.121 88.0771 59.6074C88.0771 62.0939 90.3013 64.1095 93.0449 64.1095C93.5871 64.1095 94.109 64.0308 94.5975 63.8853C95.0859 64.0308 95.6078 64.1095 96.15 64.1095C97.4192 64.1095 98.5772 63.6782 99.4553 62.9685C99.6703 62.9587 99.8946 62.9451 100.127 62.931C100.632 62.9003 101.174 62.8674 101.738 62.8674C101.943 62.8674 102.145 62.8717 102.343 62.8787Z" fill="white"/>
<g filter="url(#filter0_f_4942_5433)">
<path d="M88.0771 59.6076C88.0771 59.6076 90.3012 56.1922 93.0449 56.1922C95.7885 56.1922 98.0127 59.6076 98.0127 59.6076C98.0127 57.1211 95.7885 55.1055 93.0449 55.1055C90.3012 55.1055 88.0771 57.1211 88.0771 59.6076Z" fill="#C4C4C4" fill-opacity="0.1"/>
</g>
<g filter="url(#filter1_f_4942_5433)">
<path d="M93.6664 55.4154C93.6664 55.4154 95.3346 52.7762 97.3923 52.7762C99.45 52.7762 101.118 55.4154 101.118 55.4154C101.118 53.5291 99.45 52 97.3923 52C95.3346 52 93.6664 53.5291 93.6664 55.4154Z" fill="black" fill-opacity="0.1"/>
</g>
<g filter="url(#filter2_f_4942_5433)">
<path d="M110.122 59.4519C110.122 61.9383 103.342 64.4197 106.085 64.4197C108.829 64.4197 111.053 62.404 111.053 59.9176C111.053 57.4312 108.829 55.4155 106.085 55.4155C106.085 55.4155 110.122 56.9654 110.122 59.4519Z" fill="black" fill-opacity="0.1"/>
</g>
<g filter="url(#filter3_f_4942_5433)">
<path d="M99.2548 57.4337C99.2548 57.4337 101.479 54.0184 104.223 54.0184C106.966 54.0184 109.19 57.4337 109.19 57.4337C109.19 54.9473 106.966 52.9316 104.223 52.9316C101.479 52.9316 99.2548 54.9473 99.2548 57.4337Z" fill="black" fill-opacity="0.1"/>
</g>
<g filter="url(#filter4_f_4942_5433)">
<path d="M109.191 60.0732L111.053 62.2467L112.207 63.544C112.23 63.5708 112.274 63.5484 112.266 63.5135L112.239 63.3899C111.89 61.8184 110.727 60.5534 109.191 60.0732V60.0732Z" fill="url(#paint3_linear_4942_5433)" fill-opacity="0.1"/>
</g>
<g filter="url(#filter5_f_4942_5433)">
<path d="M112.328 62.9791L96.6005 62.8677L71.0005 64.3166L117.016 64.7229C117.424 64.7265 117.7 64.3085 117.537 63.9345V63.9345L112.328 62.9791Z" fill="url(#paint4_linear_4942_5433)" fill-opacity="0.1"/>
</g>
<path fill-rule="evenodd" clip-rule="evenodd" d="M51.1146 37.1093C50.1846 38.0738 48.8173 38.6831 47.2929 38.6831C44.4911 38.6831 42.2197 36.6247 42.2197 34.0855C42.2197 32.5659 43.0333 31.2185 44.2872 30.3814C44.8573 28.4077 46.8387 26.9514 49.1953 26.9514C50.527 26.9514 51.7389 27.4164 52.644 28.177C53.2093 26.9004 54.5754 26.0002 56.1709 26.0002C58.1695 26.0002 59.8081 27.4126 59.9637 29.2079C60.1754 29.1835 60.391 29.1709 60.61 29.1709C63.4118 29.1709 65.6831 31.2293 65.6831 33.7685C65.6831 36.3076 63.4118 38.366 60.61 38.366C60.0563 38.366 59.5234 38.2857 59.0246 38.1371C58.5258 38.2857 57.9929 38.366 57.4392 38.366C56.1433 38.366 54.9608 37.9256 54.0641 37.201C53.8443 37.191 53.6151 37.1771 53.378 37.1627L53.378 37.1627C52.8618 37.1314 52.3081 37.0977 51.7319 37.0977C51.5229 37.0977 51.3169 37.1022 51.1146 37.1093Z" fill="white"/>
<g filter="url(#filter6_f_4942_5433)">
<path d="M65.683 33.7685C65.683 33.7685 63.4116 30.2807 60.6098 30.2807C57.808 30.2807 55.5366 33.7685 55.5366 33.7685C55.5366 31.2293 57.808 29.1709 60.6098 29.1709C63.4116 29.1709 65.683 31.2293 65.683 33.7685Z" fill="#C4C4C4" fill-opacity="0.1"/>
</g>
<g filter="url(#filter7_f_4942_5433)">
<path d="M59.9755 29.4878C59.9755 29.4878 58.272 26.7927 56.1706 26.7927C54.0692 26.7927 52.3657 29.4878 52.3657 29.4878C52.3657 27.5615 54.0692 26 56.1706 26C58.272 26 59.9755 27.5615 59.9755 29.4878Z" fill="black" fill-opacity="0.1"/>
</g>
<g filter="url(#filter8_f_4942_5433)">
<path d="M43.1709 33.6097C43.1709 36.1489 50.0947 38.6829 47.2929 38.6829C44.4911 38.6829 42.2197 36.6245 42.2197 34.0854C42.2197 31.5462 44.4911 29.4878 47.2929 29.4878C47.2929 29.4878 43.1709 31.0706 43.1709 33.6097Z" fill="black" fill-opacity="0.1"/>
</g>
<g filter="url(#filter9_f_4942_5433)">
<path d="M54.2684 31.5487C54.2684 31.5487 51.9971 28.0609 49.1952 28.0609C46.3934 28.0609 44.1221 31.5487 44.1221 31.5487C44.1221 29.0096 46.3934 26.9512 49.1952 26.9512C51.9971 26.9512 54.2684 29.0096 54.2684 31.5487Z" fill="black" fill-opacity="0.1"/>
</g>
<path d="M43.9634 33.6099L59.7491 37.1452L83.122 38.5879L41.0764 38.9898C40.5442 38.9949 40.1613 38.4803 40.319 37.9721L40.6391 36.9407C41.1323 35.3515 42.3752 34.1062 43.9634 33.6099V33.6099Z" fill="url(#paint5_linear_4942_5433)"/>
<g filter="url(#filter10_f_4942_5433)">
<path d="M43.9632 33.6099L42.0608 35.8294L40.8831 37.1543C40.8588 37.1816 40.8141 37.1587 40.8221 37.1231L40.8501 36.9968C41.2068 35.392 42.3941 34.1002 43.9632 33.6099V33.6099Z" fill="url(#paint6_linear_4942_5433)" fill-opacity="0.1"/>
</g>
<path d="M48.2441 34.561L63.9393 36.3049L73.7685 36.9391L61.7198 37.5732L48.2441 37.7318V34.561Z" fill="url(#paint7_linear_4942_5433)"/>
<g filter="url(#filter11_f_4942_5433)">
<path d="M45.3901 37.256L59.749 37.145L83.1218 38.5877L41.1706 38.9917C40.7636 38.9956 40.4828 38.5852 40.634 38.2072V38.2072L45.3901 37.256Z" fill="url(#paint8_linear_4942_5433)" fill-opacity="0.1"/>
</g>
<g filter="url(#filter12_if_4942_5433)">
<circle cx="123" cy="33" r="9" fill="url(#paint9_radial_4942_5433)"/>
</g>
<g filter="url(#filter13_ii_4942_5433)">
<circle cx="123" cy="33" r="9" fill="#FFCF54"/>
</g>
<path d="M21.1853 56.976H27.1133L21.2863 60.5229C20.1308 61.2263 18.8574 61.7144 17.5278 61.9637L9 63.5627L15.2573 59.2813L9.988 55L21.1853 56.976Z" fill="white"/>
<defs>
<filter id="filter0_f_4942_5433" x="85.4425" y="52.4708" width="15.2049" height="9.77129" filterUnits="userSpaceOnUse" color-interpolation-filters="sRGB">
<feFlood flood-opacity="0" result="BackgroundImageFix"/>
<feBlend mode="normal" in="SourceGraphic" in2="BackgroundImageFix" result="shape"/>
<feGaussianBlur stdDeviation="1.31733" result="effect1_foregroundBlur_4942_5433"/>
</filter>
<filter id="filter1_f_4942_5433" x="91.0318" y="49.3653" width="12.721" height="8.68486" filterUnits="userSpaceOnUse" color-interpolation-filters="sRGB">
<feFlood flood-opacity="0" result="BackgroundImageFix"/>
<feBlend mode="normal" in="SourceGraphic" in2="BackgroundImageFix" result="shape"/>
<feGaussianBlur stdDeviation="1.31733" result="effect1_foregroundBlur_4942_5433"/>
</filter>
<filter id="filter2_f_4942_5433" x="102.797" y="52.7809" width="10.8909" height="14.2737" filterUnits="userSpaceOnUse" color-interpolation-filters="sRGB">
<feFlood flood-opacity="0" result="BackgroundImageFix"/>
<feBlend mode="normal" in="SourceGraphic" in2="BackgroundImageFix" result="shape"/>
<feGaussianBlur stdDeviation="1.31733" result="effect1_foregroundBlur_4942_5433"/>
</filter>
<filter id="filter3_f_4942_5433" x="96.6202" y="50.297" width="15.2049" height="9.77129" filterUnits="userSpaceOnUse" color-interpolation-filters="sRGB">
<feFlood flood-opacity="0" result="BackgroundImageFix"/>
<feBlend mode="normal" in="SourceGraphic" in2="BackgroundImageFix" result="shape"/>
<feGaussianBlur stdDeviation="1.31733" result="effect1_foregroundBlur_4942_5433"/>
</filter>
<filter id="filter4_f_4942_5433" x="107.873" y="58.7559" width="5.71181" height="6.11709" filterUnits="userSpaceOnUse" color-interpolation-filters="sRGB">
<feFlood flood-opacity="0" result="BackgroundImageFix"/>
<feBlend mode="normal" in="SourceGraphic" in2="BackgroundImageFix" result="shape"/>
<feGaussianBlur stdDeviation="0.658667" result="effect1_foregroundBlur_4942_5433"/>
</filter>
<filter id="filter5_f_4942_5433" x="69.6832" y="61.5503" width="49.2187" height="4.49013" filterUnits="userSpaceOnUse" color-interpolation-filters="sRGB">
<feFlood flood-opacity="0" result="BackgroundImageFix"/>
<feBlend mode="normal" in="SourceGraphic" in2="BackgroundImageFix" result="shape"/>
<feGaussianBlur stdDeviation="0.658667" result="effect1_foregroundBlur_4942_5433"/>
</filter>
<filter id="filter6_f_4942_5433" x="51.5366" y="25.1709" width="18.1465" height="12.5977" filterUnits="userSpaceOnUse" color-interpolation-filters="sRGB">
<feFlood flood-opacity="0" result="BackgroundImageFix"/>
<feBlend mode="normal" in="SourceGraphic" in2="BackgroundImageFix" result="shape"/>
<feGaussianBlur stdDeviation="2" result="effect1_foregroundBlur_4942_5433"/>
</filter>
<filter id="filter7_f_4942_5433" x="48.3657" y="22" width="15.6099" height="11.4878" filterUnits="userSpaceOnUse" color-interpolation-filters="sRGB">
<feFlood flood-opacity="0" result="BackgroundImageFix"/>
<feBlend mode="normal" in="SourceGraphic" in2="BackgroundImageFix" result="shape"/>
<feGaussianBlur stdDeviation="2" result="effect1_foregroundBlur_4942_5433"/>
</filter>
<filter id="filter8_f_4942_5433" x="38.2197" y="25.4878" width="13.7407" height="17.1953" filterUnits="userSpaceOnUse" color-interpolation-filters="sRGB">
<feFlood flood-opacity="0" result="BackgroundImageFix"/>
<feBlend mode="normal" in="SourceGraphic" in2="BackgroundImageFix" result="shape"/>
<feGaussianBlur stdDeviation="2" result="effect1_foregroundBlur_4942_5433"/>
</filter>
<filter id="filter9_f_4942_5433" x="40.1221" y="22.9512" width="18.1465" height="12.5977" filterUnits="userSpaceOnUse" color-interpolation-filters="sRGB">
<feFlood flood-opacity="0" result="BackgroundImageFix"/>
<feBlend mode="normal" in="SourceGraphic" in2="BackgroundImageFix" result="shape"/>
<feGaussianBlur stdDeviation="2" result="effect1_foregroundBlur_4942_5433"/>
</filter>
<filter id="filter10_f_4942_5433" x="38.8213" y="31.6099" width="7.14209" height="7.55664" filterUnits="userSpaceOnUse" color-interpolation-filters="sRGB">
<feFlood flood-opacity="0" result="BackgroundImageFix"/>
<feBlend mode="normal" in="SourceGraphic" in2="BackgroundImageFix" result="shape"/>
<feGaussianBlur stdDeviation="1" result="effect1_foregroundBlur_4942_5433"/>
</filter>
<filter id="filter11_f_4942_5433" x="38.5923" y="35.145" width="46.5293" height="5.84668" filterUnits="userSpaceOnUse" color-interpolation-filters="sRGB">
<feFlood flood-opacity="0" result="BackgroundImageFix"/>
<feBlend mode="normal" in="SourceGraphic" in2="BackgroundImageFix" result="shape"/>
<feGaussianBlur stdDeviation="1" result="effect1_foregroundBlur_4942_5433"/>
</filter>
<filter id="filter12_if_4942_5433" x="90.9467" y="0.946669" width="64.1067" height="64.1067" filterUnits="userSpaceOnUse" color-interpolation-filters="sRGB">
<feFlood flood-opacity="0" result="BackgroundImageFix"/>
<feBlend mode="normal" in="SourceGraphic" in2="BackgroundImageFix" result="shape"/>
<feColorMatrix in="SourceAlpha" type="matrix" values="0 0 0 0 0 0 0 0 0 0 0 0 0 0 0 0 0 0 127 0" result="hardAlpha"/>
<feOffset dx="1.31733" dy="1.31733"/>
<feGaussianBlur stdDeviation="1.31733"/>
<feComposite in2="hardAlpha" operator="arithmetic" k2="-1" k3="1"/>
<feColorMatrix type="matrix" values="0 0 0 0 0 0 0 0 0 0 0 0 0 0 0 0 0 0 0.25 0"/>
<feBlend mode="normal" in2="shape" result="effect1_innerShadow_4942_5433"/>
<feGaussianBlur stdDeviation="11.5267" result="effect2_foregroundBlur_4942_5433"/>
</filter>
<filter id="filter13_ii_4942_5433" x="112.683" y="22.6827" width="20.6347" height="20.6347" filterUnits="userSpaceOnUse" color-interpolation-filters="sRGB">
<feFlood flood-opacity="0" result="BackgroundImageFix"/>
<feBlend mode="normal" in="SourceGraphic" in2="BackgroundImageFix" result="shape"/>
<feColorMatrix in="SourceAlpha" type="matrix" values="0 0 0 0 0 0 0 0 0 0 0 0 0 0 0 0 0 0 127 0" result="hardAlpha"/>
<feOffset dx="1.31733" dy="1.31733"/>
<feGaussianBlur stdDeviation="1.31733"/>
<feComposite in2="hardAlpha" operator="arithmetic" k2="-1" k3="1"/>
<feColorMatrix type="matrix" values="0 0 0 0 1 0 0 0 0 1 0 0 0 0 1 0 0 0 0.2 0"/>
<feBlend mode="normal" in2="shape" result="effect1_innerShadow_4942_5433"/>
<feColorMatrix in="SourceAlpha" type="matrix" values="0 0 0 0 0 0 0 0 0 0 0 0 0 0 0 0 0 0 127 0" result="hardAlpha"/>
<feOffset dx="-1.31733" dy="-1.31733"/>
<feGaussianBlur stdDeviation="1.31733"/>
<feComposite in2="hardAlpha" operator="arithmetic" k2="-1" k3="1"/>
<feColorMatrix type="matrix" values="0 0 0 0 0 0 0 0 0 0 0 0 0 0 0 0 0 0 0.05 0"/>
<feBlend mode="normal" in2="effect1_innerShadow_4942_5433" result="effect2_innerShadow_4942_5433"/>
</filter>
<linearGradient id="paint0_linear_4942_5433" x1="76" y1="12" x2="76" y2="108" gradientUnits="userSpaceOnUse">
<stop stop-color="#99D8FF"/>
<stop offset="1" stop-color="#99D8FF" stop-opacity="0"/>
</linearGradient>
<linearGradient id="paint1_linear_4942_5433" x1="101.428" y1="62.8677" x2="52.5264" y2="64.2649" gradientUnits="userSpaceOnUse">
<stop offset="0.263196" stop-color="white"/>
<stop offset="1" stop-color="white" stop-opacity="0"/>
</linearGradient>
<linearGradient id="paint2_linear_4942_5433" x1="105.158" y1="63.9227" x2="50.5288" y2="65.2637" gradientUnits="userSpaceOnUse">
<stop offset="0.263196" stop-color="white"/>
<stop offset="1" stop-color="white" stop-opacity="0"/>
</linearGradient>
<linearGradient id="paint3_linear_4942_5433" x1="105.003" y1="64.5443" x2="50.3735" y2="65.8852" gradientUnits="userSpaceOnUse">
<stop offset="0.263196"/>
<stop offset="1" stop-color="white" stop-opacity="0"/>
</linearGradient>
<linearGradient id="paint4_linear_4942_5433" x1="109.207" y1="63.9026" x2="48.1095" y2="65.5382" gradientUnits="userSpaceOnUse">
<stop offset="0.263196"/>
<stop offset="1" stop-color="white" stop-opacity="0"/>
</linearGradient>
<linearGradient id="paint5_linear_4942_5433" x1="48.2398" y1="38.1757" x2="104.028" y2="39.5451" gradientUnits="userSpaceOnUse">
<stop offset="0.263196" stop-color="white"/>
<stop offset="1" stop-color="white" stop-opacity="0"/>
</linearGradient>
<linearGradient id="paint6_linear_4942_5433" x1="48.2396" y1="38.1757" x2="104.028" y2="39.5451" gradientUnits="userSpaceOnUse">
<stop offset="0.263196"/>
<stop offset="1" stop-color="white" stop-opacity="0"/>
</linearGradient>
<linearGradient id="paint7_linear_4942_5433" x1="53.6344" y1="37.0976" x2="103.573" y2="38.5244" gradientUnits="userSpaceOnUse">
<stop offset="0.263196" stop-color="white"/>
<stop offset="1" stop-color="white" stop-opacity="0"/>
</linearGradient>
<linearGradient id="paint8_linear_4942_5433" x1="48.2396" y1="38.1755" x2="104.028" y2="39.5449" gradientUnits="userSpaceOnUse">
<stop offset="0.263196"/>
<stop offset="1" stop-color="white" stop-opacity="0"/>
</linearGradient>
<radialGradient id="paint9_radial_4942_5433" cx="0" cy="0" r="1" gradientUnits="userSpaceOnUse" gradientTransform="translate(123 33) rotate(90) scale(18)">
<stop stop-color="#FFBC3A"/>
<stop offset="1" stop-color="#FFCF54" stop-opacity="0"/>
</radialGradient>
</defs>
</svg>
