<svg width="155" height="72" viewBox="0 0 155 72" fill="none" xmlns="http://www.w3.org/2000/svg">
<rect y="12" width="150" height="60" rx="14" fill="url(#paint0_linear_4897_5282)"/>
<path d="M122.007 62.7123L90.3375 62.0913L80.7123 62.7123L105.707 63.4885L122.007 62.7123Z" fill="url(#paint1_linear_4897_5282)"/>
<path d="M109.85 59.9043L92.8879 62.9139L70.0004 64.3266L126.975 64.7303L113.485 62.7845C111.843 62.5478 110.456 61.4481 109.85 59.9043V59.9043Z" fill="url(#paint2_linear_4897_5282)"/>
<path fill-rule="evenodd" clip-rule="evenodd" d="M101.343 62.8787C102.254 63.8233 103.593 64.4199 105.085 64.4199C107.829 64.4199 110.053 62.4043 110.053 59.9178C110.053 58.4299 109.257 57.1105 108.029 56.2908C107.471 54.3579 105.531 52.9317 103.223 52.9317C101.918 52.9317 100.732 53.3872 99.8453 54.1322C99.2919 52.8819 97.954 52.0002 96.3915 52.0002C94.4344 52.0002 92.8298 53.3834 92.6775 55.1415C92.4703 55.1176 92.2592 55.1053 92.0449 55.1053C89.3013 55.1053 87.0771 57.121 87.0771 59.6074C87.0771 62.0939 89.3013 64.1095 92.0449 64.1095C92.5871 64.1095 93.109 64.0308 93.5975 63.8853C94.0859 64.0308 94.6078 64.1095 95.15 64.1095C96.4192 64.1095 97.5772 63.6782 98.4553 62.9685C98.6703 62.9587 98.8946 62.9451 99.1265 62.931C99.632 62.9003 100.174 62.8674 100.738 62.8674C100.943 62.8674 101.145 62.8717 101.343 62.8787Z" fill="white"/>
<g filter="url(#filter0_f_4897_5282)">
<path d="M87.0771 59.6076C87.0771 59.6076 89.3012 56.1922 92.0449 56.1922C94.7885 56.1922 97.0127 59.6076 97.0127 59.6076C97.0127 57.1211 94.7885 55.1055 92.0449 55.1055C89.3012 55.1055 87.0771 57.1211 87.0771 59.6076Z" fill="#C4C4C4" fill-opacity="0.1"/>
</g>
<g filter="url(#filter1_f_4897_5282)">
<path d="M92.6664 55.4154C92.6664 55.4154 94.3346 52.7762 96.3923 52.7762C98.45 52.7762 100.118 55.4154 100.118 55.4154C100.118 53.5291 98.45 52 96.3923 52C94.3346 52 92.6664 53.5291 92.6664 55.4154Z" fill="black" fill-opacity="0.1"/>
</g>
<g filter="url(#filter2_f_4897_5282)">
<path d="M109.122 59.4519C109.122 61.9383 102.342 64.4197 105.085 64.4197C107.829 64.4197 110.053 62.404 110.053 59.9176C110.053 57.4312 107.829 55.4155 105.085 55.4155C105.085 55.4155 109.122 56.9654 109.122 59.4519Z" fill="black" fill-opacity="0.1"/>
</g>
<g filter="url(#filter3_f_4897_5282)">
<path d="M98.2548 57.4337C98.2548 57.4337 100.479 54.0184 103.223 54.0184C105.966 54.0184 108.19 57.4337 108.19 57.4337C108.19 54.9473 105.966 52.9316 103.223 52.9316C100.479 52.9316 98.2548 54.9473 98.2548 57.4337Z" fill="black" fill-opacity="0.1"/>
</g>
<g filter="url(#filter4_f_4897_5282)">
<path d="M108.191 60.0732L110.053 62.2467L111.207 63.544C111.23 63.5708 111.274 63.5484 111.266 63.5135L111.239 63.3899C110.89 61.8184 109.727 60.5534 108.191 60.0732V60.0732Z" fill="url(#paint3_linear_4897_5282)" fill-opacity="0.1"/>
</g>
<g filter="url(#filter5_f_4897_5282)">
<path d="M111.328 62.9791L95.6005 62.8677L70.0005 64.3166L116.016 64.7229C116.424 64.7265 116.7 64.3085 116.537 63.9345V63.9345L111.328 62.9791Z" fill="url(#paint4_linear_4897_5282)" fill-opacity="0.1"/>
</g>
<path fill-rule="evenodd" clip-rule="evenodd" d="M50.1146 37.1093C49.1846 38.0738 47.8173 38.6831 46.2929 38.6831C43.4911 38.6831 41.2197 36.6247 41.2197 34.0855C41.2197 32.5659 42.0333 31.2185 43.2872 30.3814C43.8573 28.4077 45.8387 26.9514 48.1953 26.9514C49.527 26.9514 50.7389 27.4164 51.644 28.177C52.2093 26.9004 53.5754 26.0002 55.1709 26.0002C57.1695 26.0002 58.8081 27.4126 58.9637 29.2079C59.1754 29.1835 59.391 29.1709 59.61 29.1709C62.4118 29.1709 64.6831 31.2293 64.6831 33.7685C64.6831 36.3076 62.4118 38.366 59.61 38.366C59.0563 38.366 58.5234 38.2857 58.0246 38.1371C57.5258 38.2857 56.9929 38.366 56.4392 38.366C55.1433 38.366 53.9608 37.9256 53.0641 37.201C52.8443 37.191 52.6151 37.1771 52.378 37.1627L52.378 37.1627C51.8618 37.1314 51.3081 37.0977 50.7319 37.0977C50.5229 37.0977 50.3169 37.1022 50.1146 37.1093Z" fill="white"/>
<g filter="url(#filter6_f_4897_5282)">
<path d="M64.683 33.7685C64.683 33.7685 62.4116 30.2807 59.6098 30.2807C56.808 30.2807 54.5366 33.7685 54.5366 33.7685C54.5366 31.2293 56.808 29.1709 59.6098 29.1709C62.4116 29.1709 64.683 31.2293 64.683 33.7685Z" fill="#C4C4C4" fill-opacity="0.1"/>
</g>
<g filter="url(#filter7_f_4897_5282)">
<path d="M58.9755 29.4878C58.9755 29.4878 57.272 26.7927 55.1706 26.7927C53.0692 26.7927 51.3657 29.4878 51.3657 29.4878C51.3657 27.5615 53.0692 26 55.1706 26C57.272 26 58.9755 27.5615 58.9755 29.4878Z" fill="black" fill-opacity="0.1"/>
</g>
<g filter="url(#filter8_f_4897_5282)">
<path d="M42.1709 33.6097C42.1709 36.1489 49.0947 38.6829 46.2929 38.6829C43.4911 38.6829 41.2197 36.6245 41.2197 34.0854C41.2197 31.5462 43.4911 29.4878 46.2929 29.4878C46.2929 29.4878 42.1709 31.0706 42.1709 33.6097Z" fill="black" fill-opacity="0.1"/>
</g>
<g filter="url(#filter9_f_4897_5282)">
<path d="M53.2684 31.5487C53.2684 31.5487 50.9971 28.0609 48.1952 28.0609C45.3934 28.0609 43.1221 31.5487 43.1221 31.5487C43.1221 29.0096 45.3934 26.9512 48.1952 26.9512C50.9971 26.9512 53.2684 29.0096 53.2684 31.5487Z" fill="black" fill-opacity="0.1"/>
</g>
<path d="M42.9634 33.6099L58.7491 37.1452L82.122 38.5879L40.0764 38.9898C39.5442 38.9949 39.1613 38.4803 39.319 37.9721L39.6391 36.9407C40.1323 35.3515 41.3752 34.1062 42.9634 33.6099V33.6099Z" fill="url(#paint5_linear_4897_5282)"/>
<g filter="url(#filter10_f_4897_5282)">
<path d="M42.9632 33.6099L41.0608 35.8294L39.8831 37.1543C39.8588 37.1816 39.8141 37.1587 39.8221 37.1231L39.8501 36.9968C40.2068 35.392 41.3941 34.1002 42.9632 33.6099V33.6099Z" fill="url(#paint6_linear_4897_5282)" fill-opacity="0.1"/>
</g>
<path d="M47.2441 34.561L62.9393 36.3049L72.7685 36.9391L60.7198 37.5732L47.2441 37.7318V34.561Z" fill="url(#paint7_linear_4897_5282)"/>
<g filter="url(#filter11_f_4897_5282)">
<path d="M44.3901 37.256L58.749 37.145L82.1218 38.5877L40.1706 38.9917C39.7636 38.9956 39.4828 38.5852 39.634 38.2072V38.2072L44.3901 37.256Z" fill="url(#paint8_linear_4897_5282)" fill-opacity="0.1"/>
</g>
<g filter="url(#filter12_if_4897_5282)">
<circle cx="122" cy="33" r="9" fill="url(#paint9_radial_4897_5282)"/>
</g>
<g filter="url(#filter13_ii_4897_5282)">
<circle cx="122" cy="33" r="9" fill="#FFCF54"/>
</g>
<path d="M20.1853 56.976H26.1133L20.2863 60.5229C19.1308 61.2263 17.8574 61.7144 16.5278 61.9637L8 63.5627L14.2573 59.2813L8.988 55L20.1853 56.976Z" fill="white"/>
<defs>
<filter id="filter0_f_4897_5282" x="84.4425" y="52.4708" width="15.2049" height="9.77129" filterUnits="userSpaceOnUse" color-interpolation-filters="sRGB">
<feFlood flood-opacity="0" result="BackgroundImageFix"/>
<feBlend mode="normal" in="SourceGraphic" in2="BackgroundImageFix" result="shape"/>
<feGaussianBlur stdDeviation="1.31733" result="effect1_foregroundBlur_4897_5282"/>
</filter>
<filter id="filter1_f_4897_5282" x="90.0318" y="49.3653" width="12.721" height="8.68486" filterUnits="userSpaceOnUse" color-interpolation-filters="sRGB">
<feFlood flood-opacity="0" result="BackgroundImageFix"/>
<feBlend mode="normal" in="SourceGraphic" in2="BackgroundImageFix" result="shape"/>
<feGaussianBlur stdDeviation="1.31733" result="effect1_foregroundBlur_4897_5282"/>
</filter>
<filter id="filter2_f_4897_5282" x="101.797" y="52.7809" width="10.8909" height="14.2737" filterUnits="userSpaceOnUse" color-interpolation-filters="sRGB">
<feFlood flood-opacity="0" result="BackgroundImageFix"/>
<feBlend mode="normal" in="SourceGraphic" in2="BackgroundImageFix" result="shape"/>
<feGaussianBlur stdDeviation="1.31733" result="effect1_foregroundBlur_4897_5282"/>
</filter>
<filter id="filter3_f_4897_5282" x="95.6202" y="50.297" width="15.2049" height="9.77129" filterUnits="userSpaceOnUse" color-interpolation-filters="sRGB">
<feFlood flood-opacity="0" result="BackgroundImageFix"/>
<feBlend mode="normal" in="SourceGraphic" in2="BackgroundImageFix" result="shape"/>
<feGaussianBlur stdDeviation="1.31733" result="effect1_foregroundBlur_4897_5282"/>
</filter>
<filter id="filter4_f_4897_5282" x="106.873" y="58.7559" width="5.71181" height="6.11709" filterUnits="userSpaceOnUse" color-interpolation-filters="sRGB">
<feFlood flood-opacity="0" result="BackgroundImageFix"/>
<feBlend mode="normal" in="SourceGraphic" in2="BackgroundImageFix" result="shape"/>
<feGaussianBlur stdDeviation="0.658667" result="effect1_foregroundBlur_4897_5282"/>
</filter>
<filter id="filter5_f_4897_5282" x="68.6832" y="61.5503" width="49.2187" height="4.49013" filterUnits="userSpaceOnUse" color-interpolation-filters="sRGB">
<feFlood flood-opacity="0" result="BackgroundImageFix"/>
<feBlend mode="normal" in="SourceGraphic" in2="BackgroundImageFix" result="shape"/>
<feGaussianBlur stdDeviation="0.658667" result="effect1_foregroundBlur_4897_5282"/>
</filter>
<filter id="filter6_f_4897_5282" x="50.5366" y="25.1709" width="18.1465" height="12.5977" filterUnits="userSpaceOnUse" color-interpolation-filters="sRGB">
<feFlood flood-opacity="0" result="BackgroundImageFix"/>
<feBlend mode="normal" in="SourceGraphic" in2="BackgroundImageFix" result="shape"/>
<feGaussianBlur stdDeviation="2" result="effect1_foregroundBlur_4897_5282"/>
</filter>
<filter id="filter7_f_4897_5282" x="47.3657" y="22" width="15.6099" height="11.4878" filterUnits="userSpaceOnUse" color-interpolation-filters="sRGB">
<feFlood flood-opacity="0" result="BackgroundImageFix"/>
<feBlend mode="normal" in="SourceGraphic" in2="BackgroundImageFix" result="shape"/>
<feGaussianBlur stdDeviation="2" result="effect1_foregroundBlur_4897_5282"/>
</filter>
<filter id="filter8_f_4897_5282" x="37.2197" y="25.4878" width="13.7407" height="17.1953" filterUnits="userSpaceOnUse" color-interpolation-filters="sRGB">
<feFlood flood-opacity="0" result="BackgroundImageFix"/>
<feBlend mode="normal" in="SourceGraphic" in2="BackgroundImageFix" result="shape"/>
<feGaussianBlur stdDeviation="2" result="effect1_foregroundBlur_4897_5282"/>
</filter>
<filter id="filter9_f_4897_5282" x="39.1221" y="22.9512" width="18.1465" height="12.5977" filterUnits="userSpaceOnUse" color-interpolation-filters="sRGB">
<feFlood flood-opacity="0" result="BackgroundImageFix"/>
<feBlend mode="normal" in="SourceGraphic" in2="BackgroundImageFix" result="shape"/>
<feGaussianBlur stdDeviation="2" result="effect1_foregroundBlur_4897_5282"/>
</filter>
<filter id="filter10_f_4897_5282" x="37.8213" y="31.6099" width="7.14209" height="7.55664" filterUnits="userSpaceOnUse" color-interpolation-filters="sRGB">
<feFlood flood-opacity="0" result="BackgroundImageFix"/>
<feBlend mode="normal" in="SourceGraphic" in2="BackgroundImageFix" result="shape"/>
<feGaussianBlur stdDeviation="1" result="effect1_foregroundBlur_4897_5282"/>
</filter>
<filter id="filter11_f_4897_5282" x="37.5923" y="35.145" width="46.5293" height="5.84668" filterUnits="userSpaceOnUse" color-interpolation-filters="sRGB">
<feFlood flood-opacity="0" result="BackgroundImageFix"/>
<feBlend mode="normal" in="SourceGraphic" in2="BackgroundImageFix" result="shape"/>
<feGaussianBlur stdDeviation="1" result="effect1_foregroundBlur_4897_5282"/>
</filter>
<filter id="filter12_if_4897_5282" x="89.9467" y="0.946669" width="64.1067" height="64.1067" filterUnits="userSpaceOnUse" color-interpolation-filters="sRGB">
<feFlood flood-opacity="0" result="BackgroundImageFix"/>
<feBlend mode="normal" in="SourceGraphic" in2="BackgroundImageFix" result="shape"/>
<feColorMatrix in="SourceAlpha" type="matrix" values="0 0 0 0 0 0 0 0 0 0 0 0 0 0 0 0 0 0 127 0" result="hardAlpha"/>
<feOffset dx="1.31733" dy="1.31733"/>
<feGaussianBlur stdDeviation="1.31733"/>
<feComposite in2="hardAlpha" operator="arithmetic" k2="-1" k3="1"/>
<feColorMatrix type="matrix" values="0 0 0 0 0 0 0 0 0 0 0 0 0 0 0 0 0 0 0.25 0"/>
<feBlend mode="normal" in2="shape" result="effect1_innerShadow_4897_5282"/>
<feGaussianBlur stdDeviation="11.5267" result="effect2_foregroundBlur_4897_5282"/>
</filter>
<filter id="filter13_ii_4897_5282" x="111.683" y="22.6827" width="20.6347" height="20.6347" filterUnits="userSpaceOnUse" color-interpolation-filters="sRGB">
<feFlood flood-opacity="0" result="BackgroundImageFix"/>
<feBlend mode="normal" in="SourceGraphic" in2="BackgroundImageFix" result="shape"/>
<feColorMatrix in="SourceAlpha" type="matrix" values="0 0 0 0 0 0 0 0 0 0 0 0 0 0 0 0 0 0 127 0" result="hardAlpha"/>
<feOffset dx="1.31733" dy="1.31733"/>
<feGaussianBlur stdDeviation="1.31733"/>
<feComposite in2="hardAlpha" operator="arithmetic" k2="-1" k3="1"/>
<feColorMatrix type="matrix" values="0 0 0 0 1 0 0 0 0 1 0 0 0 0 1 0 0 0 0.2 0"/>
<feBlend mode="normal" in2="shape" result="effect1_innerShadow_4897_5282"/>
<feColorMatrix in="SourceAlpha" type="matrix" values="0 0 0 0 0 0 0 0 0 0 0 0 0 0 0 0 0 0 127 0" result="hardAlpha"/>
<feOffset dx="-1.31733" dy="-1.31733"/>
<feGaussianBlur stdDeviation="1.31733"/>
<feComposite in2="hardAlpha" operator="arithmetic" k2="-1" k3="1"/>
<feColorMatrix type="matrix" values="0 0 0 0 0 0 0 0 0 0 0 0 0 0 0 0 0 0 0.05 0"/>
<feBlend mode="normal" in2="effect1_innerShadow_4897_5282" result="effect2_innerShadow_4897_5282"/>
</filter>
<linearGradient id="paint0_linear_4897_5282" x1="75" y1="12" x2="75" y2="108" gradientUnits="userSpaceOnUse">
<stop stop-color="#99D8FF"/>
<stop offset="1" stop-color="#99D8FF" stop-opacity="0"/>
</linearGradient>
<linearGradient id="paint1_linear_4897_5282" x1="100.428" y1="62.8677" x2="51.5264" y2="64.2649" gradientUnits="userSpaceOnUse">
<stop offset="0.263196" stop-color="white"/>
<stop offset="1" stop-color="white" stop-opacity="0"/>
</linearGradient>
<linearGradient id="paint2_linear_4897_5282" x1="104.158" y1="63.9227" x2="49.5288" y2="65.2637" gradientUnits="userSpaceOnUse">
<stop offset="0.263196" stop-color="white"/>
<stop offset="1" stop-color="white" stop-opacity="0"/>
</linearGradient>
<linearGradient id="paint3_linear_4897_5282" x1="104.003" y1="64.5443" x2="49.3735" y2="65.8852" gradientUnits="userSpaceOnUse">
<stop offset="0.263196"/>
<stop offset="1" stop-color="white" stop-opacity="0"/>
</linearGradient>
<linearGradient id="paint4_linear_4897_5282" x1="108.207" y1="63.9026" x2="47.1095" y2="65.5382" gradientUnits="userSpaceOnUse">
<stop offset="0.263196"/>
<stop offset="1" stop-color="white" stop-opacity="0"/>
</linearGradient>
<linearGradient id="paint5_linear_4897_5282" x1="47.2398" y1="38.1757" x2="103.028" y2="39.5451" gradientUnits="userSpaceOnUse">
<stop offset="0.263196" stop-color="white"/>
<stop offset="1" stop-color="white" stop-opacity="0"/>
</linearGradient>
<linearGradient id="paint6_linear_4897_5282" x1="47.2396" y1="38.1757" x2="103.028" y2="39.5451" gradientUnits="userSpaceOnUse">
<stop offset="0.263196"/>
<stop offset="1" stop-color="white" stop-opacity="0"/>
</linearGradient>
<linearGradient id="paint7_linear_4897_5282" x1="52.6344" y1="37.0976" x2="102.573" y2="38.5244" gradientUnits="userSpaceOnUse">
<stop offset="0.263196" stop-color="white"/>
<stop offset="1" stop-color="white" stop-opacity="0"/>
</linearGradient>
<linearGradient id="paint8_linear_4897_5282" x1="47.2396" y1="38.1755" x2="103.028" y2="39.5449" gradientUnits="userSpaceOnUse">
<stop offset="0.263196"/>
<stop offset="1" stop-color="white" stop-opacity="0"/>
</linearGradient>
<radialGradient id="paint9_radial_4897_5282" cx="0" cy="0" r="1" gradientUnits="userSpaceOnUse" gradientTransform="translate(122 33) rotate(90) scale(18)">
<stop stop-color="#FFBC3A"/>
<stop offset="1" stop-color="#FFCF54" stop-opacity="0"/>
</radialGradient>
</defs>
</svg>
